M48
;DRILL file {KiCad (2017-02-19 revision a416f3a4e)-master} date 04/25/17 22:04:15
;FORMAT={2:4/ absolute / inch / suppress leading zeros}
FMAT,2
INCH,TZ
T1C0.012
T2C0.098
%
G90
G05
M72
T1
X19744Y-41772
X19753Y-39896
X19763Y-40205
X19764Y-40514
X19773Y-41463
X19775Y-41154
X19775Y-39370
X19775Y-40827
X19783Y-38642
X19783Y-39016
X19901Y-42593
X19902Y-42283
X19937Y-45504
X19941Y-45846
X19961Y-45196
X19979Y-39667
X19980Y-46496
X19991Y-44744
X20000Y-35512
X20039Y-44035
X20197Y-44980
X20208Y-41802
X20209Y-42609
X20217Y-45635
X20492Y-46220
X20755Y-45691
X20787Y-36870
X20807Y-46220
X21147Y-46162
X21358Y-46457
X21378Y-39803
X21381Y-42857
X21436Y-42205
X21516Y-41004
X21549Y-41762
X21596Y-40515
X21614Y-46161
X21625Y-42450
X21654Y-40000
X21673Y-39646
X21685Y-41299
X21850Y-39331
X21870Y-46575
X21909Y-43425
X21929Y-41765
X21933Y-42420
X21941Y-44260
X22067Y-36909
X22067Y-38051
X22087Y-46260
X22323Y-46575
X22362Y-36594
X22618Y-36594
X22638Y-46457
X22933Y-48366
X22945Y-36917
X22953Y-33839
X22992Y-45872
X22992Y-46181
X23003Y-47402
X23051Y-41614
X23071Y-47067
X23130Y-38082
X23209Y-38839
X23248Y-42474
X23293Y-41829
X23406Y-39567
X23465Y-40197
X23497Y-43371
X23497Y-44965
X23504Y-44031
X23661Y-34567
X23701Y-45925
X23720Y-33858
X23799Y-35000
X24075Y-47185
X24125Y-39546
X24291Y-38346
X24370Y-43701
X24459Y-35606
X24567Y-37377
X24665Y-35855
X24721Y-37892
X24754Y-46467
X24778Y-41834
X24823Y-34508
X24882Y-44547
X24980Y-46063
X25039Y-34154
X25059Y-34882
X25079Y-41765
X25217Y-44567
X25315Y-35689
X25394Y-46929
X25472Y-41043
X25532Y-42076
X25641Y-34374
X25650Y-34783
X25675Y-42735
X25709Y-48012
X25798Y-41654
X25800Y-41104
X25922Y-39711
X25925Y-40335
X25957Y-42862
X25967Y-41394
X26014Y-42106
X26122Y-45650
X26141Y-39489
X26204Y-41687
X26261Y-43170
X26304Y-42644
X26378Y-47795
X26378Y-47362
X26378Y-48248
X26378Y-48672
X26410Y-39338
X26457Y-41319
X26457Y-40768
X26575Y-40453
X26585Y-45578
X26752Y-36969
X26909Y-40531
X27008Y-41683
X27095Y-44066
X27106Y-42795
X27126Y-36890
X27224Y-34055
X27303Y-41063
X27402Y-39528
X27402Y-40039
X27441Y-43799
X27465Y-41938
X27480Y-44370
X27612Y-41063
X27638Y-34094
X27638Y-43366
X27657Y-38228
X27667Y-47008
X27756Y-44646
X27756Y-48268
X27776Y-43819
X27795Y-46693
X27863Y-35886
X27913Y-39528
X27913Y-40039
X27913Y-41181
X28051Y-34646
X28071Y-43366
X28091Y-37531
X28110Y-43839
X28248Y-38799
X28307Y-41791
X28307Y-44252
X28386Y-42854
X28386Y-45138
X28406Y-41496
X28425Y-39094
X28425Y-40551
X28425Y-40866
X28602Y-38819
X28672Y-45512
X28681Y-37106
X28701Y-38504
X28701Y-41949
X28799Y-42264
X28917Y-40709
X28937Y-44803
X28976Y-47087
X29114Y-36516
X29134Y-37243
X29134Y-37560
X29134Y-42303
X29154Y-46024
X29232Y-35728
X29331Y-34646
X29350Y-43917
X29409Y-44587
X29409Y-45020
X29528Y-39162
X29665Y-45335
X29685Y-46024
X29773Y-39350
X29774Y-43061
X29803Y-47776
X29803Y-48425
X29843Y-44626
X30000Y-37598
X30035Y-39162
X30157Y-42323
X30157Y-44547
X30177Y-47185
X30217Y-47795
X30236Y-38681
X30236Y-40669
X30335Y-48602
X30453Y-37205
X30551Y-39547
X30571Y-35728
X30581Y-42451
X30591Y-43346
X30787Y-41654
X30807Y-40787
X30846Y-41220
X30925Y-44665
X30945Y-42756
X30966Y-36142
X30984Y-40267
X31083Y-44250
X31102Y-43465
X31136Y-42123
X31161Y-43799
X31240Y-34961
X31279Y-38957
X31299Y-38191
X31319Y-33839
X31417Y-40217
X31550Y-42154
X31555Y-43406
X31614Y-41339
X31673Y-46299
X31733Y-39330
X31752Y-47362
X31772Y-35374
X31791Y-43169
X31890Y-42736
X31929Y-40394
X31929Y-40703
X32028Y-41782
X32066Y-42206
X32067Y-45464
X32185Y-43780
X32224Y-46575
X32238Y-40709
X32244Y-38996
X32264Y-42746
X32349Y-43337
X32362Y-42109
X32520Y-40492
X32559Y-45197
X32579Y-43130
X32636Y-45496
X32638Y-39331
X32705Y-40759
X32736Y-42677
X32746Y-41299
X33209Y-40394
X33216Y-40703
X33248Y-42362
X33268Y-48602
X33346Y-36988
X33396Y-47648
X33445Y-38012
X33543Y-35000
X33543Y-35276
X33661Y-46969
X33682Y-47277
X33750Y-44636
X33898Y-46220
X34016Y-33858
X34035Y-46555
X34154Y-43386
X34171Y-41789
X34350Y-35610
X34359Y-40846
X34370Y-46102
X34370Y-46417
X34390Y-47598
X34528Y-38150
X34606Y-47343
X34665Y-34154
X34823Y-47598
X34948Y-44510
X34948Y-45017
X35041Y-47341
X35118Y-34449
X35256Y-39498
X35256Y-47579
X35315Y-33858
X35379Y-40099
X35413Y-43150
X35453Y-44961
X35455Y-44510
X35472Y-45512
X35551Y-34409
X35610Y-46496
X35610Y-48661
X35642Y-42902
X35905Y-43108
X35925Y-48671
X35962Y-45524
X35962Y-41929
X36063Y-33878
X36476Y-46516
X36831Y-48091
X37111Y-40738
X37115Y-38474
X37115Y-37894
X37126Y-41761
X37186Y-46535
X37186Y-47539
X37264Y-43524
X37276Y-41000
X37282Y-39805
X37382Y-41299
X37400Y-41613
X37480Y-42126
X37480Y-42776
X37491Y-42467
X37494Y-40777
X37511Y-44665
X37516Y-44974
X37520Y-33878
X37560Y-43840
X37574Y-43074
X37638Y-41831
X37677Y-41201
X37688Y-45335
X37688Y-40196
X38150Y-46161
X38180Y-46988
X38248Y-45609
X38732Y-45976
X38740Y-35669
X38740Y-46285
X38858Y-45020
X38900Y-38732
X38919Y-43184
X38985Y-39862
X38985Y-41808
X38996Y-43839
X39080Y-44371
X39202Y-42441
X39202Y-42751
X39202Y-43060
X39281Y-41110
X39281Y-41419
X39291Y-35591
X39291Y-40177
X39291Y-40492
X39291Y-40801
X39291Y-42146
X39293Y-41832
X39309Y-39423
X39311Y-39094
X39311Y-39732
X39331Y-38484
T2
X20512Y-34449
X20512Y-48228
X38543Y-34449
X38543Y-48228
T0
M30
