G04 #@! TF.GenerationSoftware,KiCad,Pcbnew,(2017-02-19 revision a416f3a4e)-master*
G04 #@! TF.CreationDate,2017-04-29T21:26:46-07:00*
G04 #@! TF.ProjectId,Navi,4E6176692E6B696361645F7063620000,rev?*
G04 #@! TF.FileFunction,Copper,L2,Inr,Plane*
G04 #@! TF.FilePolarity,Positive*
%FSLAX46Y46*%
G04 Gerber Fmt 4.6, Leading zero omitted, Abs format (unit mm)*
G04 Created by KiCad (PCBNEW (2017-02-19 revision a416f3a4e)-master) date 04/29/17 21:26:46*
%MOMM*%
%LPD*%
G01*
G04 APERTURE LIST*
%ADD10C,0.150000*%
%ADD11C,0.625000*%
%ADD12C,0.300000*%
%ADD13C,0.160000*%
%ADD14C,0.130000*%
%ADD15C,0.250000*%
G04 APERTURE END LIST*
D10*
D11*
X55650000Y-110300000D03*
X79447518Y-98950000D03*
X50750000Y-118100000D03*
X73500000Y-113800000D03*
X95300000Y-86050000D03*
X58750000Y-96727490D03*
X98400000Y-90600000D03*
X81900000Y-99049986D03*
X89550000Y-100324484D03*
X79085381Y-106991600D03*
X94452446Y-120750000D03*
X51327488Y-106177553D03*
X67000000Y-123627490D03*
X77050004Y-123450000D03*
X84500000Y-123449988D03*
X98804766Y-98379440D03*
X90050000Y-114200000D03*
X90100000Y-115600000D03*
X74550000Y-111549977D03*
X69700000Y-111250000D03*
X64850010Y-106872479D03*
X81450000Y-115477488D03*
X71350000Y-95327490D03*
X58281281Y-93768719D03*
X62650000Y-91072554D03*
X78700000Y-102277480D03*
X82900000Y-99900000D03*
X76750000Y-121400008D03*
X50250000Y-98150000D03*
X67525931Y-115767532D03*
X59700000Y-111837499D03*
X71300000Y-110150000D03*
X68600000Y-105875000D03*
X83175000Y-104900000D03*
X58300002Y-85950000D03*
X67500000Y-102749982D03*
X70900000Y-101700000D03*
X69600000Y-101700000D03*
X69600000Y-100400000D03*
X70900000Y-100400000D03*
X52800000Y-93650000D03*
X50250000Y-99100000D03*
X60100000Y-87799992D03*
X55000000Y-101600000D03*
X98700000Y-114350000D03*
X55729591Y-112419436D03*
X84824723Y-121024723D03*
X95727498Y-115150000D03*
X88768826Y-114343315D03*
X85725000Y-113375000D03*
X88768826Y-113055815D03*
X91250000Y-123625000D03*
X62875000Y-118025000D03*
X58949994Y-98650000D03*
X56050000Y-96650002D03*
X59682469Y-114212261D03*
X58549978Y-105700022D03*
X59599990Y-102100000D03*
X59450000Y-100500000D03*
X61277521Y-100446985D03*
X65127678Y-87310536D03*
X65150000Y-88350000D03*
X63650000Y-88600000D03*
X84950000Y-96550000D03*
X64050000Y-113199989D03*
X59682469Y-110162490D03*
X91343975Y-106498736D03*
X89862839Y-101851457D03*
X94272512Y-97725000D03*
X94272588Y-96250000D03*
X89200000Y-87500000D03*
X87250000Y-90450000D03*
X79550000Y-85950000D03*
X79350000Y-88800000D03*
X73950000Y-92750014D03*
X56050000Y-93750000D03*
X61700000Y-97400000D03*
X55500000Y-99900000D03*
X62400000Y-94937510D03*
X70272937Y-119400000D03*
X86750680Y-110199575D03*
X95728225Y-102098791D03*
X72850000Y-94250000D03*
X76200000Y-95500000D03*
X95402829Y-111352829D03*
X76600000Y-107500000D03*
X76800000Y-98250000D03*
X72900000Y-97800000D03*
X73450000Y-103400000D03*
X55050000Y-100700000D03*
X52718962Y-116054831D03*
X61150000Y-119850000D03*
X67000000Y-120300000D03*
X86100000Y-117400000D03*
X71250000Y-88000000D03*
X60250000Y-86000000D03*
X78250000Y-103600000D03*
X90300010Y-87400000D03*
X91600000Y-86050040D03*
X89700000Y-86000000D03*
X80700000Y-89850000D03*
X77600000Y-100450000D03*
X87700000Y-96900000D03*
X90056326Y-113055815D03*
X91343826Y-115630815D03*
X58600000Y-119550032D03*
X61900000Y-111000000D03*
X80300000Y-105000000D03*
X78600000Y-108600000D03*
X84450000Y-107600000D03*
X55078778Y-104900000D03*
X99800000Y-90400000D03*
X99800000Y-102050000D03*
X70200000Y-110150006D03*
X68850000Y-108700000D03*
X67082488Y-99918274D03*
X79800000Y-102150000D03*
X68900000Y-93700000D03*
X70900000Y-104600000D03*
X67200000Y-103550000D03*
X58400000Y-117299996D03*
X50900000Y-111850000D03*
X99050000Y-111350000D03*
X84367419Y-103384818D03*
X85200000Y-88900012D03*
X70600000Y-118600000D03*
X90450000Y-123600000D03*
X78200000Y-105800000D03*
X77700000Y-110100000D03*
X74000000Y-107450000D03*
X58250000Y-122850000D03*
X66999998Y-121400000D03*
X67000000Y-122550000D03*
X76650000Y-119850000D03*
X63200000Y-113150000D03*
X88050000Y-86750000D03*
X85200000Y-89600000D03*
X78654570Y-91800000D03*
X70200000Y-86600000D03*
X92650000Y-118150000D03*
X67199991Y-104950000D03*
X73600000Y-119600000D03*
X56800000Y-92950002D03*
X57450000Y-92950000D03*
X64300000Y-90650000D03*
X50800000Y-90200000D03*
X54854784Y-102909157D03*
X63600000Y-86750000D03*
X70250000Y-97100000D03*
X68350000Y-102950000D03*
X60450018Y-88899982D03*
X63701028Y-106083170D03*
X74000000Y-94597500D03*
X74000000Y-95402500D03*
X93550000Y-122150000D03*
X94650000Y-110549988D03*
X60200000Y-116650000D03*
X54447554Y-107200009D03*
X65842422Y-100865923D03*
X65850000Y-102449982D03*
X59050000Y-107883645D03*
X64699972Y-104250000D03*
X59163567Y-106246476D03*
X94452446Y-118200000D03*
X70500000Y-113400000D03*
X66350000Y-115950000D03*
X80137500Y-107070371D03*
X78349992Y-104700000D03*
X78549994Y-113450000D03*
X81000000Y-108549988D03*
X82199998Y-106955658D03*
X73149998Y-107350000D03*
X78951520Y-112394503D03*
X81350000Y-106127355D03*
X72900006Y-106550000D03*
X89949990Y-109600000D03*
X81850000Y-118300000D03*
X54733961Y-106075011D03*
X74050012Y-116900000D03*
X71400000Y-111350000D03*
X76600000Y-113150000D03*
X70550000Y-111300000D03*
X55700000Y-106083204D03*
X90530065Y-108970970D03*
X80450000Y-117600000D03*
X75700000Y-122999982D03*
X75400000Y-116900000D03*
X75700000Y-121350000D03*
X71900000Y-112400000D03*
X58427933Y-120400000D03*
X58400000Y-116514987D03*
X96977521Y-119350000D03*
X99572509Y-107801334D03*
X54926343Y-107822106D03*
X70133456Y-104300000D03*
X65533146Y-104404097D03*
X72826081Y-115600000D03*
X81750000Y-111200000D03*
X55710532Y-107747756D03*
X69348443Y-104300000D03*
X68822172Y-111927828D03*
X82166513Y-110075138D03*
X65300000Y-121950000D03*
X80650000Y-120300000D03*
X91198426Y-109494340D03*
X64500000Y-119200000D03*
X86794923Y-106144923D03*
X74700022Y-114350000D03*
X83150000Y-108400000D03*
X63450000Y-117000000D03*
X50228808Y-100000000D03*
X50650000Y-116450000D03*
X54300000Y-101100000D03*
X71900000Y-106150000D03*
X75625000Y-109375000D03*
X99800000Y-102850000D03*
X72100000Y-108850000D03*
X77675000Y-107825000D03*
X99022510Y-101250002D03*
X70500000Y-122600000D03*
X69800000Y-112700000D03*
X87300000Y-117900000D03*
X87300000Y-117100000D03*
X54250000Y-118000022D03*
X53712490Y-117251908D03*
X79500000Y-97004956D03*
X99900000Y-97750000D03*
X94696276Y-101105304D03*
X62125730Y-90439516D03*
X87272937Y-103750000D03*
X95277468Y-113450000D03*
X95291739Y-114234872D03*
X97150000Y-115847502D03*
X98853447Y-109686266D03*
X99262567Y-112703013D03*
X96900000Y-117250000D03*
X98380077Y-116780077D03*
X98400383Y-117564827D03*
X51349991Y-115912490D03*
X51300000Y-114250000D03*
X50777521Y-113650000D03*
X50700264Y-114796615D03*
X50639221Y-115579250D03*
X50550000Y-107400000D03*
X50547774Y-108185008D03*
X51331635Y-108227493D03*
X55550000Y-118300000D03*
X54900000Y-117250010D03*
X57500000Y-118000000D03*
X56700000Y-118300000D03*
X56100000Y-117500000D03*
X66075011Y-106950000D03*
X65214213Y-108545941D03*
X50198115Y-102120460D03*
X50200004Y-102905469D03*
X65929953Y-108868370D03*
X66812456Y-108316675D03*
X50228808Y-103700000D03*
X50228798Y-104530318D03*
X66701991Y-109651991D03*
X65527493Y-105800000D03*
X66557198Y-105886244D03*
X65955320Y-105141815D03*
X50150000Y-106100000D03*
X52050000Y-117400000D03*
X50222152Y-105315301D03*
X52850000Y-117400000D03*
X54306971Y-108856962D03*
X99800000Y-103635003D03*
X83071007Y-103528010D03*
X81884846Y-103400696D03*
X95234549Y-103572588D03*
X94261739Y-103475336D03*
X81100000Y-103385003D03*
X81100000Y-102600000D03*
X94680405Y-104140190D03*
X90450000Y-118100000D03*
X94950000Y-104900000D03*
X87900000Y-120250000D03*
X99805171Y-106254281D03*
X99572512Y-108586335D03*
X99772937Y-105204541D03*
X89005086Y-120244912D03*
X99022512Y-106193542D03*
X88450000Y-120900000D03*
X99572522Y-109371346D03*
X95699996Y-104650000D03*
X89550000Y-120850000D03*
X86450000Y-118250000D03*
X99800000Y-107049998D03*
X87350004Y-120900000D03*
X85552217Y-120083264D03*
X85500004Y-119300000D03*
X82895119Y-115560376D03*
X82700000Y-114800000D03*
X75350000Y-115150000D03*
X95436747Y-109408788D03*
X74700000Y-113250000D03*
X95200002Y-108649998D03*
X75800000Y-113350000D03*
X95227753Y-107865487D03*
X79000000Y-110400000D03*
X95600000Y-106250000D03*
X79150000Y-111250000D03*
X95200000Y-107000000D03*
X80149996Y-110250000D03*
X94300000Y-106072598D03*
X80750000Y-109650000D03*
X94996938Y-105697447D03*
X86400000Y-86000000D03*
X80602366Y-99897346D03*
X72100012Y-114650000D03*
X62935832Y-106258422D03*
X66397369Y-100301471D03*
X74250000Y-90750000D03*
X70772502Y-91150000D03*
X84350000Y-102600000D03*
X82750000Y-109550000D03*
X77650000Y-90750000D03*
X62791645Y-96245197D03*
X77350000Y-94500000D03*
X84700000Y-93950000D03*
X63050000Y-87650000D03*
X67950000Y-93900000D03*
X69150000Y-86500000D03*
X74500000Y-88000000D03*
X72150000Y-105400000D03*
X81950000Y-108575000D03*
X69760058Y-106521557D03*
X76800000Y-103300000D03*
X81446953Y-107202367D03*
X54650000Y-104150002D03*
X72200000Y-103800000D03*
X76288289Y-99472504D03*
X72650000Y-98600000D03*
X72200000Y-103000000D03*
X99850650Y-100919974D03*
X75624319Y-99948400D03*
X99844130Y-100134990D03*
X75000000Y-99472514D03*
X99850000Y-99300000D03*
X50173776Y-101335826D03*
X72200000Y-99300000D03*
X50747478Y-100753170D03*
X71750000Y-98550000D03*
X99772937Y-104419538D03*
X82600000Y-102850000D03*
D12*
X51574991Y-116825009D02*
X50750000Y-117650000D01*
X50750000Y-117650000D02*
X50750000Y-118100000D01*
X52718962Y-116054831D02*
X52406463Y-116367330D01*
X52406463Y-116367330D02*
X52258518Y-116367330D01*
X52258518Y-116367330D02*
X51800839Y-116825009D01*
X51800839Y-116825009D02*
X51574991Y-116825009D01*
X50016720Y-112733280D02*
X50587501Y-112162499D01*
X51050000Y-124250000D02*
X50025282Y-123225282D01*
X50016720Y-115878051D02*
X50016720Y-112733280D01*
X50587501Y-112162499D02*
X50900000Y-111850000D01*
X50025282Y-123225282D02*
X50025282Y-115886613D01*
X50025282Y-115886613D02*
X50016720Y-115878051D01*
X58600000Y-124250000D02*
X51050000Y-124250000D01*
X90450000Y-124041941D02*
X90708059Y-124300000D01*
X90708059Y-124300000D02*
X99000000Y-124300000D01*
X99000000Y-124300000D02*
X99885068Y-123414932D01*
X99885068Y-112185068D02*
X99362499Y-111662499D01*
X99885068Y-123414932D02*
X99885068Y-112185068D01*
X99362499Y-111662499D02*
X99050000Y-111350000D01*
X90450000Y-124041941D02*
X90450000Y-124050000D01*
X90450000Y-124050000D02*
X90200000Y-124300000D01*
X90200000Y-124300000D02*
X59745002Y-124300000D01*
X59745002Y-124300000D02*
X59695002Y-124250000D01*
X59695002Y-124250000D02*
X58600000Y-124250000D01*
X58600000Y-124250000D02*
X58562499Y-124212499D01*
X58562499Y-123162499D02*
X58562499Y-124212499D01*
X58562499Y-123162499D02*
X58250000Y-122850000D01*
X90450000Y-123600000D02*
X90450000Y-124041941D01*
X99050000Y-111350000D02*
X98230946Y-110530946D01*
X98230946Y-110530946D02*
X98230946Y-105569054D01*
X98230946Y-105569054D02*
X98950000Y-104850000D01*
X98950000Y-102200000D02*
X99100000Y-102050000D01*
X98950000Y-104850000D02*
X98950000Y-102200000D01*
X99800000Y-102050000D02*
X99100000Y-102050000D01*
X99100000Y-102050000D02*
X98878696Y-102050000D01*
X98400000Y-100800000D02*
X99227499Y-99972501D01*
X99227499Y-98878009D02*
X99427267Y-98678241D01*
X98878696Y-102050000D02*
X98400000Y-101571304D01*
X98400000Y-101571304D02*
X98400000Y-100800000D01*
X99227499Y-99972501D02*
X99227499Y-98878009D01*
X99427267Y-98678241D02*
X99427267Y-98198569D01*
X99427267Y-98198569D02*
X99277499Y-97930871D01*
X99277499Y-97930871D02*
X99400467Y-98171769D01*
X99182165Y-97835537D02*
X99277499Y-97930871D01*
D13*
X99400467Y-98171769D02*
X99182165Y-97835537D01*
D12*
X99800000Y-90400000D02*
X99800000Y-96750000D01*
X99800000Y-96750000D02*
X99150000Y-97400000D01*
X99150000Y-97400000D02*
X99150000Y-97803372D01*
X99150000Y-97803372D02*
X99182165Y-97835537D01*
D14*
X50766309Y-102016309D02*
X50735616Y-101985616D01*
X51887501Y-116208003D02*
X51887501Y-111937501D01*
X50735616Y-101985616D02*
X50735616Y-101560534D01*
X50700000Y-106345502D02*
X50700000Y-105632955D01*
X50650000Y-116450000D02*
X51645504Y-116450000D01*
X51645504Y-116450000D02*
X51887501Y-116208003D01*
X51887501Y-111937501D02*
X49950000Y-110000000D01*
X49950000Y-110000000D02*
X49950000Y-107095502D01*
X49950000Y-107095502D02*
X50700000Y-106345502D01*
X50700000Y-105632955D02*
X50766309Y-105566646D01*
X50766309Y-105566646D02*
X50766309Y-102016309D01*
X50735616Y-101560534D02*
X51284979Y-101011171D01*
X51284979Y-101011171D02*
X51284979Y-100495169D01*
X51284979Y-100495169D02*
X50789810Y-100000000D01*
X50789810Y-100000000D02*
X50228808Y-100000000D01*
D15*
G36*
X86039357Y-85459239D02*
X85859869Y-85638414D01*
X85762611Y-85872637D01*
X85762390Y-86126250D01*
X85859239Y-86360643D01*
X86038414Y-86540131D01*
X86272637Y-86637389D01*
X86526250Y-86637610D01*
X86760643Y-86540761D01*
X86940131Y-86361586D01*
X87037389Y-86127363D01*
X87037610Y-85873750D01*
X86940761Y-85639357D01*
X86761586Y-85459869D01*
X86677612Y-85425000D01*
X99975000Y-85425000D01*
X99975000Y-89782392D01*
X99927363Y-89762611D01*
X99673750Y-89762390D01*
X99439357Y-89859239D01*
X99259869Y-90038414D01*
X99162611Y-90272637D01*
X99162390Y-90526250D01*
X99259239Y-90760643D01*
X99325000Y-90826519D01*
X99325000Y-96553248D01*
X98814124Y-97064124D01*
X98711157Y-97218225D01*
X98675000Y-97400000D01*
X98675000Y-97803372D01*
X98711157Y-97985147D01*
X98814124Y-98139248D01*
X98846289Y-98171413D01*
X98888553Y-98213676D01*
X98952267Y-98338495D01*
X98952267Y-98481489D01*
X98891623Y-98542133D01*
X98788656Y-98696234D01*
X98752499Y-98878009D01*
X98752499Y-99775749D01*
X98064124Y-100464124D01*
X97961157Y-100618225D01*
X97925000Y-100800000D01*
X97925000Y-101571304D01*
X97961157Y-101753079D01*
X98064124Y-101907180D01*
X98475000Y-102318055D01*
X98475000Y-104653248D01*
X97895070Y-105233178D01*
X97792103Y-105387279D01*
X97755946Y-105569054D01*
X97755946Y-110530946D01*
X97792103Y-110712721D01*
X97895070Y-110866822D01*
X98412470Y-111384222D01*
X98412390Y-111476250D01*
X98509239Y-111710643D01*
X98688414Y-111890131D01*
X98922637Y-111987389D01*
X99015719Y-111987470D01*
X99026621Y-111998372D01*
X99026623Y-111998375D01*
X99106126Y-112077878D01*
X98901924Y-112162252D01*
X98722436Y-112341427D01*
X98625178Y-112575650D01*
X98624957Y-112829263D01*
X98721806Y-113063656D01*
X98900981Y-113243144D01*
X99135204Y-113340402D01*
X99388817Y-113340623D01*
X99410068Y-113331842D01*
X99410068Y-122030280D01*
X99235999Y-121609000D01*
X98793331Y-121165559D01*
X98214661Y-120925274D01*
X97588088Y-120924727D01*
X97009000Y-121164001D01*
X96565559Y-121606669D01*
X96325274Y-122185339D01*
X96324727Y-122811912D01*
X96564001Y-123391000D01*
X96997244Y-123825000D01*
X91046847Y-123825000D01*
X91087389Y-123727363D01*
X91087610Y-123473750D01*
X90990761Y-123239357D01*
X90811586Y-123059869D01*
X90577363Y-122962611D01*
X90323750Y-122962390D01*
X90089357Y-123059239D01*
X89909869Y-123238414D01*
X89812611Y-123472637D01*
X89812390Y-123726250D01*
X89853193Y-123825000D01*
X59897495Y-123825000D01*
X59876777Y-123811157D01*
X59695002Y-123775000D01*
X59037499Y-123775000D01*
X59037499Y-123162499D01*
X59001342Y-122980724D01*
X58898375Y-122826623D01*
X58898372Y-122826621D01*
X58887530Y-122815779D01*
X58887610Y-122723750D01*
X58790761Y-122489357D01*
X58611586Y-122309869D01*
X58377363Y-122212611D01*
X58123750Y-122212390D01*
X57889357Y-122309239D01*
X57709869Y-122488414D01*
X57612611Y-122722637D01*
X57612390Y-122976250D01*
X57709239Y-123210643D01*
X57888414Y-123390131D01*
X58087499Y-123472798D01*
X58087499Y-123775000D01*
X53052106Y-123775000D01*
X53434441Y-123393331D01*
X53674726Y-122814661D01*
X53675273Y-122188088D01*
X53629063Y-122076250D01*
X64662390Y-122076250D01*
X64759239Y-122310643D01*
X64938414Y-122490131D01*
X65172637Y-122587389D01*
X65426250Y-122587610D01*
X65660643Y-122490761D01*
X65840131Y-122311586D01*
X65937389Y-122077363D01*
X65937610Y-121823750D01*
X65840761Y-121589357D01*
X65777765Y-121526250D01*
X66362388Y-121526250D01*
X66459237Y-121760643D01*
X66638412Y-121940131D01*
X66722304Y-121974966D01*
X66639357Y-122009239D01*
X66459869Y-122188414D01*
X66362611Y-122422637D01*
X66362390Y-122676250D01*
X66459239Y-122910643D01*
X66638414Y-123090131D01*
X66872637Y-123187389D01*
X67126250Y-123187610D01*
X67360643Y-123090761D01*
X67540131Y-122911586D01*
X67617089Y-122726250D01*
X69862390Y-122726250D01*
X69959239Y-122960643D01*
X70138414Y-123140131D01*
X70372637Y-123237389D01*
X70626250Y-123237610D01*
X70860643Y-123140761D01*
X70875197Y-123126232D01*
X75062390Y-123126232D01*
X75159239Y-123360625D01*
X75338414Y-123540113D01*
X75572637Y-123637371D01*
X75826250Y-123637592D01*
X76060643Y-123540743D01*
X76240131Y-123361568D01*
X76337389Y-123127345D01*
X76337610Y-122873732D01*
X76240761Y-122639339D01*
X76061586Y-122459851D01*
X75827363Y-122362593D01*
X75573750Y-122362372D01*
X75339357Y-122459221D01*
X75159869Y-122638396D01*
X75062611Y-122872619D01*
X75062390Y-123126232D01*
X70875197Y-123126232D01*
X71040131Y-122961586D01*
X71137389Y-122727363D01*
X71137610Y-122473750D01*
X71056005Y-122276250D01*
X92912390Y-122276250D01*
X93009239Y-122510643D01*
X93188414Y-122690131D01*
X93422637Y-122787389D01*
X93676250Y-122787610D01*
X93910643Y-122690761D01*
X94090131Y-122511586D01*
X94187389Y-122277363D01*
X94187610Y-122023750D01*
X94090761Y-121789357D01*
X93911586Y-121609869D01*
X93677363Y-121512611D01*
X93423750Y-121512390D01*
X93189357Y-121609239D01*
X93009869Y-121788414D01*
X92912611Y-122022637D01*
X92912390Y-122276250D01*
X71056005Y-122276250D01*
X71040761Y-122239357D01*
X70861586Y-122059869D01*
X70627363Y-121962611D01*
X70373750Y-121962390D01*
X70139357Y-122059239D01*
X69959869Y-122238414D01*
X69862611Y-122472637D01*
X69862390Y-122726250D01*
X67617089Y-122726250D01*
X67637389Y-122677363D01*
X67637610Y-122423750D01*
X67540761Y-122189357D01*
X67361586Y-122009869D01*
X67277694Y-121975034D01*
X67360641Y-121940761D01*
X67540129Y-121761586D01*
X67637387Y-121527363D01*
X67637431Y-121476250D01*
X75062390Y-121476250D01*
X75159239Y-121710643D01*
X75338414Y-121890131D01*
X75572637Y-121987389D01*
X75826250Y-121987610D01*
X76060643Y-121890761D01*
X76240131Y-121711586D01*
X76337389Y-121477363D01*
X76337610Y-121223750D01*
X76256005Y-121026250D01*
X86712394Y-121026250D01*
X86809243Y-121260643D01*
X86988418Y-121440131D01*
X87222641Y-121537389D01*
X87476254Y-121537610D01*
X87710647Y-121440761D01*
X87890135Y-121261586D01*
X87899906Y-121238055D01*
X87909239Y-121260643D01*
X88088414Y-121440131D01*
X88322637Y-121537389D01*
X88576250Y-121537610D01*
X88810643Y-121440761D01*
X88990131Y-121261586D01*
X89010684Y-121212090D01*
X89188414Y-121390131D01*
X89422637Y-121487389D01*
X89676250Y-121487610D01*
X89910643Y-121390761D01*
X90090131Y-121211586D01*
X90187389Y-120977363D01*
X90187610Y-120723750D01*
X90090761Y-120489357D01*
X89911586Y-120309869D01*
X89677363Y-120212611D01*
X89642614Y-120212581D01*
X89642696Y-120118662D01*
X89545847Y-119884269D01*
X89366672Y-119704781D01*
X89132449Y-119607523D01*
X88878836Y-119607302D01*
X88644443Y-119704151D01*
X88464955Y-119883326D01*
X88451579Y-119915539D01*
X88440761Y-119889357D01*
X88261586Y-119709869D01*
X88027363Y-119612611D01*
X87773750Y-119612390D01*
X87539357Y-119709239D01*
X87359869Y-119888414D01*
X87262611Y-120122637D01*
X87262489Y-120262424D01*
X87223754Y-120262390D01*
X86989361Y-120359239D01*
X86809873Y-120538414D01*
X86712615Y-120772637D01*
X86712394Y-121026250D01*
X76256005Y-121026250D01*
X76240761Y-120989357D01*
X76061586Y-120809869D01*
X75827363Y-120712611D01*
X75573750Y-120712390D01*
X75339357Y-120809239D01*
X75159869Y-120988414D01*
X75062611Y-121222637D01*
X75062390Y-121476250D01*
X67637431Y-121476250D01*
X67637608Y-121273750D01*
X67540759Y-121039357D01*
X67361584Y-120859869D01*
X67127361Y-120762611D01*
X66873748Y-120762390D01*
X66639355Y-120859239D01*
X66459867Y-121038414D01*
X66362609Y-121272637D01*
X66362388Y-121526250D01*
X65777765Y-121526250D01*
X65661586Y-121409869D01*
X65427363Y-121312611D01*
X65173750Y-121312390D01*
X64939357Y-121409239D01*
X64759869Y-121588414D01*
X64662611Y-121822637D01*
X64662390Y-122076250D01*
X53629063Y-122076250D01*
X53435999Y-121609000D01*
X52993331Y-121165559D01*
X52414661Y-120925274D01*
X51788088Y-120924727D01*
X51209000Y-121164001D01*
X50765559Y-121606669D01*
X50525274Y-122185339D01*
X50524727Y-122811912D01*
X50694467Y-123222715D01*
X50500282Y-123028530D01*
X50500282Y-120526250D01*
X57790323Y-120526250D01*
X57887172Y-120760643D01*
X58066347Y-120940131D01*
X58300570Y-121037389D01*
X58554183Y-121037610D01*
X58788576Y-120940761D01*
X58968064Y-120761586D01*
X59065322Y-120527363D01*
X59065543Y-120273750D01*
X58981390Y-120070083D01*
X59140131Y-119911618D01*
X59237389Y-119677395D01*
X59237610Y-119423782D01*
X59197311Y-119326250D01*
X63862390Y-119326250D01*
X63959239Y-119560643D01*
X64138414Y-119740131D01*
X64372637Y-119837389D01*
X64626250Y-119837610D01*
X64860643Y-119740761D01*
X64875179Y-119726250D01*
X72962390Y-119726250D01*
X73059239Y-119960643D01*
X73238414Y-120140131D01*
X73472637Y-120237389D01*
X73726250Y-120237610D01*
X73960643Y-120140761D01*
X74125441Y-119976250D01*
X76012390Y-119976250D01*
X76109239Y-120210643D01*
X76288414Y-120390131D01*
X76522637Y-120487389D01*
X76776250Y-120487610D01*
X76924752Y-120426250D01*
X80012390Y-120426250D01*
X80109239Y-120660643D01*
X80288414Y-120840131D01*
X80522637Y-120937389D01*
X80776250Y-120937610D01*
X81010643Y-120840761D01*
X81190131Y-120661586D01*
X81287389Y-120427363D01*
X81287610Y-120173750D01*
X81190761Y-119939357D01*
X81011586Y-119759869D01*
X80777363Y-119662611D01*
X80523750Y-119662390D01*
X80289357Y-119759239D01*
X80109869Y-119938414D01*
X80012611Y-120172637D01*
X80012390Y-120426250D01*
X76924752Y-120426250D01*
X77010643Y-120390761D01*
X77190131Y-120211586D01*
X77287389Y-119977363D01*
X77287610Y-119723750D01*
X77190761Y-119489357D01*
X77127765Y-119426250D01*
X84862394Y-119426250D01*
X84959243Y-119660643D01*
X85016136Y-119717635D01*
X85012086Y-119721678D01*
X84914828Y-119955901D01*
X84914607Y-120209514D01*
X85011456Y-120443907D01*
X85190631Y-120623395D01*
X85424854Y-120720653D01*
X85678467Y-120720874D01*
X85912860Y-120624025D01*
X86092348Y-120444850D01*
X86189606Y-120210627D01*
X86189827Y-119957014D01*
X86092978Y-119722621D01*
X86036085Y-119665629D01*
X86040135Y-119661586D01*
X86117093Y-119476250D01*
X96339911Y-119476250D01*
X96436760Y-119710643D01*
X96615935Y-119890131D01*
X96850158Y-119987389D01*
X97103771Y-119987610D01*
X97338164Y-119890761D01*
X97517652Y-119711586D01*
X97614910Y-119477363D01*
X97615131Y-119223750D01*
X97518282Y-118989357D01*
X97339107Y-118809869D01*
X97104884Y-118712611D01*
X96851271Y-118712390D01*
X96616878Y-118809239D01*
X96437390Y-118988414D01*
X96340132Y-119222637D01*
X96339911Y-119476250D01*
X86117093Y-119476250D01*
X86137393Y-119427363D01*
X86137614Y-119173750D01*
X86040765Y-118939357D01*
X85861590Y-118759869D01*
X85627367Y-118662611D01*
X85373754Y-118662390D01*
X85139361Y-118759239D01*
X84959873Y-118938414D01*
X84862615Y-119172637D01*
X84862394Y-119426250D01*
X77127765Y-119426250D01*
X77011586Y-119309869D01*
X76777363Y-119212611D01*
X76523750Y-119212390D01*
X76289357Y-119309239D01*
X76109869Y-119488414D01*
X76012611Y-119722637D01*
X76012390Y-119976250D01*
X74125441Y-119976250D01*
X74140131Y-119961586D01*
X74237389Y-119727363D01*
X74237610Y-119473750D01*
X74140761Y-119239357D01*
X73961586Y-119059869D01*
X73727363Y-118962611D01*
X73473750Y-118962390D01*
X73239357Y-119059239D01*
X73059869Y-119238414D01*
X72962611Y-119472637D01*
X72962390Y-119726250D01*
X64875179Y-119726250D01*
X65040131Y-119561586D01*
X65137389Y-119327363D01*
X65137610Y-119073750D01*
X65040761Y-118839357D01*
X64927852Y-118726250D01*
X69962390Y-118726250D01*
X70059239Y-118960643D01*
X70238414Y-119140131D01*
X70472637Y-119237389D01*
X70726250Y-119237610D01*
X70960643Y-119140761D01*
X71140131Y-118961586D01*
X71237389Y-118727363D01*
X71237610Y-118473750D01*
X71217984Y-118426250D01*
X81212390Y-118426250D01*
X81309239Y-118660643D01*
X81488414Y-118840131D01*
X81722637Y-118937389D01*
X81976250Y-118937610D01*
X82210643Y-118840761D01*
X82390131Y-118661586D01*
X82487389Y-118427363D01*
X82487433Y-118376250D01*
X85812390Y-118376250D01*
X85909239Y-118610643D01*
X86088414Y-118790131D01*
X86322637Y-118887389D01*
X86576250Y-118887610D01*
X86810643Y-118790761D01*
X86990131Y-118611586D01*
X87043250Y-118483663D01*
X87172637Y-118537389D01*
X87426250Y-118537610D01*
X87660643Y-118440761D01*
X87840131Y-118261586D01*
X87854803Y-118226250D01*
X89812390Y-118226250D01*
X89909239Y-118460643D01*
X90088414Y-118640131D01*
X90322637Y-118737389D01*
X90576250Y-118737610D01*
X90810643Y-118640761D01*
X90990131Y-118461586D01*
X91067089Y-118276250D01*
X92012390Y-118276250D01*
X92109239Y-118510643D01*
X92288414Y-118690131D01*
X92522637Y-118787389D01*
X92776250Y-118787610D01*
X93010643Y-118690761D01*
X93190131Y-118511586D01*
X93267089Y-118326250D01*
X93814836Y-118326250D01*
X93911685Y-118560643D01*
X94090860Y-118740131D01*
X94325083Y-118837389D01*
X94578696Y-118837610D01*
X94813089Y-118740761D01*
X94992577Y-118561586D01*
X95089835Y-118327363D01*
X95090056Y-118073750D01*
X94993207Y-117839357D01*
X94814032Y-117659869D01*
X94579809Y-117562611D01*
X94326196Y-117562390D01*
X94091803Y-117659239D01*
X93912315Y-117838414D01*
X93815057Y-118072637D01*
X93814836Y-118326250D01*
X93267089Y-118326250D01*
X93287389Y-118277363D01*
X93287610Y-118023750D01*
X93190761Y-117789357D01*
X93011586Y-117609869D01*
X92777363Y-117512611D01*
X92523750Y-117512390D01*
X92289357Y-117609239D01*
X92109869Y-117788414D01*
X92012611Y-118022637D01*
X92012390Y-118276250D01*
X91067089Y-118276250D01*
X91087389Y-118227363D01*
X91087610Y-117973750D01*
X90990761Y-117739357D01*
X90811586Y-117559869D01*
X90577363Y-117462611D01*
X90323750Y-117462390D01*
X90089357Y-117559239D01*
X89909869Y-117738414D01*
X89812611Y-117972637D01*
X89812390Y-118226250D01*
X87854803Y-118226250D01*
X87937389Y-118027363D01*
X87937610Y-117773750D01*
X87840761Y-117539357D01*
X87801561Y-117500089D01*
X87840131Y-117461586D01*
X87875565Y-117376250D01*
X96262390Y-117376250D01*
X96359239Y-117610643D01*
X96538414Y-117790131D01*
X96772637Y-117887389D01*
X97026250Y-117887610D01*
X97260643Y-117790761D01*
X97440131Y-117611586D01*
X97537389Y-117377363D01*
X97537610Y-117123750D01*
X97447773Y-116906327D01*
X97742467Y-116906327D01*
X97839316Y-117140720D01*
X97881026Y-117182503D01*
X97860252Y-117203241D01*
X97762994Y-117437464D01*
X97762773Y-117691077D01*
X97859622Y-117925470D01*
X98038797Y-118104958D01*
X98273020Y-118202216D01*
X98526633Y-118202437D01*
X98761026Y-118105588D01*
X98940514Y-117926413D01*
X99037772Y-117692190D01*
X99037993Y-117438577D01*
X98941144Y-117204184D01*
X98899434Y-117162401D01*
X98920208Y-117141663D01*
X99017466Y-116907440D01*
X99017687Y-116653827D01*
X98920838Y-116419434D01*
X98741663Y-116239946D01*
X98507440Y-116142688D01*
X98253827Y-116142467D01*
X98019434Y-116239316D01*
X97839946Y-116418491D01*
X97742688Y-116652714D01*
X97742467Y-116906327D01*
X97447773Y-116906327D01*
X97440761Y-116889357D01*
X97261586Y-116709869D01*
X97027363Y-116612611D01*
X96773750Y-116612390D01*
X96539357Y-116709239D01*
X96359869Y-116888414D01*
X96262611Y-117122637D01*
X96262390Y-117376250D01*
X87875565Y-117376250D01*
X87937389Y-117227363D01*
X87937610Y-116973750D01*
X87840761Y-116739357D01*
X87661586Y-116559869D01*
X87427363Y-116462611D01*
X87173750Y-116462390D01*
X86939357Y-116559239D01*
X86759869Y-116738414D01*
X86662611Y-116972637D01*
X86662390Y-117226250D01*
X86759239Y-117460643D01*
X86798439Y-117499911D01*
X86759869Y-117538414D01*
X86706750Y-117666337D01*
X86577363Y-117612611D01*
X86323750Y-117612390D01*
X86089357Y-117709239D01*
X85909869Y-117888414D01*
X85812611Y-118122637D01*
X85812390Y-118376250D01*
X82487433Y-118376250D01*
X82487610Y-118173750D01*
X82390761Y-117939357D01*
X82211586Y-117759869D01*
X81977363Y-117662611D01*
X81723750Y-117662390D01*
X81489357Y-117759239D01*
X81309869Y-117938414D01*
X81212611Y-118172637D01*
X81212390Y-118426250D01*
X71217984Y-118426250D01*
X71140761Y-118239357D01*
X70961586Y-118059869D01*
X70727363Y-117962611D01*
X70473750Y-117962390D01*
X70239357Y-118059239D01*
X70059869Y-118238414D01*
X69962611Y-118472637D01*
X69962390Y-118726250D01*
X64927852Y-118726250D01*
X64861586Y-118659869D01*
X64627363Y-118562611D01*
X64373750Y-118562390D01*
X64139357Y-118659239D01*
X63959869Y-118838414D01*
X63862611Y-119072637D01*
X63862390Y-119326250D01*
X59197311Y-119326250D01*
X59140761Y-119189389D01*
X58961586Y-119009901D01*
X58727363Y-118912643D01*
X58473750Y-118912422D01*
X58239357Y-119009271D01*
X58059869Y-119188446D01*
X57962611Y-119422669D01*
X57962390Y-119676282D01*
X58046543Y-119879949D01*
X57887802Y-120038414D01*
X57790544Y-120272637D01*
X57790323Y-120526250D01*
X50500282Y-120526250D01*
X50500282Y-117526250D01*
X51412390Y-117526250D01*
X51509239Y-117760643D01*
X51688414Y-117940131D01*
X51922637Y-118037389D01*
X52176250Y-118037610D01*
X52410643Y-117940761D01*
X52449911Y-117901561D01*
X52488414Y-117940131D01*
X52722637Y-118037389D01*
X52976250Y-118037610D01*
X53210643Y-117940761D01*
X53357063Y-117794596D01*
X53585127Y-117889297D01*
X53612596Y-117889321D01*
X53612390Y-118126272D01*
X53709239Y-118360665D01*
X53888414Y-118540153D01*
X54122637Y-118637411D01*
X54376250Y-118637632D01*
X54610643Y-118540783D01*
X54790131Y-118361608D01*
X54887389Y-118127385D01*
X54887598Y-117887499D01*
X55026250Y-117887620D01*
X55085118Y-117863296D01*
X55009869Y-117938414D01*
X54912611Y-118172637D01*
X54912390Y-118426250D01*
X55009239Y-118660643D01*
X55188414Y-118840131D01*
X55422637Y-118937389D01*
X55676250Y-118937610D01*
X55910643Y-118840761D01*
X56090131Y-118661586D01*
X56124966Y-118577695D01*
X56159239Y-118660643D01*
X56338414Y-118840131D01*
X56572637Y-118937389D01*
X56826250Y-118937610D01*
X57060643Y-118840761D01*
X57240131Y-118661586D01*
X57268188Y-118594018D01*
X57372637Y-118637389D01*
X57626250Y-118637610D01*
X57860643Y-118540761D01*
X58040131Y-118361586D01*
X58137389Y-118127363D01*
X58137603Y-117881314D01*
X58272637Y-117937385D01*
X58526250Y-117937606D01*
X58760643Y-117840757D01*
X58875350Y-117726250D01*
X79812390Y-117726250D01*
X79909239Y-117960643D01*
X80088414Y-118140131D01*
X80322637Y-118237389D01*
X80576250Y-118237610D01*
X80810643Y-118140761D01*
X80990131Y-117961586D01*
X81087389Y-117727363D01*
X81087610Y-117473750D01*
X80990761Y-117239357D01*
X80811586Y-117059869D01*
X80577363Y-116962611D01*
X80323750Y-116962390D01*
X80089357Y-117059239D01*
X79909869Y-117238414D01*
X79812611Y-117472637D01*
X79812390Y-117726250D01*
X58875350Y-117726250D01*
X58940131Y-117661582D01*
X59037389Y-117427359D01*
X59037610Y-117173746D01*
X58940761Y-116939353D01*
X58909057Y-116907593D01*
X58940131Y-116876573D01*
X58981788Y-116776250D01*
X59562390Y-116776250D01*
X59659239Y-117010643D01*
X59838414Y-117190131D01*
X60072637Y-117287389D01*
X60326250Y-117287610D01*
X60560643Y-117190761D01*
X60625266Y-117126250D01*
X62812390Y-117126250D01*
X62909239Y-117360643D01*
X63088414Y-117540131D01*
X63322637Y-117637389D01*
X63576250Y-117637610D01*
X63810643Y-117540761D01*
X63990131Y-117361586D01*
X64087389Y-117127363D01*
X64087477Y-117026250D01*
X73412402Y-117026250D01*
X73509251Y-117260643D01*
X73688426Y-117440131D01*
X73922649Y-117537389D01*
X74176262Y-117537610D01*
X74410655Y-117440761D01*
X74590143Y-117261586D01*
X74687401Y-117027363D01*
X74687401Y-117026250D01*
X74762390Y-117026250D01*
X74859239Y-117260643D01*
X75038414Y-117440131D01*
X75272637Y-117537389D01*
X75526250Y-117537610D01*
X75760643Y-117440761D01*
X75940131Y-117261586D01*
X76037389Y-117027363D01*
X76037610Y-116773750D01*
X75940761Y-116539357D01*
X75761586Y-116359869D01*
X75527363Y-116262611D01*
X75273750Y-116262390D01*
X75039357Y-116359239D01*
X74859869Y-116538414D01*
X74762611Y-116772637D01*
X74762390Y-117026250D01*
X74687401Y-117026250D01*
X74687622Y-116773750D01*
X74590773Y-116539357D01*
X74411598Y-116359869D01*
X74177375Y-116262611D01*
X73923762Y-116262390D01*
X73689369Y-116359239D01*
X73509881Y-116538414D01*
X73412623Y-116772637D01*
X73412402Y-117026250D01*
X64087477Y-117026250D01*
X64087610Y-116873750D01*
X63990761Y-116639357D01*
X63811586Y-116459869D01*
X63577363Y-116362611D01*
X63323750Y-116362390D01*
X63089357Y-116459239D01*
X62909869Y-116638414D01*
X62812611Y-116872637D01*
X62812390Y-117126250D01*
X60625266Y-117126250D01*
X60740131Y-117011586D01*
X60837389Y-116777363D01*
X60837610Y-116523750D01*
X60740761Y-116289357D01*
X60561586Y-116109869D01*
X60480623Y-116076250D01*
X65712390Y-116076250D01*
X65809239Y-116310643D01*
X65988414Y-116490131D01*
X66222637Y-116587389D01*
X66476250Y-116587610D01*
X66710643Y-116490761D01*
X66890131Y-116311586D01*
X66987389Y-116077363D01*
X66987610Y-115823750D01*
X66890761Y-115589357D01*
X66711586Y-115409869D01*
X66477363Y-115312611D01*
X66223750Y-115312390D01*
X65989357Y-115409239D01*
X65809869Y-115588414D01*
X65712611Y-115822637D01*
X65712390Y-116076250D01*
X60480623Y-116076250D01*
X60327363Y-116012611D01*
X60073750Y-116012390D01*
X59839357Y-116109239D01*
X59659869Y-116288414D01*
X59562611Y-116522637D01*
X59562390Y-116776250D01*
X58981788Y-116776250D01*
X59037389Y-116642350D01*
X59037610Y-116388737D01*
X58940761Y-116154344D01*
X58761586Y-115974856D01*
X58527363Y-115877598D01*
X58273750Y-115877377D01*
X58039357Y-115974226D01*
X57859869Y-116153401D01*
X57762611Y-116387624D01*
X57762390Y-116641237D01*
X57859239Y-116875630D01*
X57890943Y-116907390D01*
X57859869Y-116938410D01*
X57762611Y-117172633D01*
X57762397Y-117418682D01*
X57627363Y-117362611D01*
X57373750Y-117362390D01*
X57139357Y-117459239D01*
X56959869Y-117638414D01*
X56931812Y-117705982D01*
X56827363Y-117662611D01*
X56722791Y-117662520D01*
X56737389Y-117627363D01*
X56737610Y-117373750D01*
X56640761Y-117139357D01*
X56461586Y-116959869D01*
X56227363Y-116862611D01*
X55973750Y-116862390D01*
X55739357Y-116959239D01*
X55559869Y-117138414D01*
X55537550Y-117192163D01*
X55537610Y-117123760D01*
X55440761Y-116889367D01*
X55261586Y-116709879D01*
X55027363Y-116612621D01*
X54773750Y-116612400D01*
X54539357Y-116709249D01*
X54359869Y-116888424D01*
X54305840Y-117018540D01*
X54253251Y-116891265D01*
X54074076Y-116711777D01*
X53839853Y-116614519D01*
X53586240Y-116614298D01*
X53351847Y-116711147D01*
X53205427Y-116857312D01*
X52977363Y-116762611D01*
X52723750Y-116762390D01*
X52489357Y-116859239D01*
X52450089Y-116898439D01*
X52411586Y-116859869D01*
X52177363Y-116762611D01*
X51923750Y-116762390D01*
X51689357Y-116859239D01*
X51509869Y-117038414D01*
X51412611Y-117272637D01*
X51412390Y-117526250D01*
X50500282Y-117526250D01*
X50500282Y-117078106D01*
X50522637Y-117087389D01*
X50776250Y-117087610D01*
X51010643Y-116990761D01*
X51161667Y-116840000D01*
X51645499Y-116840000D01*
X51645504Y-116840001D01*
X51769989Y-116815239D01*
X51794751Y-116810313D01*
X51921276Y-116725772D01*
X52163270Y-116483777D01*
X52163273Y-116483775D01*
X52247814Y-116357250D01*
X52277501Y-116208003D01*
X52277501Y-114776250D01*
X71462402Y-114776250D01*
X71559251Y-115010643D01*
X71738426Y-115190131D01*
X71972649Y-115287389D01*
X72226262Y-115287610D01*
X72273653Y-115268028D01*
X72188692Y-115472637D01*
X72188471Y-115726250D01*
X72285320Y-115960643D01*
X72464495Y-116140131D01*
X72698718Y-116237389D01*
X72952331Y-116237610D01*
X73186724Y-116140761D01*
X73366212Y-115961586D01*
X73463470Y-115727363D01*
X73463691Y-115473750D01*
X73366842Y-115239357D01*
X73187667Y-115059869D01*
X72953444Y-114962611D01*
X72699831Y-114962390D01*
X72652440Y-114981972D01*
X72737401Y-114777363D01*
X72737622Y-114523750D01*
X72640773Y-114289357D01*
X72461598Y-114109869D01*
X72227375Y-114012611D01*
X71973762Y-114012390D01*
X71739369Y-114109239D01*
X71559881Y-114288414D01*
X71462623Y-114522637D01*
X71462402Y-114776250D01*
X52277501Y-114776250D01*
X52277501Y-113276250D01*
X62562390Y-113276250D01*
X62659239Y-113510643D01*
X62838414Y-113690131D01*
X63072637Y-113787389D01*
X63326250Y-113787610D01*
X63560643Y-113690761D01*
X63740131Y-113511586D01*
X63837389Y-113277363D01*
X63837610Y-113023750D01*
X63740761Y-112789357D01*
X63561586Y-112609869D01*
X63327363Y-112512611D01*
X63073750Y-112512390D01*
X62839357Y-112609239D01*
X62659869Y-112788414D01*
X62562611Y-113022637D01*
X62562390Y-113276250D01*
X52277501Y-113276250D01*
X52277501Y-112054078D01*
X68184562Y-112054078D01*
X68281411Y-112288471D01*
X68460586Y-112467959D01*
X68694809Y-112565217D01*
X68948422Y-112565438D01*
X69182815Y-112468589D01*
X69222099Y-112429373D01*
X69162611Y-112572637D01*
X69162390Y-112826250D01*
X69259239Y-113060643D01*
X69438414Y-113240131D01*
X69672637Y-113337389D01*
X69862554Y-113337554D01*
X69862390Y-113526250D01*
X69959239Y-113760643D01*
X70138414Y-113940131D01*
X70372637Y-114037389D01*
X70626250Y-114037610D01*
X70860643Y-113940761D01*
X71040131Y-113761586D01*
X71137389Y-113527363D01*
X71137520Y-113376250D01*
X74062390Y-113376250D01*
X74159239Y-113610643D01*
X74338414Y-113790131D01*
X74361961Y-113799908D01*
X74339379Y-113809239D01*
X74159891Y-113988414D01*
X74062633Y-114222637D01*
X74062412Y-114476250D01*
X74159261Y-114710643D01*
X74338436Y-114890131D01*
X74572659Y-114987389D01*
X74727191Y-114987524D01*
X74712611Y-115022637D01*
X74712390Y-115276250D01*
X74809239Y-115510643D01*
X74988414Y-115690131D01*
X75222637Y-115787389D01*
X75476250Y-115787610D01*
X75710643Y-115690761D01*
X75890131Y-115511586D01*
X75987389Y-115277363D01*
X75987610Y-115023750D01*
X75947324Y-114926250D01*
X82062390Y-114926250D01*
X82159239Y-115160643D01*
X82308670Y-115310335D01*
X82257730Y-115433013D01*
X82257509Y-115686626D01*
X82354358Y-115921019D01*
X82533533Y-116100507D01*
X82767756Y-116197765D01*
X83021369Y-116197986D01*
X83255762Y-116101137D01*
X83383369Y-115973752D01*
X96512390Y-115973752D01*
X96609239Y-116208145D01*
X96788414Y-116387633D01*
X97022637Y-116484891D01*
X97276250Y-116485112D01*
X97510643Y-116388263D01*
X97690131Y-116209088D01*
X97787389Y-115974865D01*
X97787610Y-115721252D01*
X97690761Y-115486859D01*
X97511586Y-115307371D01*
X97277363Y-115210113D01*
X97023750Y-115209892D01*
X96789357Y-115306741D01*
X96609869Y-115485916D01*
X96512611Y-115720139D01*
X96512390Y-115973752D01*
X83383369Y-115973752D01*
X83435250Y-115921962D01*
X83532508Y-115687739D01*
X83532729Y-115434126D01*
X83435880Y-115199733D01*
X83286449Y-115050041D01*
X83337389Y-114927363D01*
X83337610Y-114673750D01*
X83240761Y-114439357D01*
X83061586Y-114259869D01*
X82827363Y-114162611D01*
X82573750Y-114162390D01*
X82339357Y-114259239D01*
X82159869Y-114438414D01*
X82062611Y-114672637D01*
X82062390Y-114926250D01*
X75947324Y-114926250D01*
X75890761Y-114789357D01*
X75711586Y-114609869D01*
X75477363Y-114512611D01*
X75322831Y-114512476D01*
X75337411Y-114477363D01*
X75337632Y-114223750D01*
X75240783Y-113989357D01*
X75061608Y-113809869D01*
X75038061Y-113800092D01*
X75060643Y-113790761D01*
X75224682Y-113627008D01*
X75259239Y-113710643D01*
X75438414Y-113890131D01*
X75672637Y-113987389D01*
X75926250Y-113987610D01*
X76160643Y-113890761D01*
X76325429Y-113726263D01*
X76472637Y-113787389D01*
X76726250Y-113787610D01*
X76960643Y-113690761D01*
X77075354Y-113576250D01*
X77912384Y-113576250D01*
X78009233Y-113810643D01*
X78188408Y-113990131D01*
X78422631Y-114087389D01*
X78676244Y-114087610D01*
X78910637Y-113990761D01*
X79090125Y-113811586D01*
X79187383Y-113577363D01*
X79187383Y-113576250D01*
X94639858Y-113576250D01*
X94736707Y-113810643D01*
X94775466Y-113849470D01*
X94751608Y-113873286D01*
X94654350Y-114107509D01*
X94654129Y-114361122D01*
X94750978Y-114595515D01*
X94930153Y-114775003D01*
X95164376Y-114872261D01*
X95417989Y-114872482D01*
X95652382Y-114775633D01*
X95831870Y-114596458D01*
X95929128Y-114362235D01*
X95929349Y-114108622D01*
X95832500Y-113874229D01*
X95793741Y-113835402D01*
X95817599Y-113811586D01*
X95914857Y-113577363D01*
X95915078Y-113323750D01*
X95818229Y-113089357D01*
X95639054Y-112909869D01*
X95404831Y-112812611D01*
X95151218Y-112812390D01*
X94916825Y-112909239D01*
X94737337Y-113088414D01*
X94640079Y-113322637D01*
X94639858Y-113576250D01*
X79187383Y-113576250D01*
X79187604Y-113323750D01*
X79090755Y-113089357D01*
X79033572Y-113032074D01*
X79077770Y-113032113D01*
X79312163Y-112935264D01*
X79491651Y-112756089D01*
X79588909Y-112521866D01*
X79589130Y-112268253D01*
X79492281Y-112033860D01*
X79325834Y-111867122D01*
X79510643Y-111790761D01*
X79690131Y-111611586D01*
X79787389Y-111377363D01*
X79787610Y-111123750D01*
X79690761Y-110889357D01*
X79546912Y-110745256D01*
X79606029Y-110602885D01*
X79609235Y-110610643D01*
X79788410Y-110790131D01*
X80022633Y-110887389D01*
X80276246Y-110887610D01*
X80510639Y-110790761D01*
X80690127Y-110611586D01*
X80787385Y-110377363D01*
X80787463Y-110287533D01*
X80876250Y-110287610D01*
X81110643Y-110190761D01*
X81290131Y-110011586D01*
X81387389Y-109777363D01*
X81387610Y-109523750D01*
X81290761Y-109289357D01*
X81170803Y-109169189D01*
X81360643Y-109090749D01*
X81462536Y-108989033D01*
X81588414Y-109115131D01*
X81822637Y-109212389D01*
X82076250Y-109212610D01*
X82262879Y-109135497D01*
X82209869Y-109188414D01*
X82112611Y-109422637D01*
X82112598Y-109437591D01*
X82040263Y-109437528D01*
X81805870Y-109534377D01*
X81626382Y-109713552D01*
X81529124Y-109947775D01*
X81528903Y-110201388D01*
X81625752Y-110435781D01*
X81752252Y-110562502D01*
X81623750Y-110562390D01*
X81389357Y-110659239D01*
X81209869Y-110838414D01*
X81112611Y-111072637D01*
X81112390Y-111326250D01*
X81209239Y-111560643D01*
X81388414Y-111740131D01*
X81622637Y-111837389D01*
X81876250Y-111837610D01*
X82110643Y-111740761D01*
X82290131Y-111561586D01*
X82387389Y-111327363D01*
X82387610Y-111073750D01*
X82290761Y-110839357D01*
X82164261Y-110712636D01*
X82292763Y-110712748D01*
X82381124Y-110676238D01*
X94012390Y-110676238D01*
X94109239Y-110910631D01*
X94288414Y-111090119D01*
X94522637Y-111187377D01*
X94776250Y-111187598D01*
X95010643Y-111090749D01*
X95190131Y-110911574D01*
X95287389Y-110677351D01*
X95287610Y-110423738D01*
X95190761Y-110189345D01*
X95011586Y-110009857D01*
X94777363Y-109912599D01*
X94523750Y-109912378D01*
X94289357Y-110009227D01*
X94109869Y-110188402D01*
X94012611Y-110422625D01*
X94012390Y-110676238D01*
X82381124Y-110676238D01*
X82527156Y-110615899D01*
X82706644Y-110436724D01*
X82803902Y-110202501D01*
X82803915Y-110187547D01*
X82876250Y-110187610D01*
X83110643Y-110090761D01*
X83290131Y-109911586D01*
X83367089Y-109726250D01*
X89312380Y-109726250D01*
X89409229Y-109960643D01*
X89588404Y-110140131D01*
X89822627Y-110237389D01*
X90076240Y-110237610D01*
X90310633Y-110140761D01*
X90490121Y-109961586D01*
X90587379Y-109727363D01*
X90587416Y-109684967D01*
X90657665Y-109854983D01*
X90836840Y-110034471D01*
X91071063Y-110131729D01*
X91324676Y-110131950D01*
X91559069Y-110035101D01*
X91738557Y-109855926D01*
X91835815Y-109621703D01*
X91836036Y-109368090D01*
X91739187Y-109133697D01*
X91560012Y-108954209D01*
X91325789Y-108856951D01*
X91167664Y-108856813D01*
X91167675Y-108844720D01*
X91070826Y-108610327D01*
X90891651Y-108430839D01*
X90657428Y-108333581D01*
X90403815Y-108333360D01*
X90169422Y-108430209D01*
X89989934Y-108609384D01*
X89892676Y-108843607D01*
X89892572Y-108962450D01*
X89823740Y-108962390D01*
X89589347Y-109059239D01*
X89409859Y-109238414D01*
X89312601Y-109472637D01*
X89312380Y-109726250D01*
X83367089Y-109726250D01*
X83387389Y-109677363D01*
X83387610Y-109423750D01*
X83290761Y-109189357D01*
X83139159Y-109037491D01*
X83276250Y-109037610D01*
X83510643Y-108940761D01*
X83690131Y-108761586D01*
X83787389Y-108527363D01*
X83787610Y-108273750D01*
X83690761Y-108039357D01*
X83511586Y-107859869D01*
X83277363Y-107762611D01*
X83023750Y-107762390D01*
X82789357Y-107859239D01*
X82609869Y-108038414D01*
X82513729Y-108269944D01*
X82490761Y-108214357D01*
X82311586Y-108034869D01*
X82077363Y-107937611D01*
X81823750Y-107937390D01*
X81589357Y-108034239D01*
X81487464Y-108135955D01*
X81361586Y-108009857D01*
X81127363Y-107912599D01*
X80873750Y-107912378D01*
X80639357Y-108009227D01*
X80459869Y-108188402D01*
X80362611Y-108422625D01*
X80362390Y-108676238D01*
X80459239Y-108910631D01*
X80579197Y-109030799D01*
X80389357Y-109109239D01*
X80209869Y-109288414D01*
X80112611Y-109522637D01*
X80112533Y-109612467D01*
X80023746Y-109612390D01*
X79789353Y-109709239D01*
X79609865Y-109888414D01*
X79543967Y-110047115D01*
X79540761Y-110039357D01*
X79361586Y-109859869D01*
X79127363Y-109762611D01*
X78873750Y-109762390D01*
X78639357Y-109859239D01*
X78459869Y-110038414D01*
X78362611Y-110272637D01*
X78362390Y-110526250D01*
X78459239Y-110760643D01*
X78603088Y-110904744D01*
X78512611Y-111122637D01*
X78512390Y-111376250D01*
X78609239Y-111610643D01*
X78775686Y-111777381D01*
X78590877Y-111853742D01*
X78411389Y-112032917D01*
X78314131Y-112267140D01*
X78313910Y-112520753D01*
X78410759Y-112755146D01*
X78467942Y-112812429D01*
X78423744Y-112812390D01*
X78189351Y-112909239D01*
X78009863Y-113088414D01*
X77912605Y-113322637D01*
X77912384Y-113576250D01*
X77075354Y-113576250D01*
X77140131Y-113511586D01*
X77237389Y-113277363D01*
X77237610Y-113023750D01*
X77140761Y-112789357D01*
X76961586Y-112609869D01*
X76727363Y-112512611D01*
X76473750Y-112512390D01*
X76239357Y-112609239D01*
X76074571Y-112773737D01*
X75927363Y-112712611D01*
X75673750Y-112712390D01*
X75439357Y-112809239D01*
X75275318Y-112972992D01*
X75240761Y-112889357D01*
X75061586Y-112709869D01*
X74827363Y-112612611D01*
X74573750Y-112612390D01*
X74339357Y-112709239D01*
X74159869Y-112888414D01*
X74062611Y-113122637D01*
X74062390Y-113376250D01*
X71137520Y-113376250D01*
X71137610Y-113273750D01*
X71040761Y-113039357D01*
X70861586Y-112859869D01*
X70627363Y-112762611D01*
X70437446Y-112762446D01*
X70437610Y-112573750D01*
X70340761Y-112339357D01*
X70161586Y-112159869D01*
X69927363Y-112062611D01*
X69673750Y-112062390D01*
X69439357Y-112159239D01*
X69400073Y-112198455D01*
X69459561Y-112055191D01*
X69459782Y-111801578D01*
X69362933Y-111567185D01*
X69183758Y-111387697D01*
X68949535Y-111290439D01*
X68695922Y-111290218D01*
X68461529Y-111387067D01*
X68282041Y-111566242D01*
X68184783Y-111800465D01*
X68184562Y-112054078D01*
X52277501Y-112054078D01*
X52277501Y-111937501D01*
X52247814Y-111788254D01*
X52163273Y-111661729D01*
X51627794Y-111126250D01*
X61262390Y-111126250D01*
X61359239Y-111360643D01*
X61538414Y-111540131D01*
X61772637Y-111637389D01*
X62026250Y-111637610D01*
X62260643Y-111540761D01*
X62440131Y-111361586D01*
X62537389Y-111127363D01*
X62537610Y-110873750D01*
X62440761Y-110639357D01*
X62261586Y-110459869D01*
X62027363Y-110362611D01*
X61773750Y-110362390D01*
X61539357Y-110459239D01*
X61359869Y-110638414D01*
X61262611Y-110872637D01*
X61262390Y-111126250D01*
X51627794Y-111126250D01*
X50340000Y-109838456D01*
X50340000Y-108983212D01*
X53669361Y-108983212D01*
X53766210Y-109217605D01*
X53945385Y-109397093D01*
X54179608Y-109494351D01*
X54433221Y-109494572D01*
X54667614Y-109397723D01*
X54847102Y-109218548D01*
X54944360Y-108984325D01*
X54944581Y-108730712D01*
X54920401Y-108672191D01*
X64576603Y-108672191D01*
X64673452Y-108906584D01*
X64852627Y-109086072D01*
X65086850Y-109183330D01*
X65340463Y-109183551D01*
X65366041Y-109172983D01*
X65389192Y-109229013D01*
X65568367Y-109408501D01*
X65802590Y-109505759D01*
X66056203Y-109505980D01*
X66075689Y-109497929D01*
X66064602Y-109524628D01*
X66064381Y-109778241D01*
X66161230Y-110012634D01*
X66340405Y-110192122D01*
X66574628Y-110289380D01*
X66828241Y-110289601D01*
X66860538Y-110276256D01*
X69562390Y-110276256D01*
X69659239Y-110510649D01*
X69838414Y-110690137D01*
X70072637Y-110787395D01*
X70161075Y-110787472D01*
X70009869Y-110938414D01*
X69912611Y-111172637D01*
X69912390Y-111426250D01*
X70009239Y-111660643D01*
X70188414Y-111840131D01*
X70422637Y-111937389D01*
X70676250Y-111937610D01*
X70910643Y-111840761D01*
X70949955Y-111801518D01*
X71038414Y-111890131D01*
X71272637Y-111987389D01*
X71410862Y-111987509D01*
X71359869Y-112038414D01*
X71262611Y-112272637D01*
X71262390Y-112526250D01*
X71359239Y-112760643D01*
X71538414Y-112940131D01*
X71772637Y-113037389D01*
X72026250Y-113037610D01*
X72260643Y-112940761D01*
X72440131Y-112761586D01*
X72537389Y-112527363D01*
X72537610Y-112273750D01*
X72440761Y-112039357D01*
X72261586Y-111859869D01*
X72027363Y-111762611D01*
X71889138Y-111762491D01*
X71940131Y-111711586D01*
X72037389Y-111477363D01*
X72037610Y-111223750D01*
X71940761Y-110989357D01*
X71761586Y-110809869D01*
X71527363Y-110712611D01*
X71273750Y-110712390D01*
X71039357Y-110809239D01*
X71000045Y-110848482D01*
X70911586Y-110759869D01*
X70677363Y-110662611D01*
X70588925Y-110662534D01*
X70740131Y-110511592D01*
X70837389Y-110277369D01*
X70837433Y-110226250D01*
X77062390Y-110226250D01*
X77159239Y-110460643D01*
X77338414Y-110640131D01*
X77572637Y-110737389D01*
X77826250Y-110737610D01*
X78060643Y-110640761D01*
X78240131Y-110461586D01*
X78337389Y-110227363D01*
X78337610Y-109973750D01*
X78240761Y-109739357D01*
X78061586Y-109559869D01*
X77827363Y-109462611D01*
X77573750Y-109462390D01*
X77339357Y-109559239D01*
X77159869Y-109738414D01*
X77062611Y-109972637D01*
X77062390Y-110226250D01*
X70837433Y-110226250D01*
X70837610Y-110023756D01*
X70740761Y-109789363D01*
X70561586Y-109609875D01*
X70327363Y-109512617D01*
X70073750Y-109512396D01*
X69839357Y-109609245D01*
X69659869Y-109788420D01*
X69562611Y-110022643D01*
X69562390Y-110276256D01*
X66860538Y-110276256D01*
X67062634Y-110192752D01*
X67242122Y-110013577D01*
X67339380Y-109779354D01*
X67339601Y-109525741D01*
X67329482Y-109501250D01*
X74987390Y-109501250D01*
X75084239Y-109735643D01*
X75263414Y-109915131D01*
X75497637Y-110012389D01*
X75751250Y-110012610D01*
X75985643Y-109915761D01*
X76165131Y-109736586D01*
X76262389Y-109502363D01*
X76262610Y-109248750D01*
X76165761Y-109014357D01*
X75986586Y-108834869D01*
X75752363Y-108737611D01*
X75498750Y-108737390D01*
X75264357Y-108834239D01*
X75084869Y-109013414D01*
X74987611Y-109247637D01*
X74987390Y-109501250D01*
X67329482Y-109501250D01*
X67242752Y-109291348D01*
X67063577Y-109111860D01*
X66829354Y-109014602D01*
X66575741Y-109014381D01*
X66556255Y-109022432D01*
X66567342Y-108995733D01*
X66567421Y-108905202D01*
X66685093Y-108954064D01*
X66938706Y-108954285D01*
X67173099Y-108857436D01*
X67204339Y-108826250D01*
X68212390Y-108826250D01*
X68309239Y-109060643D01*
X68488414Y-109240131D01*
X68722637Y-109337389D01*
X68976250Y-109337610D01*
X69210643Y-109240761D01*
X69390131Y-109061586D01*
X69425565Y-108976250D01*
X71462390Y-108976250D01*
X71559239Y-109210643D01*
X71738414Y-109390131D01*
X71972637Y-109487389D01*
X72226250Y-109487610D01*
X72460643Y-109390761D01*
X72640131Y-109211586D01*
X72737389Y-108977363D01*
X72737610Y-108723750D01*
X72640761Y-108489357D01*
X72461586Y-108309869D01*
X72227363Y-108212611D01*
X71973750Y-108212390D01*
X71739357Y-108309239D01*
X71559869Y-108488414D01*
X71462611Y-108722637D01*
X71462390Y-108976250D01*
X69425565Y-108976250D01*
X69487389Y-108827363D01*
X69487610Y-108573750D01*
X69390761Y-108339357D01*
X69211586Y-108159869D01*
X68977363Y-108062611D01*
X68723750Y-108062390D01*
X68489357Y-108159239D01*
X68309869Y-108338414D01*
X68212611Y-108572637D01*
X68212390Y-108826250D01*
X67204339Y-108826250D01*
X67352587Y-108678261D01*
X67449845Y-108444038D01*
X67450066Y-108190425D01*
X67353217Y-107956032D01*
X67174042Y-107776544D01*
X66939819Y-107679286D01*
X66686206Y-107679065D01*
X66451813Y-107775914D01*
X66272325Y-107955089D01*
X66175067Y-108189312D01*
X66174988Y-108279843D01*
X66057316Y-108230981D01*
X65803703Y-108230760D01*
X65778125Y-108241328D01*
X65754974Y-108185298D01*
X65575799Y-108005810D01*
X65341576Y-107908552D01*
X65087963Y-107908331D01*
X64853570Y-108005180D01*
X64674082Y-108184355D01*
X64576824Y-108418578D01*
X64576603Y-108672191D01*
X54920401Y-108672191D01*
X54847732Y-108496319D01*
X54810983Y-108459505D01*
X55052593Y-108459716D01*
X55286986Y-108362867D01*
X55358234Y-108291744D01*
X55583169Y-108385145D01*
X55836782Y-108385366D01*
X56071175Y-108288517D01*
X56250663Y-108109342D01*
X56291957Y-108009895D01*
X58412390Y-108009895D01*
X58509239Y-108244288D01*
X58688414Y-108423776D01*
X58922637Y-108521034D01*
X59176250Y-108521255D01*
X59410643Y-108424406D01*
X59590131Y-108245231D01*
X59687389Y-108011008D01*
X59687610Y-107757395D01*
X59590761Y-107523002D01*
X59411586Y-107343514D01*
X59177363Y-107246256D01*
X58923750Y-107246035D01*
X58689357Y-107342884D01*
X58509869Y-107522059D01*
X58412611Y-107756282D01*
X58412390Y-108009895D01*
X56291957Y-108009895D01*
X56347921Y-107875119D01*
X56348142Y-107621506D01*
X56251293Y-107387113D01*
X56072118Y-107207625D01*
X55837895Y-107110367D01*
X55584282Y-107110146D01*
X55349889Y-107206995D01*
X55278641Y-107278118D01*
X55085056Y-107197735D01*
X55085164Y-107073759D01*
X54988315Y-106839366D01*
X54861330Y-106712159D01*
X55094604Y-106615772D01*
X55212940Y-106497642D01*
X55338414Y-106623335D01*
X55572637Y-106720593D01*
X55826250Y-106720814D01*
X56060643Y-106623965D01*
X56240131Y-106444790D01*
X56270054Y-106372726D01*
X58525957Y-106372726D01*
X58622806Y-106607119D01*
X58801981Y-106786607D01*
X59036204Y-106883865D01*
X59289817Y-106884086D01*
X59524210Y-106787237D01*
X59703698Y-106608062D01*
X59796457Y-106384672D01*
X62298222Y-106384672D01*
X62395071Y-106619065D01*
X62574246Y-106798553D01*
X62808469Y-106895811D01*
X63062082Y-106896032D01*
X63296475Y-106799183D01*
X63433528Y-106662369D01*
X63573665Y-106720559D01*
X63827278Y-106720780D01*
X64061671Y-106623931D01*
X64241159Y-106444756D01*
X64338417Y-106210533D01*
X64338638Y-105956920D01*
X64241789Y-105722527D01*
X64062614Y-105543039D01*
X63828391Y-105445781D01*
X63574778Y-105445560D01*
X63340385Y-105542409D01*
X63203332Y-105679223D01*
X63063195Y-105621033D01*
X62809582Y-105620812D01*
X62575189Y-105717661D01*
X62395701Y-105896836D01*
X62298443Y-106131059D01*
X62298222Y-106384672D01*
X59796457Y-106384672D01*
X59800956Y-106373839D01*
X59801177Y-106120226D01*
X59704328Y-105885833D01*
X59525153Y-105706345D01*
X59290930Y-105609087D01*
X59037317Y-105608866D01*
X58802924Y-105705715D01*
X58623436Y-105884890D01*
X58526178Y-106119113D01*
X58525957Y-106372726D01*
X56270054Y-106372726D01*
X56337389Y-106210567D01*
X56337610Y-105956954D01*
X56240761Y-105722561D01*
X56061586Y-105543073D01*
X55827363Y-105445815D01*
X55573750Y-105445594D01*
X55339357Y-105542443D01*
X55221021Y-105660573D01*
X55098179Y-105537517D01*
X55205028Y-105537610D01*
X55439421Y-105440761D01*
X55618909Y-105261586D01*
X55716167Y-105027363D01*
X55716388Y-104773750D01*
X55619539Y-104539357D01*
X55456717Y-104376250D01*
X64062362Y-104376250D01*
X64159211Y-104610643D01*
X64338386Y-104790131D01*
X64572609Y-104887389D01*
X64826222Y-104887610D01*
X65030700Y-104803122D01*
X65171560Y-104944228D01*
X65321276Y-105006396D01*
X65317931Y-105014452D01*
X65317772Y-105196879D01*
X65166850Y-105259239D01*
X64987362Y-105438414D01*
X64890104Y-105672637D01*
X64889883Y-105926250D01*
X64986732Y-106160643D01*
X65165907Y-106340131D01*
X65400130Y-106437389D01*
X65653743Y-106437610D01*
X65708691Y-106414906D01*
X65534880Y-106588414D01*
X65437622Y-106822637D01*
X65437401Y-107076250D01*
X65534250Y-107310643D01*
X65713425Y-107490131D01*
X65947648Y-107587389D01*
X66201261Y-107587610D01*
X66435654Y-107490761D01*
X66615142Y-107311586D01*
X66712400Y-107077363D01*
X66712621Y-106823750D01*
X66639923Y-106647807D01*
X69122448Y-106647807D01*
X69219297Y-106882200D01*
X69398472Y-107061688D01*
X69632695Y-107158946D01*
X69886308Y-107159167D01*
X70120701Y-107062318D01*
X70300189Y-106883143D01*
X70397447Y-106648920D01*
X70397668Y-106395307D01*
X70348475Y-106276250D01*
X71262390Y-106276250D01*
X71359239Y-106510643D01*
X71538414Y-106690131D01*
X71772637Y-106787389D01*
X72026250Y-106787610D01*
X72260643Y-106690761D01*
X72266129Y-106685285D01*
X72359245Y-106910643D01*
X72538420Y-107090131D01*
X72563335Y-107100476D01*
X72512609Y-107222637D01*
X72512388Y-107476250D01*
X72609237Y-107710643D01*
X72788412Y-107890131D01*
X73022635Y-107987389D01*
X73276248Y-107987610D01*
X73510641Y-107890761D01*
X73524954Y-107876473D01*
X73638414Y-107990131D01*
X73872637Y-108087389D01*
X74126250Y-108087610D01*
X74360643Y-107990761D01*
X74400223Y-107951250D01*
X77037390Y-107951250D01*
X77134239Y-108185643D01*
X77313414Y-108365131D01*
X77547637Y-108462389D01*
X77801250Y-108462610D01*
X78001056Y-108380052D01*
X77962611Y-108472637D01*
X77962390Y-108726250D01*
X78059239Y-108960643D01*
X78238414Y-109140131D01*
X78472637Y-109237389D01*
X78726250Y-109237610D01*
X78960643Y-109140761D01*
X79140131Y-108961586D01*
X79237389Y-108727363D01*
X79237610Y-108473750D01*
X79140761Y-108239357D01*
X78961586Y-108059869D01*
X78727363Y-107962611D01*
X78473750Y-107962390D01*
X78273944Y-108044948D01*
X78312389Y-107952363D01*
X78312610Y-107698750D01*
X78215761Y-107464357D01*
X78036586Y-107284869D01*
X77824062Y-107196621D01*
X79499890Y-107196621D01*
X79596739Y-107431014D01*
X79775914Y-107610502D01*
X80010137Y-107707760D01*
X80263750Y-107707981D01*
X80498143Y-107611132D01*
X80677631Y-107431957D01*
X80774889Y-107197734D01*
X80775110Y-106944121D01*
X80678261Y-106709728D01*
X80499086Y-106530240D01*
X80264863Y-106432982D01*
X80011250Y-106432761D01*
X79776857Y-106529610D01*
X79597369Y-106708785D01*
X79500111Y-106943008D01*
X79499890Y-107196621D01*
X77824062Y-107196621D01*
X77802363Y-107187611D01*
X77548750Y-107187390D01*
X77314357Y-107284239D01*
X77134869Y-107463414D01*
X77037611Y-107697637D01*
X77037390Y-107951250D01*
X74400223Y-107951250D01*
X74540131Y-107811586D01*
X74637389Y-107577363D01*
X74637610Y-107323750D01*
X74540761Y-107089357D01*
X74361586Y-106909869D01*
X74127363Y-106812611D01*
X73873750Y-106812390D01*
X73639357Y-106909239D01*
X73625044Y-106923527D01*
X73511584Y-106809869D01*
X73486669Y-106799524D01*
X73537395Y-106677363D01*
X73537616Y-106423750D01*
X73440767Y-106189357D01*
X73261592Y-106009869D01*
X73060216Y-105926250D01*
X77562390Y-105926250D01*
X77659239Y-106160643D01*
X77838414Y-106340131D01*
X78072637Y-106437389D01*
X78326250Y-106437610D01*
X78560643Y-106340761D01*
X78647951Y-106253605D01*
X80712390Y-106253605D01*
X80809239Y-106487998D01*
X80988414Y-106667486D01*
X81053392Y-106694467D01*
X80906822Y-106840781D01*
X80809564Y-107075004D01*
X80809343Y-107328617D01*
X80906192Y-107563010D01*
X81085367Y-107742498D01*
X81319590Y-107839756D01*
X81573203Y-107839977D01*
X81807596Y-107743128D01*
X81824503Y-107726250D01*
X83812390Y-107726250D01*
X83909239Y-107960643D01*
X84088414Y-108140131D01*
X84322637Y-108237389D01*
X84576250Y-108237610D01*
X84810643Y-108140761D01*
X84990131Y-107961586D01*
X85087389Y-107727363D01*
X85087610Y-107473750D01*
X84990761Y-107239357D01*
X84811586Y-107059869D01*
X84577363Y-106962611D01*
X84323750Y-106962390D01*
X84089357Y-107059239D01*
X83909869Y-107238414D01*
X83812611Y-107472637D01*
X83812390Y-107726250D01*
X81824503Y-107726250D01*
X81987084Y-107563953D01*
X81989361Y-107558469D01*
X82072635Y-107593047D01*
X82326248Y-107593268D01*
X82560641Y-107496419D01*
X82740129Y-107317244D01*
X82837387Y-107083021D01*
X82837608Y-106829408D01*
X82740759Y-106595015D01*
X82561584Y-106415527D01*
X82327361Y-106318269D01*
X82073748Y-106318048D01*
X81937760Y-106374237D01*
X81980556Y-106271173D01*
X86157313Y-106271173D01*
X86254162Y-106505566D01*
X86433337Y-106685054D01*
X86667560Y-106782312D01*
X86921173Y-106782533D01*
X87155566Y-106685684D01*
X87335054Y-106506509D01*
X87432312Y-106272286D01*
X87432533Y-106018673D01*
X87335684Y-105784280D01*
X87156509Y-105604792D01*
X86922286Y-105507534D01*
X86668673Y-105507313D01*
X86434280Y-105604162D01*
X86254792Y-105783337D01*
X86157534Y-106017560D01*
X86157313Y-106271173D01*
X81980556Y-106271173D01*
X81987389Y-106254718D01*
X81987610Y-106001105D01*
X81890761Y-105766712D01*
X81711586Y-105587224D01*
X81477363Y-105489966D01*
X81223750Y-105489745D01*
X80989357Y-105586594D01*
X80809869Y-105765769D01*
X80712611Y-105999992D01*
X80712390Y-106253605D01*
X78647951Y-106253605D01*
X78740131Y-106161586D01*
X78837389Y-105927363D01*
X78837610Y-105673750D01*
X78740761Y-105439357D01*
X78591607Y-105289942D01*
X78710635Y-105240761D01*
X78825346Y-105126250D01*
X79662390Y-105126250D01*
X79759239Y-105360643D01*
X79938414Y-105540131D01*
X80172637Y-105637389D01*
X80426250Y-105637610D01*
X80660643Y-105540761D01*
X80840131Y-105361586D01*
X80937389Y-105127363D01*
X80937610Y-104873750D01*
X80840761Y-104639357D01*
X80661586Y-104459869D01*
X80427363Y-104362611D01*
X80173750Y-104362390D01*
X79939357Y-104459239D01*
X79759869Y-104638414D01*
X79662611Y-104872637D01*
X79662390Y-105126250D01*
X78825346Y-105126250D01*
X78890123Y-105061586D01*
X78987381Y-104827363D01*
X78987602Y-104573750D01*
X78890753Y-104339357D01*
X78711578Y-104159869D01*
X78477355Y-104062611D01*
X78223742Y-104062390D01*
X77989349Y-104159239D01*
X77809861Y-104338414D01*
X77712603Y-104572637D01*
X77712382Y-104826250D01*
X77809231Y-105060643D01*
X77958385Y-105210058D01*
X77839357Y-105259239D01*
X77659869Y-105438414D01*
X77562611Y-105672637D01*
X77562390Y-105926250D01*
X73060216Y-105926250D01*
X73027369Y-105912611D01*
X72773756Y-105912390D01*
X72539363Y-106009239D01*
X72533877Y-106014715D01*
X72504388Y-105943346D01*
X72510643Y-105940761D01*
X72690131Y-105761586D01*
X72787389Y-105527363D01*
X72787610Y-105273750D01*
X72690761Y-105039357D01*
X72511586Y-104859869D01*
X72277363Y-104762611D01*
X72023750Y-104762390D01*
X71789357Y-104859239D01*
X71609869Y-105038414D01*
X71512611Y-105272637D01*
X71512390Y-105526250D01*
X71545612Y-105606654D01*
X71539357Y-105609239D01*
X71359869Y-105788414D01*
X71262611Y-106022637D01*
X71262390Y-106276250D01*
X70348475Y-106276250D01*
X70300819Y-106160914D01*
X70121644Y-105981426D01*
X69887421Y-105884168D01*
X69633808Y-105883947D01*
X69399415Y-105980796D01*
X69219927Y-106159971D01*
X69122669Y-106394194D01*
X69122448Y-106647807D01*
X66639923Y-106647807D01*
X66615772Y-106589357D01*
X66550267Y-106523738D01*
X66683448Y-106523854D01*
X66917841Y-106427005D01*
X67097329Y-106247830D01*
X67194587Y-106013607D01*
X67194808Y-105759994D01*
X67123508Y-105587433D01*
X67326241Y-105587610D01*
X67560634Y-105490761D01*
X67740122Y-105311586D01*
X67837380Y-105077363D01*
X67837601Y-104823750D01*
X67740752Y-104589357D01*
X67577930Y-104426250D01*
X68710833Y-104426250D01*
X68807682Y-104660643D01*
X68986857Y-104840131D01*
X69221080Y-104937389D01*
X69474693Y-104937610D01*
X69709086Y-104840761D01*
X69740848Y-104809055D01*
X69771870Y-104840131D01*
X70006093Y-104937389D01*
X70259706Y-104937610D01*
X70336595Y-104905840D01*
X70359239Y-104960643D01*
X70538414Y-105140131D01*
X70772637Y-105237389D01*
X71026250Y-105237610D01*
X71260643Y-105140761D01*
X71440131Y-104961586D01*
X71537389Y-104727363D01*
X71537610Y-104473750D01*
X71440761Y-104239357D01*
X71261586Y-104059869D01*
X71027363Y-103962611D01*
X70773750Y-103962390D01*
X70696861Y-103994160D01*
X70674217Y-103939357D01*
X70495042Y-103759869D01*
X70260819Y-103662611D01*
X70007206Y-103662390D01*
X69772813Y-103759239D01*
X69741051Y-103790945D01*
X69710029Y-103759869D01*
X69475806Y-103662611D01*
X69222193Y-103662390D01*
X68987800Y-103759239D01*
X68808312Y-103938414D01*
X68711054Y-104172637D01*
X68710833Y-104426250D01*
X67577930Y-104426250D01*
X67561577Y-104409869D01*
X67327354Y-104312611D01*
X67073741Y-104312390D01*
X66839348Y-104409239D01*
X66659860Y-104588414D01*
X66562602Y-104822637D01*
X66562498Y-104941914D01*
X66496081Y-104781172D01*
X66316906Y-104601684D01*
X66167190Y-104539516D01*
X66170535Y-104531460D01*
X66170756Y-104277847D01*
X66073907Y-104043454D01*
X65894732Y-103863966D01*
X65660509Y-103766708D01*
X65406896Y-103766487D01*
X65202418Y-103850975D01*
X65061558Y-103709869D01*
X64980595Y-103676250D01*
X66562390Y-103676250D01*
X66659239Y-103910643D01*
X66838414Y-104090131D01*
X67072637Y-104187389D01*
X67326250Y-104187610D01*
X67560643Y-104090761D01*
X67740131Y-103911586D01*
X67837389Y-103677363D01*
X67837610Y-103423750D01*
X67740761Y-103189357D01*
X67627852Y-103076250D01*
X67712390Y-103076250D01*
X67809239Y-103310643D01*
X67988414Y-103490131D01*
X68222637Y-103587389D01*
X68476250Y-103587610D01*
X68710643Y-103490761D01*
X68890131Y-103311586D01*
X68967089Y-103126250D01*
X71562390Y-103126250D01*
X71659239Y-103360643D01*
X71698439Y-103399911D01*
X71659869Y-103438414D01*
X71562611Y-103672637D01*
X71562390Y-103926250D01*
X71659239Y-104160643D01*
X71838414Y-104340131D01*
X72072637Y-104437389D01*
X72326250Y-104437610D01*
X72560643Y-104340761D01*
X72740131Y-104161586D01*
X72837389Y-103927363D01*
X72837610Y-103673750D01*
X72740761Y-103439357D01*
X72727677Y-103426250D01*
X76162390Y-103426250D01*
X76259239Y-103660643D01*
X76438414Y-103840131D01*
X76672637Y-103937389D01*
X76926250Y-103937610D01*
X77160643Y-103840761D01*
X77340131Y-103661586D01*
X77437389Y-103427363D01*
X77437610Y-103173750D01*
X77340761Y-102939357D01*
X77161586Y-102759869D01*
X76927363Y-102662611D01*
X76673750Y-102662390D01*
X76439357Y-102759239D01*
X76259869Y-102938414D01*
X76162611Y-103172637D01*
X76162390Y-103426250D01*
X72727677Y-103426250D01*
X72701561Y-103400089D01*
X72740131Y-103361586D01*
X72837389Y-103127363D01*
X72837610Y-102873750D01*
X72740761Y-102639357D01*
X72561586Y-102459869D01*
X72327363Y-102362611D01*
X72073750Y-102362390D01*
X71839357Y-102459239D01*
X71659869Y-102638414D01*
X71562611Y-102872637D01*
X71562390Y-103126250D01*
X68967089Y-103126250D01*
X68987389Y-103077363D01*
X68987610Y-102823750D01*
X68890761Y-102589357D01*
X68711586Y-102409869D01*
X68477363Y-102312611D01*
X68223750Y-102312390D01*
X67989357Y-102409239D01*
X67809869Y-102588414D01*
X67712611Y-102822637D01*
X67712390Y-103076250D01*
X67627852Y-103076250D01*
X67561586Y-103009869D01*
X67327363Y-102912611D01*
X67073750Y-102912390D01*
X66839357Y-103009239D01*
X66659869Y-103188414D01*
X66562611Y-103422637D01*
X66562390Y-103676250D01*
X64980595Y-103676250D01*
X64827335Y-103612611D01*
X64573722Y-103612390D01*
X64339329Y-103709239D01*
X64159841Y-103888414D01*
X64062583Y-104122637D01*
X64062362Y-104376250D01*
X55456717Y-104376250D01*
X55440364Y-104359869D01*
X55280666Y-104293556D01*
X55287389Y-104277365D01*
X55287610Y-104023752D01*
X55190761Y-103789359D01*
X55011586Y-103609871D01*
X54859360Y-103546661D01*
X54981034Y-103546767D01*
X55215427Y-103449918D01*
X55394915Y-103270743D01*
X55492173Y-103036520D01*
X55492394Y-102782907D01*
X55406998Y-102576232D01*
X65212390Y-102576232D01*
X65309239Y-102810625D01*
X65488414Y-102990113D01*
X65722637Y-103087371D01*
X65976250Y-103087592D01*
X66210643Y-102990743D01*
X66390131Y-102811568D01*
X66487389Y-102577345D01*
X66487610Y-102323732D01*
X66467991Y-102276250D01*
X79162390Y-102276250D01*
X79259239Y-102510643D01*
X79438414Y-102690131D01*
X79672637Y-102787389D01*
X79926250Y-102787610D01*
X80074752Y-102726250D01*
X80462390Y-102726250D01*
X80559239Y-102960643D01*
X80590940Y-102992400D01*
X80559869Y-103023417D01*
X80462611Y-103257640D01*
X80462390Y-103511253D01*
X80559239Y-103745646D01*
X80738414Y-103925134D01*
X80972637Y-104022392D01*
X81226250Y-104022613D01*
X81460643Y-103925764D01*
X81484475Y-103901974D01*
X81523260Y-103940827D01*
X81757483Y-104038085D01*
X82011096Y-104038306D01*
X82245489Y-103941457D01*
X82424977Y-103762282D01*
X82451569Y-103698241D01*
X82530246Y-103888653D01*
X82709421Y-104068141D01*
X82943644Y-104165399D01*
X83197257Y-104165620D01*
X83431650Y-104068771D01*
X83611138Y-103889596D01*
X83708396Y-103655373D01*
X83708617Y-103401760D01*
X83611768Y-103167367D01*
X83432593Y-102987879D01*
X83237450Y-102906849D01*
X83237607Y-102726250D01*
X83712390Y-102726250D01*
X83809239Y-102960643D01*
X83849542Y-103001017D01*
X83827288Y-103023232D01*
X83730030Y-103257455D01*
X83729809Y-103511068D01*
X83826658Y-103745461D01*
X84005833Y-103924949D01*
X84240056Y-104022207D01*
X84493669Y-104022428D01*
X84728062Y-103925579D01*
X84777477Y-103876250D01*
X86635327Y-103876250D01*
X86732176Y-104110643D01*
X86911351Y-104290131D01*
X87145574Y-104387389D01*
X87399187Y-104387610D01*
X87633580Y-104290761D01*
X87813068Y-104111586D01*
X87910326Y-103877363D01*
X87910547Y-103623750D01*
X87901390Y-103601586D01*
X93624129Y-103601586D01*
X93720978Y-103835979D01*
X93900153Y-104015467D01*
X94042962Y-104074767D01*
X94042795Y-104266440D01*
X94139644Y-104500833D01*
X94318819Y-104680321D01*
X94346220Y-104691699D01*
X94312611Y-104772637D01*
X94312390Y-105026250D01*
X94409239Y-105260643D01*
X94470590Y-105322102D01*
X94456807Y-105335861D01*
X94415558Y-105435199D01*
X94173750Y-105434988D01*
X93939357Y-105531837D01*
X93759869Y-105711012D01*
X93662611Y-105945235D01*
X93662390Y-106198848D01*
X93759239Y-106433241D01*
X93938414Y-106612729D01*
X94172637Y-106709987D01*
X94426250Y-106710208D01*
X94660643Y-106613359D01*
X94840131Y-106434184D01*
X94881380Y-106334846D01*
X94962426Y-106334917D01*
X94962390Y-106376250D01*
X94973738Y-106403714D01*
X94839357Y-106459239D01*
X94659869Y-106638414D01*
X94562611Y-106872637D01*
X94562390Y-107126250D01*
X94659239Y-107360643D01*
X94745035Y-107446588D01*
X94687622Y-107503901D01*
X94590364Y-107738124D01*
X94590143Y-107991737D01*
X94686992Y-108226130D01*
X94704596Y-108243765D01*
X94659871Y-108288412D01*
X94562613Y-108522635D01*
X94562392Y-108776248D01*
X94659241Y-109010641D01*
X94837605Y-109189316D01*
X94799358Y-109281425D01*
X94799137Y-109535038D01*
X94895986Y-109769431D01*
X95075161Y-109948919D01*
X95309384Y-110046177D01*
X95562997Y-110046398D01*
X95797390Y-109949549D01*
X95976878Y-109770374D01*
X96074136Y-109536151D01*
X96074357Y-109282538D01*
X95977508Y-109048145D01*
X95799144Y-108869470D01*
X95837391Y-108777361D01*
X95837612Y-108523748D01*
X95740763Y-108289355D01*
X95723159Y-108271720D01*
X95767884Y-108227073D01*
X95865142Y-107992850D01*
X95865363Y-107739237D01*
X95768514Y-107504844D01*
X95682718Y-107418899D01*
X95740131Y-107361586D01*
X95837389Y-107127363D01*
X95837610Y-106873750D01*
X95826262Y-106846286D01*
X95960643Y-106790761D01*
X96140131Y-106611586D01*
X96237389Y-106377363D01*
X96237610Y-106123750D01*
X96140761Y-105889357D01*
X95961586Y-105709869D01*
X95727363Y-105612611D01*
X95634512Y-105612530D01*
X95634548Y-105571197D01*
X95537699Y-105336804D01*
X95476348Y-105275345D01*
X95490131Y-105261586D01*
X95493125Y-105254375D01*
X95572633Y-105287389D01*
X95826246Y-105287610D01*
X96060639Y-105190761D01*
X96240127Y-105011586D01*
X96337385Y-104777363D01*
X96337606Y-104523750D01*
X96240757Y-104289357D01*
X96061582Y-104109869D01*
X95827359Y-104012611D01*
X95696220Y-104012497D01*
X95774680Y-103934174D01*
X95871938Y-103699951D01*
X95872159Y-103446338D01*
X95775310Y-103211945D01*
X95596135Y-103032457D01*
X95361912Y-102935199D01*
X95108299Y-102934978D01*
X94873906Y-103031827D01*
X94796708Y-103108891D01*
X94623325Y-102935205D01*
X94389102Y-102837947D01*
X94135489Y-102837726D01*
X93901096Y-102934575D01*
X93721608Y-103113750D01*
X93624350Y-103347973D01*
X93624129Y-103601586D01*
X87901390Y-103601586D01*
X87813698Y-103389357D01*
X87634523Y-103209869D01*
X87400300Y-103112611D01*
X87146687Y-103112390D01*
X86912294Y-103209239D01*
X86732806Y-103388414D01*
X86635548Y-103622637D01*
X86635327Y-103876250D01*
X84777477Y-103876250D01*
X84907550Y-103746404D01*
X85004808Y-103512181D01*
X85005029Y-103258568D01*
X84908180Y-103024175D01*
X84867877Y-102983801D01*
X84890131Y-102961586D01*
X84987389Y-102727363D01*
X84987610Y-102473750D01*
X84890761Y-102239357D01*
X84711586Y-102059869D01*
X84477363Y-101962611D01*
X84223750Y-101962390D01*
X83989357Y-102059239D01*
X83809869Y-102238414D01*
X83712611Y-102472637D01*
X83712390Y-102726250D01*
X83237607Y-102726250D01*
X83237610Y-102723750D01*
X83140761Y-102489357D01*
X82961586Y-102309869D01*
X82727363Y-102212611D01*
X82473750Y-102212390D01*
X82239357Y-102309239D01*
X82059869Y-102488414D01*
X81962611Y-102722637D01*
X81962576Y-102763264D01*
X81758596Y-102763086D01*
X81715091Y-102781062D01*
X81737389Y-102727363D01*
X81737610Y-102473750D01*
X81640761Y-102239357D01*
X81461586Y-102059869D01*
X81227363Y-101962611D01*
X80973750Y-101962390D01*
X80739357Y-102059239D01*
X80559869Y-102238414D01*
X80462611Y-102472637D01*
X80462390Y-102726250D01*
X80074752Y-102726250D01*
X80160643Y-102690761D01*
X80340131Y-102511586D01*
X80437389Y-102277363D01*
X80437610Y-102023750D01*
X80340761Y-101789357D01*
X80161586Y-101609869D01*
X79927363Y-101512611D01*
X79673750Y-101512390D01*
X79439357Y-101609239D01*
X79259869Y-101788414D01*
X79162611Y-102022637D01*
X79162390Y-102276250D01*
X66467991Y-102276250D01*
X66390761Y-102089339D01*
X66211586Y-101909851D01*
X65977363Y-101812593D01*
X65723750Y-101812372D01*
X65489357Y-101909221D01*
X65309869Y-102088396D01*
X65212611Y-102322619D01*
X65212390Y-102576232D01*
X55406998Y-102576232D01*
X55395545Y-102548514D01*
X55216370Y-102369026D01*
X54982147Y-102271768D01*
X54728534Y-102271547D01*
X54494141Y-102368396D01*
X54314653Y-102547571D01*
X54217395Y-102781794D01*
X54217174Y-103035407D01*
X54314023Y-103269800D01*
X54493198Y-103449288D01*
X54645424Y-103512498D01*
X54523750Y-103512392D01*
X54289357Y-103609241D01*
X54109869Y-103788416D01*
X54012611Y-104022639D01*
X54012390Y-104276252D01*
X54109239Y-104510645D01*
X54288414Y-104690133D01*
X54448112Y-104756446D01*
X54441389Y-104772637D01*
X54441168Y-105026250D01*
X54538017Y-105260643D01*
X54714560Y-105437494D01*
X54607711Y-105437401D01*
X54373318Y-105534250D01*
X54193830Y-105713425D01*
X54096572Y-105947648D01*
X54096351Y-106201261D01*
X54193200Y-106435654D01*
X54320185Y-106562861D01*
X54086911Y-106659248D01*
X53907423Y-106838423D01*
X53810165Y-107072646D01*
X53809944Y-107326259D01*
X53906793Y-107560652D01*
X54085968Y-107740140D01*
X54288841Y-107824380D01*
X54288733Y-107948356D01*
X54385582Y-108182749D01*
X54422331Y-108219563D01*
X54180721Y-108219352D01*
X53946328Y-108316201D01*
X53766840Y-108495376D01*
X53669582Y-108729599D01*
X53669361Y-108983212D01*
X50340000Y-108983212D01*
X50340000Y-108789007D01*
X50420411Y-108822397D01*
X50674024Y-108822618D01*
X50908417Y-108725769D01*
X50918359Y-108715844D01*
X50970049Y-108767624D01*
X51204272Y-108864882D01*
X51457885Y-108865103D01*
X51692278Y-108768254D01*
X51871766Y-108589079D01*
X51969024Y-108354856D01*
X51969245Y-108101243D01*
X51872396Y-107866850D01*
X51693221Y-107687362D01*
X51458998Y-107590104D01*
X51205385Y-107589883D01*
X51152325Y-107611807D01*
X51187389Y-107527363D01*
X51187610Y-107273750D01*
X51090761Y-107039357D01*
X50911586Y-106859869D01*
X50788349Y-106808697D01*
X50975772Y-106621274D01*
X50997728Y-106588414D01*
X51060313Y-106494749D01*
X51090000Y-106345502D01*
X51090000Y-105770702D01*
X51126622Y-105715893D01*
X51156309Y-105566646D01*
X51156309Y-102016309D01*
X51126622Y-101867062D01*
X51125616Y-101865556D01*
X51125616Y-101722078D01*
X51560748Y-101286945D01*
X51560751Y-101286943D01*
X51601304Y-101226250D01*
X53662390Y-101226250D01*
X53759239Y-101460643D01*
X53938414Y-101640131D01*
X54172637Y-101737389D01*
X54426250Y-101737610D01*
X54660643Y-101640761D01*
X54840131Y-101461586D01*
X54937389Y-101227363D01*
X54937593Y-100992173D01*
X65204812Y-100992173D01*
X65301661Y-101226566D01*
X65480836Y-101406054D01*
X65715059Y-101503312D01*
X65968672Y-101503533D01*
X66203065Y-101406684D01*
X66378500Y-101231554D01*
X94058666Y-101231554D01*
X94155515Y-101465947D01*
X94334690Y-101645435D01*
X94568913Y-101742693D01*
X94822526Y-101742914D01*
X95056919Y-101646065D01*
X95236407Y-101466890D01*
X95333665Y-101232667D01*
X95333886Y-100979054D01*
X95237037Y-100744661D01*
X95057862Y-100565173D01*
X94823639Y-100467915D01*
X94570026Y-100467694D01*
X94335633Y-100564543D01*
X94156145Y-100743718D01*
X94058887Y-100977941D01*
X94058666Y-101231554D01*
X66378500Y-101231554D01*
X66382553Y-101227509D01*
X66479811Y-100993286D01*
X66479858Y-100939043D01*
X66523619Y-100939081D01*
X66758012Y-100842232D01*
X66937500Y-100663057D01*
X66982084Y-100555686D01*
X67208738Y-100555884D01*
X67443131Y-100459035D01*
X67622619Y-100279860D01*
X67719877Y-100045637D01*
X67720098Y-99792024D01*
X67623249Y-99557631D01*
X67444074Y-99378143D01*
X67209851Y-99280885D01*
X66956238Y-99280664D01*
X66721845Y-99377513D01*
X66542357Y-99556688D01*
X66497773Y-99664059D01*
X66271119Y-99663861D01*
X66036726Y-99760710D01*
X65857238Y-99939885D01*
X65759980Y-100174108D01*
X65759933Y-100228351D01*
X65716172Y-100228313D01*
X65481779Y-100325162D01*
X65302291Y-100504337D01*
X65205033Y-100738560D01*
X65204812Y-100992173D01*
X54937593Y-100992173D01*
X54937610Y-100973750D01*
X54840761Y-100739357D01*
X54661586Y-100559869D01*
X54427363Y-100462611D01*
X54173750Y-100462390D01*
X53939357Y-100559239D01*
X53759869Y-100738414D01*
X53662611Y-100972637D01*
X53662390Y-101226250D01*
X51601304Y-101226250D01*
X51645292Y-101160418D01*
X51645293Y-101160417D01*
X51674980Y-101011171D01*
X51674979Y-101011166D01*
X51674979Y-100495174D01*
X51674980Y-100495169D01*
X51645293Y-100345923D01*
X51566708Y-100228313D01*
X51560751Y-100219397D01*
X51560748Y-100219395D01*
X51065582Y-99724228D01*
X50939057Y-99639687D01*
X50914295Y-99634761D01*
X50789810Y-99609999D01*
X50789805Y-99610000D01*
X50740263Y-99610000D01*
X50590394Y-99459869D01*
X50356171Y-99362611D01*
X50102558Y-99362390D01*
X50025000Y-99394436D01*
X50025000Y-98676250D01*
X71112390Y-98676250D01*
X71209239Y-98910643D01*
X71388414Y-99090131D01*
X71566214Y-99163960D01*
X71562611Y-99172637D01*
X71562390Y-99426250D01*
X71659239Y-99660643D01*
X71838414Y-99840131D01*
X72072637Y-99937389D01*
X72326250Y-99937610D01*
X72560643Y-99840761D01*
X72740131Y-99661586D01*
X72766217Y-99598764D01*
X74362390Y-99598764D01*
X74459239Y-99833157D01*
X74638414Y-100012645D01*
X74872637Y-100109903D01*
X75001322Y-100110015D01*
X75083558Y-100309043D01*
X75262733Y-100488531D01*
X75496956Y-100585789D01*
X75750569Y-100586010D01*
X75984962Y-100489161D01*
X76164450Y-100309986D01*
X76247505Y-100109968D01*
X76414539Y-100110114D01*
X76623929Y-100023596D01*
X79964756Y-100023596D01*
X80061605Y-100257989D01*
X80240780Y-100437477D01*
X80475003Y-100534735D01*
X80728616Y-100534956D01*
X80963009Y-100438107D01*
X81142497Y-100258932D01*
X81239755Y-100024709D01*
X81239976Y-99771096D01*
X81143127Y-99536703D01*
X80963952Y-99357215D01*
X80729729Y-99259957D01*
X80476116Y-99259736D01*
X80241723Y-99356585D01*
X80062235Y-99535760D01*
X79964977Y-99769983D01*
X79964756Y-100023596D01*
X76623929Y-100023596D01*
X76648932Y-100013265D01*
X76828420Y-99834090D01*
X76925678Y-99599867D01*
X76925899Y-99346254D01*
X76829050Y-99111861D01*
X76649875Y-98932373D01*
X76415652Y-98835115D01*
X76162039Y-98834894D01*
X75927646Y-98931743D01*
X75748158Y-99110918D01*
X75665103Y-99310936D01*
X75622997Y-99310899D01*
X75540761Y-99111871D01*
X75361586Y-98932383D01*
X75127363Y-98835125D01*
X74873750Y-98834904D01*
X74639357Y-98931753D01*
X74459869Y-99110928D01*
X74362611Y-99345151D01*
X74362390Y-99598764D01*
X72766217Y-99598764D01*
X72837389Y-99427363D01*
X72837576Y-99212270D01*
X73010643Y-99140761D01*
X73190131Y-98961586D01*
X73287389Y-98727363D01*
X73287610Y-98473750D01*
X73190761Y-98239357D01*
X73011586Y-98059869D01*
X72777363Y-97962611D01*
X72523750Y-97962390D01*
X72289357Y-98059239D01*
X72225001Y-98123482D01*
X72111586Y-98009869D01*
X71877363Y-97912611D01*
X71623750Y-97912390D01*
X71389357Y-98009239D01*
X71209869Y-98188414D01*
X71112611Y-98422637D01*
X71112390Y-98676250D01*
X50025000Y-98676250D01*
X50025000Y-97226250D01*
X69612390Y-97226250D01*
X69709239Y-97460643D01*
X69888414Y-97640131D01*
X70122637Y-97737389D01*
X70376250Y-97737610D01*
X70610643Y-97640761D01*
X70790131Y-97461586D01*
X70887389Y-97227363D01*
X70887472Y-97131206D01*
X78862390Y-97131206D01*
X78959239Y-97365599D01*
X79138414Y-97545087D01*
X79372637Y-97642345D01*
X79626250Y-97642566D01*
X79860643Y-97545717D01*
X80040131Y-97366542D01*
X80137389Y-97132319D01*
X80137610Y-96878706D01*
X80040761Y-96644313D01*
X79861586Y-96464825D01*
X79627363Y-96367567D01*
X79373750Y-96367346D01*
X79139357Y-96464195D01*
X78959869Y-96643370D01*
X78862611Y-96877593D01*
X78862390Y-97131206D01*
X70887472Y-97131206D01*
X70887610Y-96973750D01*
X70790761Y-96739357D01*
X70611586Y-96559869D01*
X70377363Y-96462611D01*
X70123750Y-96462390D01*
X69889357Y-96559239D01*
X69709869Y-96738414D01*
X69612611Y-96972637D01*
X69612390Y-97226250D01*
X50025000Y-97226250D01*
X50025000Y-96371447D01*
X62154035Y-96371447D01*
X62250884Y-96605840D01*
X62430059Y-96785328D01*
X62664282Y-96882586D01*
X62917895Y-96882807D01*
X63152288Y-96785958D01*
X63331776Y-96606783D01*
X63429034Y-96372560D01*
X63429255Y-96118947D01*
X63332406Y-95884554D01*
X63153231Y-95705066D01*
X62919008Y-95607808D01*
X62665395Y-95607587D01*
X62431002Y-95704436D01*
X62251514Y-95883611D01*
X62154256Y-96117834D01*
X62154035Y-96371447D01*
X50025000Y-96371447D01*
X50025000Y-94723750D01*
X73362390Y-94723750D01*
X73459239Y-94958143D01*
X73500939Y-94999916D01*
X73459869Y-95040914D01*
X73362611Y-95275137D01*
X73362390Y-95528750D01*
X73459239Y-95763143D01*
X73638414Y-95942631D01*
X73872637Y-96039889D01*
X74126250Y-96040110D01*
X74360643Y-95943261D01*
X74540131Y-95764086D01*
X74637389Y-95529863D01*
X74637610Y-95276250D01*
X74540761Y-95041857D01*
X74499061Y-95000084D01*
X74540131Y-94959086D01*
X74637389Y-94724863D01*
X74637474Y-94626250D01*
X76712390Y-94626250D01*
X76809239Y-94860643D01*
X76988414Y-95040131D01*
X77222637Y-95137389D01*
X77476250Y-95137610D01*
X77710643Y-95040761D01*
X77890131Y-94861586D01*
X77987389Y-94627363D01*
X77987610Y-94373750D01*
X77890761Y-94139357D01*
X77827765Y-94076250D01*
X84062390Y-94076250D01*
X84159239Y-94310643D01*
X84338414Y-94490131D01*
X84572637Y-94587389D01*
X84826250Y-94587610D01*
X85060643Y-94490761D01*
X85240131Y-94311586D01*
X85337389Y-94077363D01*
X85337610Y-93823750D01*
X85240761Y-93589357D01*
X85061586Y-93409869D01*
X84827363Y-93312611D01*
X84573750Y-93312390D01*
X84339357Y-93409239D01*
X84159869Y-93588414D01*
X84062611Y-93822637D01*
X84062390Y-94076250D01*
X77827765Y-94076250D01*
X77711586Y-93959869D01*
X77477363Y-93862611D01*
X77223750Y-93862390D01*
X76989357Y-93959239D01*
X76809869Y-94138414D01*
X76712611Y-94372637D01*
X76712390Y-94626250D01*
X74637474Y-94626250D01*
X74637610Y-94471250D01*
X74540761Y-94236857D01*
X74361586Y-94057369D01*
X74127363Y-93960111D01*
X73873750Y-93959890D01*
X73639357Y-94056739D01*
X73459869Y-94235914D01*
X73362611Y-94470137D01*
X73362390Y-94723750D01*
X50025000Y-94723750D01*
X50025000Y-94026250D01*
X67312390Y-94026250D01*
X67409239Y-94260643D01*
X67588414Y-94440131D01*
X67822637Y-94537389D01*
X68076250Y-94537610D01*
X68310643Y-94440761D01*
X68490131Y-94261586D01*
X68510607Y-94212275D01*
X68538414Y-94240131D01*
X68772637Y-94337389D01*
X69026250Y-94337610D01*
X69260643Y-94240761D01*
X69440131Y-94061586D01*
X69537389Y-93827363D01*
X69537610Y-93573750D01*
X69440761Y-93339357D01*
X69261586Y-93159869D01*
X69027363Y-93062611D01*
X68773750Y-93062390D01*
X68539357Y-93159239D01*
X68359869Y-93338414D01*
X68339393Y-93387725D01*
X68311586Y-93359869D01*
X68077363Y-93262611D01*
X67823750Y-93262390D01*
X67589357Y-93359239D01*
X67409869Y-93538414D01*
X67312611Y-93772637D01*
X67312390Y-94026250D01*
X50025000Y-94026250D01*
X50025000Y-93076252D01*
X56162390Y-93076252D01*
X56259239Y-93310645D01*
X56438414Y-93490133D01*
X56672637Y-93587391D01*
X56926250Y-93587612D01*
X57125202Y-93505407D01*
X57322637Y-93587389D01*
X57576250Y-93587610D01*
X57810643Y-93490761D01*
X57990131Y-93311586D01*
X58087389Y-93077363D01*
X58087610Y-92823750D01*
X57990761Y-92589357D01*
X57811586Y-92409869D01*
X57577363Y-92312611D01*
X57323750Y-92312390D01*
X57124798Y-92394595D01*
X56927363Y-92312613D01*
X56673750Y-92312392D01*
X56439357Y-92409241D01*
X56259869Y-92588416D01*
X56162611Y-92822639D01*
X56162390Y-93076252D01*
X50025000Y-93076252D01*
X50025000Y-91926250D01*
X78016960Y-91926250D01*
X78113809Y-92160643D01*
X78292984Y-92340131D01*
X78527207Y-92437389D01*
X78780820Y-92437610D01*
X79015213Y-92340761D01*
X79194701Y-92161586D01*
X79291959Y-91927363D01*
X79292180Y-91673750D01*
X79195331Y-91439357D01*
X79016156Y-91259869D01*
X78781933Y-91162611D01*
X78528320Y-91162390D01*
X78293927Y-91259239D01*
X78114439Y-91438414D01*
X78017181Y-91672637D01*
X78016960Y-91926250D01*
X50025000Y-91926250D01*
X50025000Y-90326250D01*
X50162390Y-90326250D01*
X50259239Y-90560643D01*
X50438414Y-90740131D01*
X50672637Y-90837389D01*
X50926250Y-90837610D01*
X51160643Y-90740761D01*
X51335943Y-90565766D01*
X61488120Y-90565766D01*
X61584969Y-90800159D01*
X61764144Y-90979647D01*
X61998367Y-91076905D01*
X62251980Y-91077126D01*
X62486373Y-90980277D01*
X62665861Y-90801102D01*
X62676180Y-90776250D01*
X63662390Y-90776250D01*
X63759239Y-91010643D01*
X63938414Y-91190131D01*
X64172637Y-91287389D01*
X64426250Y-91287610D01*
X64453743Y-91276250D01*
X70134892Y-91276250D01*
X70231741Y-91510643D01*
X70410916Y-91690131D01*
X70645139Y-91787389D01*
X70898752Y-91787610D01*
X71133145Y-91690761D01*
X71312633Y-91511586D01*
X71409891Y-91277363D01*
X71410112Y-91023750D01*
X71349167Y-90876250D01*
X73612390Y-90876250D01*
X73709239Y-91110643D01*
X73888414Y-91290131D01*
X74122637Y-91387389D01*
X74376250Y-91387610D01*
X74610643Y-91290761D01*
X74790131Y-91111586D01*
X74887389Y-90877363D01*
X74887389Y-90876250D01*
X77012390Y-90876250D01*
X77109239Y-91110643D01*
X77288414Y-91290131D01*
X77522637Y-91387389D01*
X77776250Y-91387610D01*
X78010643Y-91290761D01*
X78190131Y-91111586D01*
X78287389Y-90877363D01*
X78287610Y-90623750D01*
X78190761Y-90389357D01*
X78011586Y-90209869D01*
X77777363Y-90112611D01*
X77523750Y-90112390D01*
X77289357Y-90209239D01*
X77109869Y-90388414D01*
X77012611Y-90622637D01*
X77012390Y-90876250D01*
X74887389Y-90876250D01*
X74887610Y-90623750D01*
X74790761Y-90389357D01*
X74611586Y-90209869D01*
X74377363Y-90112611D01*
X74123750Y-90112390D01*
X73889357Y-90209239D01*
X73709869Y-90388414D01*
X73612611Y-90622637D01*
X73612390Y-90876250D01*
X71349167Y-90876250D01*
X71313263Y-90789357D01*
X71134088Y-90609869D01*
X70899865Y-90512611D01*
X70646252Y-90512390D01*
X70411859Y-90609239D01*
X70232371Y-90788414D01*
X70135113Y-91022637D01*
X70134892Y-91276250D01*
X64453743Y-91276250D01*
X64660643Y-91190761D01*
X64840131Y-91011586D01*
X64937389Y-90777363D01*
X64937610Y-90523750D01*
X64840761Y-90289357D01*
X64661586Y-90109869D01*
X64427363Y-90012611D01*
X64173750Y-90012390D01*
X63939357Y-90109239D01*
X63759869Y-90288414D01*
X63662611Y-90522637D01*
X63662390Y-90776250D01*
X62676180Y-90776250D01*
X62763119Y-90566879D01*
X62763340Y-90313266D01*
X62666491Y-90078873D01*
X62487316Y-89899385D01*
X62253093Y-89802127D01*
X61999480Y-89801906D01*
X61765087Y-89898755D01*
X61585599Y-90077930D01*
X61488341Y-90312153D01*
X61488120Y-90565766D01*
X51335943Y-90565766D01*
X51340131Y-90561586D01*
X51437389Y-90327363D01*
X51437610Y-90073750D01*
X51340761Y-89839357D01*
X51161586Y-89659869D01*
X50927363Y-89562611D01*
X50673750Y-89562390D01*
X50439357Y-89659239D01*
X50259869Y-89838414D01*
X50162611Y-90072637D01*
X50162390Y-90326250D01*
X50025000Y-90326250D01*
X50025000Y-87811912D01*
X50524727Y-87811912D01*
X50764001Y-88391000D01*
X51206669Y-88834441D01*
X51785339Y-89074726D01*
X52411912Y-89075273D01*
X52530600Y-89026232D01*
X59812408Y-89026232D01*
X59909257Y-89260625D01*
X60088432Y-89440113D01*
X60322655Y-89537371D01*
X60576268Y-89537592D01*
X60810661Y-89440743D01*
X60990149Y-89261568D01*
X61087407Y-89027345D01*
X61087407Y-89026262D01*
X84562390Y-89026262D01*
X84654947Y-89250268D01*
X84562611Y-89472637D01*
X84562390Y-89726250D01*
X84659239Y-89960643D01*
X84838414Y-90140131D01*
X85072637Y-90237389D01*
X85326250Y-90237610D01*
X85560643Y-90140761D01*
X85740131Y-89961586D01*
X85837389Y-89727363D01*
X85837610Y-89473750D01*
X85745053Y-89249744D01*
X85837389Y-89027375D01*
X85837610Y-88773762D01*
X85740761Y-88539369D01*
X85561586Y-88359881D01*
X85327363Y-88262623D01*
X85073750Y-88262402D01*
X84839357Y-88359251D01*
X84659869Y-88538426D01*
X84562611Y-88772649D01*
X84562390Y-89026262D01*
X61087407Y-89026262D01*
X61087628Y-88773732D01*
X60990779Y-88539339D01*
X60811604Y-88359851D01*
X60577381Y-88262593D01*
X60323768Y-88262372D01*
X60089375Y-88359221D01*
X59909887Y-88538396D01*
X59812629Y-88772619D01*
X59812408Y-89026232D01*
X52530600Y-89026232D01*
X52991000Y-88835999D01*
X53434441Y-88393331D01*
X53674726Y-87814661D01*
X53674759Y-87776250D01*
X62412390Y-87776250D01*
X62509239Y-88010643D01*
X62688414Y-88190131D01*
X62922637Y-88287389D01*
X63176250Y-88287610D01*
X63410643Y-88190761D01*
X63475266Y-88126250D01*
X73862390Y-88126250D01*
X73959239Y-88360643D01*
X74138414Y-88540131D01*
X74372637Y-88637389D01*
X74626250Y-88637610D01*
X74860643Y-88540761D01*
X75040131Y-88361586D01*
X75137389Y-88127363D01*
X75137610Y-87873750D01*
X75112060Y-87811912D01*
X96324727Y-87811912D01*
X96564001Y-88391000D01*
X97006669Y-88834441D01*
X97585339Y-89074726D01*
X98211912Y-89075273D01*
X98791000Y-88835999D01*
X99234441Y-88393331D01*
X99474726Y-87814661D01*
X99475273Y-87188088D01*
X99235999Y-86609000D01*
X98793331Y-86165559D01*
X98214661Y-85925274D01*
X97588088Y-85924727D01*
X97009000Y-86164001D01*
X96565559Y-86606669D01*
X96325274Y-87185339D01*
X96324727Y-87811912D01*
X75112060Y-87811912D01*
X75040761Y-87639357D01*
X74861586Y-87459869D01*
X74627363Y-87362611D01*
X74373750Y-87362390D01*
X74139357Y-87459239D01*
X73959869Y-87638414D01*
X73862611Y-87872637D01*
X73862390Y-88126250D01*
X63475266Y-88126250D01*
X63590131Y-88011586D01*
X63687389Y-87777363D01*
X63687610Y-87523750D01*
X63631324Y-87387527D01*
X63726250Y-87387610D01*
X63960643Y-87290761D01*
X64140131Y-87111586D01*
X64237389Y-86877363D01*
X64237607Y-86626250D01*
X68512390Y-86626250D01*
X68609239Y-86860643D01*
X68788414Y-87040131D01*
X69022637Y-87137389D01*
X69276250Y-87137610D01*
X69510643Y-87040761D01*
X69639283Y-86912345D01*
X69659239Y-86960643D01*
X69838414Y-87140131D01*
X70072637Y-87237389D01*
X70326250Y-87237610D01*
X70560643Y-87140761D01*
X70740131Y-86961586D01*
X70775565Y-86876250D01*
X87412390Y-86876250D01*
X87509239Y-87110643D01*
X87688414Y-87290131D01*
X87922637Y-87387389D01*
X88176250Y-87387610D01*
X88410643Y-87290761D01*
X88590131Y-87111586D01*
X88687389Y-86877363D01*
X88687610Y-86623750D01*
X88590761Y-86389357D01*
X88411586Y-86209869D01*
X88177363Y-86112611D01*
X87923750Y-86112390D01*
X87689357Y-86209239D01*
X87509869Y-86388414D01*
X87412611Y-86622637D01*
X87412390Y-86876250D01*
X70775565Y-86876250D01*
X70837389Y-86727363D01*
X70837610Y-86473750D01*
X70740761Y-86239357D01*
X70561586Y-86059869D01*
X70327363Y-85962611D01*
X70073750Y-85962390D01*
X69839357Y-86059239D01*
X69710717Y-86187655D01*
X69690761Y-86139357D01*
X69511586Y-85959869D01*
X69277363Y-85862611D01*
X69023750Y-85862390D01*
X68789357Y-85959239D01*
X68609869Y-86138414D01*
X68512611Y-86372637D01*
X68512390Y-86626250D01*
X64237607Y-86626250D01*
X64237610Y-86623750D01*
X64140761Y-86389357D01*
X63961586Y-86209869D01*
X63727363Y-86112611D01*
X63473750Y-86112390D01*
X63239357Y-86209239D01*
X63059869Y-86388414D01*
X62962611Y-86622637D01*
X62962390Y-86876250D01*
X63018676Y-87012473D01*
X62923750Y-87012390D01*
X62689357Y-87109239D01*
X62509869Y-87288414D01*
X62412611Y-87522637D01*
X62412390Y-87776250D01*
X53674759Y-87776250D01*
X53675273Y-87188088D01*
X53435999Y-86609000D01*
X52993331Y-86165559D01*
X52414661Y-85925274D01*
X51788088Y-85924727D01*
X51209000Y-86164001D01*
X50765559Y-86606669D01*
X50525274Y-87185339D01*
X50524727Y-87811912D01*
X50025000Y-87811912D01*
X50025000Y-85425000D01*
X86122222Y-85425000D01*
X86039357Y-85459239D01*
X86039357Y-85459239D01*
G37*
X86039357Y-85459239D02*
X85859869Y-85638414D01*
X85762611Y-85872637D01*
X85762390Y-86126250D01*
X85859239Y-86360643D01*
X86038414Y-86540131D01*
X86272637Y-86637389D01*
X86526250Y-86637610D01*
X86760643Y-86540761D01*
X86940131Y-86361586D01*
X87037389Y-86127363D01*
X87037610Y-85873750D01*
X86940761Y-85639357D01*
X86761586Y-85459869D01*
X86677612Y-85425000D01*
X99975000Y-85425000D01*
X99975000Y-89782392D01*
X99927363Y-89762611D01*
X99673750Y-89762390D01*
X99439357Y-89859239D01*
X99259869Y-90038414D01*
X99162611Y-90272637D01*
X99162390Y-90526250D01*
X99259239Y-90760643D01*
X99325000Y-90826519D01*
X99325000Y-96553248D01*
X98814124Y-97064124D01*
X98711157Y-97218225D01*
X98675000Y-97400000D01*
X98675000Y-97803372D01*
X98711157Y-97985147D01*
X98814124Y-98139248D01*
X98846289Y-98171413D01*
X98888553Y-98213676D01*
X98952267Y-98338495D01*
X98952267Y-98481489D01*
X98891623Y-98542133D01*
X98788656Y-98696234D01*
X98752499Y-98878009D01*
X98752499Y-99775749D01*
X98064124Y-100464124D01*
X97961157Y-100618225D01*
X97925000Y-100800000D01*
X97925000Y-101571304D01*
X97961157Y-101753079D01*
X98064124Y-101907180D01*
X98475000Y-102318055D01*
X98475000Y-104653248D01*
X97895070Y-105233178D01*
X97792103Y-105387279D01*
X97755946Y-105569054D01*
X97755946Y-110530946D01*
X97792103Y-110712721D01*
X97895070Y-110866822D01*
X98412470Y-111384222D01*
X98412390Y-111476250D01*
X98509239Y-111710643D01*
X98688414Y-111890131D01*
X98922637Y-111987389D01*
X99015719Y-111987470D01*
X99026621Y-111998372D01*
X99026623Y-111998375D01*
X99106126Y-112077878D01*
X98901924Y-112162252D01*
X98722436Y-112341427D01*
X98625178Y-112575650D01*
X98624957Y-112829263D01*
X98721806Y-113063656D01*
X98900981Y-113243144D01*
X99135204Y-113340402D01*
X99388817Y-113340623D01*
X99410068Y-113331842D01*
X99410068Y-122030280D01*
X99235999Y-121609000D01*
X98793331Y-121165559D01*
X98214661Y-120925274D01*
X97588088Y-120924727D01*
X97009000Y-121164001D01*
X96565559Y-121606669D01*
X96325274Y-122185339D01*
X96324727Y-122811912D01*
X96564001Y-123391000D01*
X96997244Y-123825000D01*
X91046847Y-123825000D01*
X91087389Y-123727363D01*
X91087610Y-123473750D01*
X90990761Y-123239357D01*
X90811586Y-123059869D01*
X90577363Y-122962611D01*
X90323750Y-122962390D01*
X90089357Y-123059239D01*
X89909869Y-123238414D01*
X89812611Y-123472637D01*
X89812390Y-123726250D01*
X89853193Y-123825000D01*
X59897495Y-123825000D01*
X59876777Y-123811157D01*
X59695002Y-123775000D01*
X59037499Y-123775000D01*
X59037499Y-123162499D01*
X59001342Y-122980724D01*
X58898375Y-122826623D01*
X58898372Y-122826621D01*
X58887530Y-122815779D01*
X58887610Y-122723750D01*
X58790761Y-122489357D01*
X58611586Y-122309869D01*
X58377363Y-122212611D01*
X58123750Y-122212390D01*
X57889357Y-122309239D01*
X57709869Y-122488414D01*
X57612611Y-122722637D01*
X57612390Y-122976250D01*
X57709239Y-123210643D01*
X57888414Y-123390131D01*
X58087499Y-123472798D01*
X58087499Y-123775000D01*
X53052106Y-123775000D01*
X53434441Y-123393331D01*
X53674726Y-122814661D01*
X53675273Y-122188088D01*
X53629063Y-122076250D01*
X64662390Y-122076250D01*
X64759239Y-122310643D01*
X64938414Y-122490131D01*
X65172637Y-122587389D01*
X65426250Y-122587610D01*
X65660643Y-122490761D01*
X65840131Y-122311586D01*
X65937389Y-122077363D01*
X65937610Y-121823750D01*
X65840761Y-121589357D01*
X65777765Y-121526250D01*
X66362388Y-121526250D01*
X66459237Y-121760643D01*
X66638412Y-121940131D01*
X66722304Y-121974966D01*
X66639357Y-122009239D01*
X66459869Y-122188414D01*
X66362611Y-122422637D01*
X66362390Y-122676250D01*
X66459239Y-122910643D01*
X66638414Y-123090131D01*
X66872637Y-123187389D01*
X67126250Y-123187610D01*
X67360643Y-123090761D01*
X67540131Y-122911586D01*
X67617089Y-122726250D01*
X69862390Y-122726250D01*
X69959239Y-122960643D01*
X70138414Y-123140131D01*
X70372637Y-123237389D01*
X70626250Y-123237610D01*
X70860643Y-123140761D01*
X70875197Y-123126232D01*
X75062390Y-123126232D01*
X75159239Y-123360625D01*
X75338414Y-123540113D01*
X75572637Y-123637371D01*
X75826250Y-123637592D01*
X76060643Y-123540743D01*
X76240131Y-123361568D01*
X76337389Y-123127345D01*
X76337610Y-122873732D01*
X76240761Y-122639339D01*
X76061586Y-122459851D01*
X75827363Y-122362593D01*
X75573750Y-122362372D01*
X75339357Y-122459221D01*
X75159869Y-122638396D01*
X75062611Y-122872619D01*
X75062390Y-123126232D01*
X70875197Y-123126232D01*
X71040131Y-122961586D01*
X71137389Y-122727363D01*
X71137610Y-122473750D01*
X71056005Y-122276250D01*
X92912390Y-122276250D01*
X93009239Y-122510643D01*
X93188414Y-122690131D01*
X93422637Y-122787389D01*
X93676250Y-122787610D01*
X93910643Y-122690761D01*
X94090131Y-122511586D01*
X94187389Y-122277363D01*
X94187610Y-122023750D01*
X94090761Y-121789357D01*
X93911586Y-121609869D01*
X93677363Y-121512611D01*
X93423750Y-121512390D01*
X93189357Y-121609239D01*
X93009869Y-121788414D01*
X92912611Y-122022637D01*
X92912390Y-122276250D01*
X71056005Y-122276250D01*
X71040761Y-122239357D01*
X70861586Y-122059869D01*
X70627363Y-121962611D01*
X70373750Y-121962390D01*
X70139357Y-122059239D01*
X69959869Y-122238414D01*
X69862611Y-122472637D01*
X69862390Y-122726250D01*
X67617089Y-122726250D01*
X67637389Y-122677363D01*
X67637610Y-122423750D01*
X67540761Y-122189357D01*
X67361586Y-122009869D01*
X67277694Y-121975034D01*
X67360641Y-121940761D01*
X67540129Y-121761586D01*
X67637387Y-121527363D01*
X67637431Y-121476250D01*
X75062390Y-121476250D01*
X75159239Y-121710643D01*
X75338414Y-121890131D01*
X75572637Y-121987389D01*
X75826250Y-121987610D01*
X76060643Y-121890761D01*
X76240131Y-121711586D01*
X76337389Y-121477363D01*
X76337610Y-121223750D01*
X76256005Y-121026250D01*
X86712394Y-121026250D01*
X86809243Y-121260643D01*
X86988418Y-121440131D01*
X87222641Y-121537389D01*
X87476254Y-121537610D01*
X87710647Y-121440761D01*
X87890135Y-121261586D01*
X87899906Y-121238055D01*
X87909239Y-121260643D01*
X88088414Y-121440131D01*
X88322637Y-121537389D01*
X88576250Y-121537610D01*
X88810643Y-121440761D01*
X88990131Y-121261586D01*
X89010684Y-121212090D01*
X89188414Y-121390131D01*
X89422637Y-121487389D01*
X89676250Y-121487610D01*
X89910643Y-121390761D01*
X90090131Y-121211586D01*
X90187389Y-120977363D01*
X90187610Y-120723750D01*
X90090761Y-120489357D01*
X89911586Y-120309869D01*
X89677363Y-120212611D01*
X89642614Y-120212581D01*
X89642696Y-120118662D01*
X89545847Y-119884269D01*
X89366672Y-119704781D01*
X89132449Y-119607523D01*
X88878836Y-119607302D01*
X88644443Y-119704151D01*
X88464955Y-119883326D01*
X88451579Y-119915539D01*
X88440761Y-119889357D01*
X88261586Y-119709869D01*
X88027363Y-119612611D01*
X87773750Y-119612390D01*
X87539357Y-119709239D01*
X87359869Y-119888414D01*
X87262611Y-120122637D01*
X87262489Y-120262424D01*
X87223754Y-120262390D01*
X86989361Y-120359239D01*
X86809873Y-120538414D01*
X86712615Y-120772637D01*
X86712394Y-121026250D01*
X76256005Y-121026250D01*
X76240761Y-120989357D01*
X76061586Y-120809869D01*
X75827363Y-120712611D01*
X75573750Y-120712390D01*
X75339357Y-120809239D01*
X75159869Y-120988414D01*
X75062611Y-121222637D01*
X75062390Y-121476250D01*
X67637431Y-121476250D01*
X67637608Y-121273750D01*
X67540759Y-121039357D01*
X67361584Y-120859869D01*
X67127361Y-120762611D01*
X66873748Y-120762390D01*
X66639355Y-120859239D01*
X66459867Y-121038414D01*
X66362609Y-121272637D01*
X66362388Y-121526250D01*
X65777765Y-121526250D01*
X65661586Y-121409869D01*
X65427363Y-121312611D01*
X65173750Y-121312390D01*
X64939357Y-121409239D01*
X64759869Y-121588414D01*
X64662611Y-121822637D01*
X64662390Y-122076250D01*
X53629063Y-122076250D01*
X53435999Y-121609000D01*
X52993331Y-121165559D01*
X52414661Y-120925274D01*
X51788088Y-120924727D01*
X51209000Y-121164001D01*
X50765559Y-121606669D01*
X50525274Y-122185339D01*
X50524727Y-122811912D01*
X50694467Y-123222715D01*
X50500282Y-123028530D01*
X50500282Y-120526250D01*
X57790323Y-120526250D01*
X57887172Y-120760643D01*
X58066347Y-120940131D01*
X58300570Y-121037389D01*
X58554183Y-121037610D01*
X58788576Y-120940761D01*
X58968064Y-120761586D01*
X59065322Y-120527363D01*
X59065543Y-120273750D01*
X58981390Y-120070083D01*
X59140131Y-119911618D01*
X59237389Y-119677395D01*
X59237610Y-119423782D01*
X59197311Y-119326250D01*
X63862390Y-119326250D01*
X63959239Y-119560643D01*
X64138414Y-119740131D01*
X64372637Y-119837389D01*
X64626250Y-119837610D01*
X64860643Y-119740761D01*
X64875179Y-119726250D01*
X72962390Y-119726250D01*
X73059239Y-119960643D01*
X73238414Y-120140131D01*
X73472637Y-120237389D01*
X73726250Y-120237610D01*
X73960643Y-120140761D01*
X74125441Y-119976250D01*
X76012390Y-119976250D01*
X76109239Y-120210643D01*
X76288414Y-120390131D01*
X76522637Y-120487389D01*
X76776250Y-120487610D01*
X76924752Y-120426250D01*
X80012390Y-120426250D01*
X80109239Y-120660643D01*
X80288414Y-120840131D01*
X80522637Y-120937389D01*
X80776250Y-120937610D01*
X81010643Y-120840761D01*
X81190131Y-120661586D01*
X81287389Y-120427363D01*
X81287610Y-120173750D01*
X81190761Y-119939357D01*
X81011586Y-119759869D01*
X80777363Y-119662611D01*
X80523750Y-119662390D01*
X80289357Y-119759239D01*
X80109869Y-119938414D01*
X80012611Y-120172637D01*
X80012390Y-120426250D01*
X76924752Y-120426250D01*
X77010643Y-120390761D01*
X77190131Y-120211586D01*
X77287389Y-119977363D01*
X77287610Y-119723750D01*
X77190761Y-119489357D01*
X77127765Y-119426250D01*
X84862394Y-119426250D01*
X84959243Y-119660643D01*
X85016136Y-119717635D01*
X85012086Y-119721678D01*
X84914828Y-119955901D01*
X84914607Y-120209514D01*
X85011456Y-120443907D01*
X85190631Y-120623395D01*
X85424854Y-120720653D01*
X85678467Y-120720874D01*
X85912860Y-120624025D01*
X86092348Y-120444850D01*
X86189606Y-120210627D01*
X86189827Y-119957014D01*
X86092978Y-119722621D01*
X86036085Y-119665629D01*
X86040135Y-119661586D01*
X86117093Y-119476250D01*
X96339911Y-119476250D01*
X96436760Y-119710643D01*
X96615935Y-119890131D01*
X96850158Y-119987389D01*
X97103771Y-119987610D01*
X97338164Y-119890761D01*
X97517652Y-119711586D01*
X97614910Y-119477363D01*
X97615131Y-119223750D01*
X97518282Y-118989357D01*
X97339107Y-118809869D01*
X97104884Y-118712611D01*
X96851271Y-118712390D01*
X96616878Y-118809239D01*
X96437390Y-118988414D01*
X96340132Y-119222637D01*
X96339911Y-119476250D01*
X86117093Y-119476250D01*
X86137393Y-119427363D01*
X86137614Y-119173750D01*
X86040765Y-118939357D01*
X85861590Y-118759869D01*
X85627367Y-118662611D01*
X85373754Y-118662390D01*
X85139361Y-118759239D01*
X84959873Y-118938414D01*
X84862615Y-119172637D01*
X84862394Y-119426250D01*
X77127765Y-119426250D01*
X77011586Y-119309869D01*
X76777363Y-119212611D01*
X76523750Y-119212390D01*
X76289357Y-119309239D01*
X76109869Y-119488414D01*
X76012611Y-119722637D01*
X76012390Y-119976250D01*
X74125441Y-119976250D01*
X74140131Y-119961586D01*
X74237389Y-119727363D01*
X74237610Y-119473750D01*
X74140761Y-119239357D01*
X73961586Y-119059869D01*
X73727363Y-118962611D01*
X73473750Y-118962390D01*
X73239357Y-119059239D01*
X73059869Y-119238414D01*
X72962611Y-119472637D01*
X72962390Y-119726250D01*
X64875179Y-119726250D01*
X65040131Y-119561586D01*
X65137389Y-119327363D01*
X65137610Y-119073750D01*
X65040761Y-118839357D01*
X64927852Y-118726250D01*
X69962390Y-118726250D01*
X70059239Y-118960643D01*
X70238414Y-119140131D01*
X70472637Y-119237389D01*
X70726250Y-119237610D01*
X70960643Y-119140761D01*
X71140131Y-118961586D01*
X71237389Y-118727363D01*
X71237610Y-118473750D01*
X71217984Y-118426250D01*
X81212390Y-118426250D01*
X81309239Y-118660643D01*
X81488414Y-118840131D01*
X81722637Y-118937389D01*
X81976250Y-118937610D01*
X82210643Y-118840761D01*
X82390131Y-118661586D01*
X82487389Y-118427363D01*
X82487433Y-118376250D01*
X85812390Y-118376250D01*
X85909239Y-118610643D01*
X86088414Y-118790131D01*
X86322637Y-118887389D01*
X86576250Y-118887610D01*
X86810643Y-118790761D01*
X86990131Y-118611586D01*
X87043250Y-118483663D01*
X87172637Y-118537389D01*
X87426250Y-118537610D01*
X87660643Y-118440761D01*
X87840131Y-118261586D01*
X87854803Y-118226250D01*
X89812390Y-118226250D01*
X89909239Y-118460643D01*
X90088414Y-118640131D01*
X90322637Y-118737389D01*
X90576250Y-118737610D01*
X90810643Y-118640761D01*
X90990131Y-118461586D01*
X91067089Y-118276250D01*
X92012390Y-118276250D01*
X92109239Y-118510643D01*
X92288414Y-118690131D01*
X92522637Y-118787389D01*
X92776250Y-118787610D01*
X93010643Y-118690761D01*
X93190131Y-118511586D01*
X93267089Y-118326250D01*
X93814836Y-118326250D01*
X93911685Y-118560643D01*
X94090860Y-118740131D01*
X94325083Y-118837389D01*
X94578696Y-118837610D01*
X94813089Y-118740761D01*
X94992577Y-118561586D01*
X95089835Y-118327363D01*
X95090056Y-118073750D01*
X94993207Y-117839357D01*
X94814032Y-117659869D01*
X94579809Y-117562611D01*
X94326196Y-117562390D01*
X94091803Y-117659239D01*
X93912315Y-117838414D01*
X93815057Y-118072637D01*
X93814836Y-118326250D01*
X93267089Y-118326250D01*
X93287389Y-118277363D01*
X93287610Y-118023750D01*
X93190761Y-117789357D01*
X93011586Y-117609869D01*
X92777363Y-117512611D01*
X92523750Y-117512390D01*
X92289357Y-117609239D01*
X92109869Y-117788414D01*
X92012611Y-118022637D01*
X92012390Y-118276250D01*
X91067089Y-118276250D01*
X91087389Y-118227363D01*
X91087610Y-117973750D01*
X90990761Y-117739357D01*
X90811586Y-117559869D01*
X90577363Y-117462611D01*
X90323750Y-117462390D01*
X90089357Y-117559239D01*
X89909869Y-117738414D01*
X89812611Y-117972637D01*
X89812390Y-118226250D01*
X87854803Y-118226250D01*
X87937389Y-118027363D01*
X87937610Y-117773750D01*
X87840761Y-117539357D01*
X87801561Y-117500089D01*
X87840131Y-117461586D01*
X87875565Y-117376250D01*
X96262390Y-117376250D01*
X96359239Y-117610643D01*
X96538414Y-117790131D01*
X96772637Y-117887389D01*
X97026250Y-117887610D01*
X97260643Y-117790761D01*
X97440131Y-117611586D01*
X97537389Y-117377363D01*
X97537610Y-117123750D01*
X97447773Y-116906327D01*
X97742467Y-116906327D01*
X97839316Y-117140720D01*
X97881026Y-117182503D01*
X97860252Y-117203241D01*
X97762994Y-117437464D01*
X97762773Y-117691077D01*
X97859622Y-117925470D01*
X98038797Y-118104958D01*
X98273020Y-118202216D01*
X98526633Y-118202437D01*
X98761026Y-118105588D01*
X98940514Y-117926413D01*
X99037772Y-117692190D01*
X99037993Y-117438577D01*
X98941144Y-117204184D01*
X98899434Y-117162401D01*
X98920208Y-117141663D01*
X99017466Y-116907440D01*
X99017687Y-116653827D01*
X98920838Y-116419434D01*
X98741663Y-116239946D01*
X98507440Y-116142688D01*
X98253827Y-116142467D01*
X98019434Y-116239316D01*
X97839946Y-116418491D01*
X97742688Y-116652714D01*
X97742467Y-116906327D01*
X97447773Y-116906327D01*
X97440761Y-116889357D01*
X97261586Y-116709869D01*
X97027363Y-116612611D01*
X96773750Y-116612390D01*
X96539357Y-116709239D01*
X96359869Y-116888414D01*
X96262611Y-117122637D01*
X96262390Y-117376250D01*
X87875565Y-117376250D01*
X87937389Y-117227363D01*
X87937610Y-116973750D01*
X87840761Y-116739357D01*
X87661586Y-116559869D01*
X87427363Y-116462611D01*
X87173750Y-116462390D01*
X86939357Y-116559239D01*
X86759869Y-116738414D01*
X86662611Y-116972637D01*
X86662390Y-117226250D01*
X86759239Y-117460643D01*
X86798439Y-117499911D01*
X86759869Y-117538414D01*
X86706750Y-117666337D01*
X86577363Y-117612611D01*
X86323750Y-117612390D01*
X86089357Y-117709239D01*
X85909869Y-117888414D01*
X85812611Y-118122637D01*
X85812390Y-118376250D01*
X82487433Y-118376250D01*
X82487610Y-118173750D01*
X82390761Y-117939357D01*
X82211586Y-117759869D01*
X81977363Y-117662611D01*
X81723750Y-117662390D01*
X81489357Y-117759239D01*
X81309869Y-117938414D01*
X81212611Y-118172637D01*
X81212390Y-118426250D01*
X71217984Y-118426250D01*
X71140761Y-118239357D01*
X70961586Y-118059869D01*
X70727363Y-117962611D01*
X70473750Y-117962390D01*
X70239357Y-118059239D01*
X70059869Y-118238414D01*
X69962611Y-118472637D01*
X69962390Y-118726250D01*
X64927852Y-118726250D01*
X64861586Y-118659869D01*
X64627363Y-118562611D01*
X64373750Y-118562390D01*
X64139357Y-118659239D01*
X63959869Y-118838414D01*
X63862611Y-119072637D01*
X63862390Y-119326250D01*
X59197311Y-119326250D01*
X59140761Y-119189389D01*
X58961586Y-119009901D01*
X58727363Y-118912643D01*
X58473750Y-118912422D01*
X58239357Y-119009271D01*
X58059869Y-119188446D01*
X57962611Y-119422669D01*
X57962390Y-119676282D01*
X58046543Y-119879949D01*
X57887802Y-120038414D01*
X57790544Y-120272637D01*
X57790323Y-120526250D01*
X50500282Y-120526250D01*
X50500282Y-117526250D01*
X51412390Y-117526250D01*
X51509239Y-117760643D01*
X51688414Y-117940131D01*
X51922637Y-118037389D01*
X52176250Y-118037610D01*
X52410643Y-117940761D01*
X52449911Y-117901561D01*
X52488414Y-117940131D01*
X52722637Y-118037389D01*
X52976250Y-118037610D01*
X53210643Y-117940761D01*
X53357063Y-117794596D01*
X53585127Y-117889297D01*
X53612596Y-117889321D01*
X53612390Y-118126272D01*
X53709239Y-118360665D01*
X53888414Y-118540153D01*
X54122637Y-118637411D01*
X54376250Y-118637632D01*
X54610643Y-118540783D01*
X54790131Y-118361608D01*
X54887389Y-118127385D01*
X54887598Y-117887499D01*
X55026250Y-117887620D01*
X55085118Y-117863296D01*
X55009869Y-117938414D01*
X54912611Y-118172637D01*
X54912390Y-118426250D01*
X55009239Y-118660643D01*
X55188414Y-118840131D01*
X55422637Y-118937389D01*
X55676250Y-118937610D01*
X55910643Y-118840761D01*
X56090131Y-118661586D01*
X56124966Y-118577695D01*
X56159239Y-118660643D01*
X56338414Y-118840131D01*
X56572637Y-118937389D01*
X56826250Y-118937610D01*
X57060643Y-118840761D01*
X57240131Y-118661586D01*
X57268188Y-118594018D01*
X57372637Y-118637389D01*
X57626250Y-118637610D01*
X57860643Y-118540761D01*
X58040131Y-118361586D01*
X58137389Y-118127363D01*
X58137603Y-117881314D01*
X58272637Y-117937385D01*
X58526250Y-117937606D01*
X58760643Y-117840757D01*
X58875350Y-117726250D01*
X79812390Y-117726250D01*
X79909239Y-117960643D01*
X80088414Y-118140131D01*
X80322637Y-118237389D01*
X80576250Y-118237610D01*
X80810643Y-118140761D01*
X80990131Y-117961586D01*
X81087389Y-117727363D01*
X81087610Y-117473750D01*
X80990761Y-117239357D01*
X80811586Y-117059869D01*
X80577363Y-116962611D01*
X80323750Y-116962390D01*
X80089357Y-117059239D01*
X79909869Y-117238414D01*
X79812611Y-117472637D01*
X79812390Y-117726250D01*
X58875350Y-117726250D01*
X58940131Y-117661582D01*
X59037389Y-117427359D01*
X59037610Y-117173746D01*
X58940761Y-116939353D01*
X58909057Y-116907593D01*
X58940131Y-116876573D01*
X58981788Y-116776250D01*
X59562390Y-116776250D01*
X59659239Y-117010643D01*
X59838414Y-117190131D01*
X60072637Y-117287389D01*
X60326250Y-117287610D01*
X60560643Y-117190761D01*
X60625266Y-117126250D01*
X62812390Y-117126250D01*
X62909239Y-117360643D01*
X63088414Y-117540131D01*
X63322637Y-117637389D01*
X63576250Y-117637610D01*
X63810643Y-117540761D01*
X63990131Y-117361586D01*
X64087389Y-117127363D01*
X64087477Y-117026250D01*
X73412402Y-117026250D01*
X73509251Y-117260643D01*
X73688426Y-117440131D01*
X73922649Y-117537389D01*
X74176262Y-117537610D01*
X74410655Y-117440761D01*
X74590143Y-117261586D01*
X74687401Y-117027363D01*
X74687401Y-117026250D01*
X74762390Y-117026250D01*
X74859239Y-117260643D01*
X75038414Y-117440131D01*
X75272637Y-117537389D01*
X75526250Y-117537610D01*
X75760643Y-117440761D01*
X75940131Y-117261586D01*
X76037389Y-117027363D01*
X76037610Y-116773750D01*
X75940761Y-116539357D01*
X75761586Y-116359869D01*
X75527363Y-116262611D01*
X75273750Y-116262390D01*
X75039357Y-116359239D01*
X74859869Y-116538414D01*
X74762611Y-116772637D01*
X74762390Y-117026250D01*
X74687401Y-117026250D01*
X74687622Y-116773750D01*
X74590773Y-116539357D01*
X74411598Y-116359869D01*
X74177375Y-116262611D01*
X73923762Y-116262390D01*
X73689369Y-116359239D01*
X73509881Y-116538414D01*
X73412623Y-116772637D01*
X73412402Y-117026250D01*
X64087477Y-117026250D01*
X64087610Y-116873750D01*
X63990761Y-116639357D01*
X63811586Y-116459869D01*
X63577363Y-116362611D01*
X63323750Y-116362390D01*
X63089357Y-116459239D01*
X62909869Y-116638414D01*
X62812611Y-116872637D01*
X62812390Y-117126250D01*
X60625266Y-117126250D01*
X60740131Y-117011586D01*
X60837389Y-116777363D01*
X60837610Y-116523750D01*
X60740761Y-116289357D01*
X60561586Y-116109869D01*
X60480623Y-116076250D01*
X65712390Y-116076250D01*
X65809239Y-116310643D01*
X65988414Y-116490131D01*
X66222637Y-116587389D01*
X66476250Y-116587610D01*
X66710643Y-116490761D01*
X66890131Y-116311586D01*
X66987389Y-116077363D01*
X66987610Y-115823750D01*
X66890761Y-115589357D01*
X66711586Y-115409869D01*
X66477363Y-115312611D01*
X66223750Y-115312390D01*
X65989357Y-115409239D01*
X65809869Y-115588414D01*
X65712611Y-115822637D01*
X65712390Y-116076250D01*
X60480623Y-116076250D01*
X60327363Y-116012611D01*
X60073750Y-116012390D01*
X59839357Y-116109239D01*
X59659869Y-116288414D01*
X59562611Y-116522637D01*
X59562390Y-116776250D01*
X58981788Y-116776250D01*
X59037389Y-116642350D01*
X59037610Y-116388737D01*
X58940761Y-116154344D01*
X58761586Y-115974856D01*
X58527363Y-115877598D01*
X58273750Y-115877377D01*
X58039357Y-115974226D01*
X57859869Y-116153401D01*
X57762611Y-116387624D01*
X57762390Y-116641237D01*
X57859239Y-116875630D01*
X57890943Y-116907390D01*
X57859869Y-116938410D01*
X57762611Y-117172633D01*
X57762397Y-117418682D01*
X57627363Y-117362611D01*
X57373750Y-117362390D01*
X57139357Y-117459239D01*
X56959869Y-117638414D01*
X56931812Y-117705982D01*
X56827363Y-117662611D01*
X56722791Y-117662520D01*
X56737389Y-117627363D01*
X56737610Y-117373750D01*
X56640761Y-117139357D01*
X56461586Y-116959869D01*
X56227363Y-116862611D01*
X55973750Y-116862390D01*
X55739357Y-116959239D01*
X55559869Y-117138414D01*
X55537550Y-117192163D01*
X55537610Y-117123760D01*
X55440761Y-116889367D01*
X55261586Y-116709879D01*
X55027363Y-116612621D01*
X54773750Y-116612400D01*
X54539357Y-116709249D01*
X54359869Y-116888424D01*
X54305840Y-117018540D01*
X54253251Y-116891265D01*
X54074076Y-116711777D01*
X53839853Y-116614519D01*
X53586240Y-116614298D01*
X53351847Y-116711147D01*
X53205427Y-116857312D01*
X52977363Y-116762611D01*
X52723750Y-116762390D01*
X52489357Y-116859239D01*
X52450089Y-116898439D01*
X52411586Y-116859869D01*
X52177363Y-116762611D01*
X51923750Y-116762390D01*
X51689357Y-116859239D01*
X51509869Y-117038414D01*
X51412611Y-117272637D01*
X51412390Y-117526250D01*
X50500282Y-117526250D01*
X50500282Y-117078106D01*
X50522637Y-117087389D01*
X50776250Y-117087610D01*
X51010643Y-116990761D01*
X51161667Y-116840000D01*
X51645499Y-116840000D01*
X51645504Y-116840001D01*
X51769989Y-116815239D01*
X51794751Y-116810313D01*
X51921276Y-116725772D01*
X52163270Y-116483777D01*
X52163273Y-116483775D01*
X52247814Y-116357250D01*
X52277501Y-116208003D01*
X52277501Y-114776250D01*
X71462402Y-114776250D01*
X71559251Y-115010643D01*
X71738426Y-115190131D01*
X71972649Y-115287389D01*
X72226262Y-115287610D01*
X72273653Y-115268028D01*
X72188692Y-115472637D01*
X72188471Y-115726250D01*
X72285320Y-115960643D01*
X72464495Y-116140131D01*
X72698718Y-116237389D01*
X72952331Y-116237610D01*
X73186724Y-116140761D01*
X73366212Y-115961586D01*
X73463470Y-115727363D01*
X73463691Y-115473750D01*
X73366842Y-115239357D01*
X73187667Y-115059869D01*
X72953444Y-114962611D01*
X72699831Y-114962390D01*
X72652440Y-114981972D01*
X72737401Y-114777363D01*
X72737622Y-114523750D01*
X72640773Y-114289357D01*
X72461598Y-114109869D01*
X72227375Y-114012611D01*
X71973762Y-114012390D01*
X71739369Y-114109239D01*
X71559881Y-114288414D01*
X71462623Y-114522637D01*
X71462402Y-114776250D01*
X52277501Y-114776250D01*
X52277501Y-113276250D01*
X62562390Y-113276250D01*
X62659239Y-113510643D01*
X62838414Y-113690131D01*
X63072637Y-113787389D01*
X63326250Y-113787610D01*
X63560643Y-113690761D01*
X63740131Y-113511586D01*
X63837389Y-113277363D01*
X63837610Y-113023750D01*
X63740761Y-112789357D01*
X63561586Y-112609869D01*
X63327363Y-112512611D01*
X63073750Y-112512390D01*
X62839357Y-112609239D01*
X62659869Y-112788414D01*
X62562611Y-113022637D01*
X62562390Y-113276250D01*
X52277501Y-113276250D01*
X52277501Y-112054078D01*
X68184562Y-112054078D01*
X68281411Y-112288471D01*
X68460586Y-112467959D01*
X68694809Y-112565217D01*
X68948422Y-112565438D01*
X69182815Y-112468589D01*
X69222099Y-112429373D01*
X69162611Y-112572637D01*
X69162390Y-112826250D01*
X69259239Y-113060643D01*
X69438414Y-113240131D01*
X69672637Y-113337389D01*
X69862554Y-113337554D01*
X69862390Y-113526250D01*
X69959239Y-113760643D01*
X70138414Y-113940131D01*
X70372637Y-114037389D01*
X70626250Y-114037610D01*
X70860643Y-113940761D01*
X71040131Y-113761586D01*
X71137389Y-113527363D01*
X71137520Y-113376250D01*
X74062390Y-113376250D01*
X74159239Y-113610643D01*
X74338414Y-113790131D01*
X74361961Y-113799908D01*
X74339379Y-113809239D01*
X74159891Y-113988414D01*
X74062633Y-114222637D01*
X74062412Y-114476250D01*
X74159261Y-114710643D01*
X74338436Y-114890131D01*
X74572659Y-114987389D01*
X74727191Y-114987524D01*
X74712611Y-115022637D01*
X74712390Y-115276250D01*
X74809239Y-115510643D01*
X74988414Y-115690131D01*
X75222637Y-115787389D01*
X75476250Y-115787610D01*
X75710643Y-115690761D01*
X75890131Y-115511586D01*
X75987389Y-115277363D01*
X75987610Y-115023750D01*
X75947324Y-114926250D01*
X82062390Y-114926250D01*
X82159239Y-115160643D01*
X82308670Y-115310335D01*
X82257730Y-115433013D01*
X82257509Y-115686626D01*
X82354358Y-115921019D01*
X82533533Y-116100507D01*
X82767756Y-116197765D01*
X83021369Y-116197986D01*
X83255762Y-116101137D01*
X83383369Y-115973752D01*
X96512390Y-115973752D01*
X96609239Y-116208145D01*
X96788414Y-116387633D01*
X97022637Y-116484891D01*
X97276250Y-116485112D01*
X97510643Y-116388263D01*
X97690131Y-116209088D01*
X97787389Y-115974865D01*
X97787610Y-115721252D01*
X97690761Y-115486859D01*
X97511586Y-115307371D01*
X97277363Y-115210113D01*
X97023750Y-115209892D01*
X96789357Y-115306741D01*
X96609869Y-115485916D01*
X96512611Y-115720139D01*
X96512390Y-115973752D01*
X83383369Y-115973752D01*
X83435250Y-115921962D01*
X83532508Y-115687739D01*
X83532729Y-115434126D01*
X83435880Y-115199733D01*
X83286449Y-115050041D01*
X83337389Y-114927363D01*
X83337610Y-114673750D01*
X83240761Y-114439357D01*
X83061586Y-114259869D01*
X82827363Y-114162611D01*
X82573750Y-114162390D01*
X82339357Y-114259239D01*
X82159869Y-114438414D01*
X82062611Y-114672637D01*
X82062390Y-114926250D01*
X75947324Y-114926250D01*
X75890761Y-114789357D01*
X75711586Y-114609869D01*
X75477363Y-114512611D01*
X75322831Y-114512476D01*
X75337411Y-114477363D01*
X75337632Y-114223750D01*
X75240783Y-113989357D01*
X75061608Y-113809869D01*
X75038061Y-113800092D01*
X75060643Y-113790761D01*
X75224682Y-113627008D01*
X75259239Y-113710643D01*
X75438414Y-113890131D01*
X75672637Y-113987389D01*
X75926250Y-113987610D01*
X76160643Y-113890761D01*
X76325429Y-113726263D01*
X76472637Y-113787389D01*
X76726250Y-113787610D01*
X76960643Y-113690761D01*
X77075354Y-113576250D01*
X77912384Y-113576250D01*
X78009233Y-113810643D01*
X78188408Y-113990131D01*
X78422631Y-114087389D01*
X78676244Y-114087610D01*
X78910637Y-113990761D01*
X79090125Y-113811586D01*
X79187383Y-113577363D01*
X79187383Y-113576250D01*
X94639858Y-113576250D01*
X94736707Y-113810643D01*
X94775466Y-113849470D01*
X94751608Y-113873286D01*
X94654350Y-114107509D01*
X94654129Y-114361122D01*
X94750978Y-114595515D01*
X94930153Y-114775003D01*
X95164376Y-114872261D01*
X95417989Y-114872482D01*
X95652382Y-114775633D01*
X95831870Y-114596458D01*
X95929128Y-114362235D01*
X95929349Y-114108622D01*
X95832500Y-113874229D01*
X95793741Y-113835402D01*
X95817599Y-113811586D01*
X95914857Y-113577363D01*
X95915078Y-113323750D01*
X95818229Y-113089357D01*
X95639054Y-112909869D01*
X95404831Y-112812611D01*
X95151218Y-112812390D01*
X94916825Y-112909239D01*
X94737337Y-113088414D01*
X94640079Y-113322637D01*
X94639858Y-113576250D01*
X79187383Y-113576250D01*
X79187604Y-113323750D01*
X79090755Y-113089357D01*
X79033572Y-113032074D01*
X79077770Y-113032113D01*
X79312163Y-112935264D01*
X79491651Y-112756089D01*
X79588909Y-112521866D01*
X79589130Y-112268253D01*
X79492281Y-112033860D01*
X79325834Y-111867122D01*
X79510643Y-111790761D01*
X79690131Y-111611586D01*
X79787389Y-111377363D01*
X79787610Y-111123750D01*
X79690761Y-110889357D01*
X79546912Y-110745256D01*
X79606029Y-110602885D01*
X79609235Y-110610643D01*
X79788410Y-110790131D01*
X80022633Y-110887389D01*
X80276246Y-110887610D01*
X80510639Y-110790761D01*
X80690127Y-110611586D01*
X80787385Y-110377363D01*
X80787463Y-110287533D01*
X80876250Y-110287610D01*
X81110643Y-110190761D01*
X81290131Y-110011586D01*
X81387389Y-109777363D01*
X81387610Y-109523750D01*
X81290761Y-109289357D01*
X81170803Y-109169189D01*
X81360643Y-109090749D01*
X81462536Y-108989033D01*
X81588414Y-109115131D01*
X81822637Y-109212389D01*
X82076250Y-109212610D01*
X82262879Y-109135497D01*
X82209869Y-109188414D01*
X82112611Y-109422637D01*
X82112598Y-109437591D01*
X82040263Y-109437528D01*
X81805870Y-109534377D01*
X81626382Y-109713552D01*
X81529124Y-109947775D01*
X81528903Y-110201388D01*
X81625752Y-110435781D01*
X81752252Y-110562502D01*
X81623750Y-110562390D01*
X81389357Y-110659239D01*
X81209869Y-110838414D01*
X81112611Y-111072637D01*
X81112390Y-111326250D01*
X81209239Y-111560643D01*
X81388414Y-111740131D01*
X81622637Y-111837389D01*
X81876250Y-111837610D01*
X82110643Y-111740761D01*
X82290131Y-111561586D01*
X82387389Y-111327363D01*
X82387610Y-111073750D01*
X82290761Y-110839357D01*
X82164261Y-110712636D01*
X82292763Y-110712748D01*
X82381124Y-110676238D01*
X94012390Y-110676238D01*
X94109239Y-110910631D01*
X94288414Y-111090119D01*
X94522637Y-111187377D01*
X94776250Y-111187598D01*
X95010643Y-111090749D01*
X95190131Y-110911574D01*
X95287389Y-110677351D01*
X95287610Y-110423738D01*
X95190761Y-110189345D01*
X95011586Y-110009857D01*
X94777363Y-109912599D01*
X94523750Y-109912378D01*
X94289357Y-110009227D01*
X94109869Y-110188402D01*
X94012611Y-110422625D01*
X94012390Y-110676238D01*
X82381124Y-110676238D01*
X82527156Y-110615899D01*
X82706644Y-110436724D01*
X82803902Y-110202501D01*
X82803915Y-110187547D01*
X82876250Y-110187610D01*
X83110643Y-110090761D01*
X83290131Y-109911586D01*
X83367089Y-109726250D01*
X89312380Y-109726250D01*
X89409229Y-109960643D01*
X89588404Y-110140131D01*
X89822627Y-110237389D01*
X90076240Y-110237610D01*
X90310633Y-110140761D01*
X90490121Y-109961586D01*
X90587379Y-109727363D01*
X90587416Y-109684967D01*
X90657665Y-109854983D01*
X90836840Y-110034471D01*
X91071063Y-110131729D01*
X91324676Y-110131950D01*
X91559069Y-110035101D01*
X91738557Y-109855926D01*
X91835815Y-109621703D01*
X91836036Y-109368090D01*
X91739187Y-109133697D01*
X91560012Y-108954209D01*
X91325789Y-108856951D01*
X91167664Y-108856813D01*
X91167675Y-108844720D01*
X91070826Y-108610327D01*
X90891651Y-108430839D01*
X90657428Y-108333581D01*
X90403815Y-108333360D01*
X90169422Y-108430209D01*
X89989934Y-108609384D01*
X89892676Y-108843607D01*
X89892572Y-108962450D01*
X89823740Y-108962390D01*
X89589347Y-109059239D01*
X89409859Y-109238414D01*
X89312601Y-109472637D01*
X89312380Y-109726250D01*
X83367089Y-109726250D01*
X83387389Y-109677363D01*
X83387610Y-109423750D01*
X83290761Y-109189357D01*
X83139159Y-109037491D01*
X83276250Y-109037610D01*
X83510643Y-108940761D01*
X83690131Y-108761586D01*
X83787389Y-108527363D01*
X83787610Y-108273750D01*
X83690761Y-108039357D01*
X83511586Y-107859869D01*
X83277363Y-107762611D01*
X83023750Y-107762390D01*
X82789357Y-107859239D01*
X82609869Y-108038414D01*
X82513729Y-108269944D01*
X82490761Y-108214357D01*
X82311586Y-108034869D01*
X82077363Y-107937611D01*
X81823750Y-107937390D01*
X81589357Y-108034239D01*
X81487464Y-108135955D01*
X81361586Y-108009857D01*
X81127363Y-107912599D01*
X80873750Y-107912378D01*
X80639357Y-108009227D01*
X80459869Y-108188402D01*
X80362611Y-108422625D01*
X80362390Y-108676238D01*
X80459239Y-108910631D01*
X80579197Y-109030799D01*
X80389357Y-109109239D01*
X80209869Y-109288414D01*
X80112611Y-109522637D01*
X80112533Y-109612467D01*
X80023746Y-109612390D01*
X79789353Y-109709239D01*
X79609865Y-109888414D01*
X79543967Y-110047115D01*
X79540761Y-110039357D01*
X79361586Y-109859869D01*
X79127363Y-109762611D01*
X78873750Y-109762390D01*
X78639357Y-109859239D01*
X78459869Y-110038414D01*
X78362611Y-110272637D01*
X78362390Y-110526250D01*
X78459239Y-110760643D01*
X78603088Y-110904744D01*
X78512611Y-111122637D01*
X78512390Y-111376250D01*
X78609239Y-111610643D01*
X78775686Y-111777381D01*
X78590877Y-111853742D01*
X78411389Y-112032917D01*
X78314131Y-112267140D01*
X78313910Y-112520753D01*
X78410759Y-112755146D01*
X78467942Y-112812429D01*
X78423744Y-112812390D01*
X78189351Y-112909239D01*
X78009863Y-113088414D01*
X77912605Y-113322637D01*
X77912384Y-113576250D01*
X77075354Y-113576250D01*
X77140131Y-113511586D01*
X77237389Y-113277363D01*
X77237610Y-113023750D01*
X77140761Y-112789357D01*
X76961586Y-112609869D01*
X76727363Y-112512611D01*
X76473750Y-112512390D01*
X76239357Y-112609239D01*
X76074571Y-112773737D01*
X75927363Y-112712611D01*
X75673750Y-112712390D01*
X75439357Y-112809239D01*
X75275318Y-112972992D01*
X75240761Y-112889357D01*
X75061586Y-112709869D01*
X74827363Y-112612611D01*
X74573750Y-112612390D01*
X74339357Y-112709239D01*
X74159869Y-112888414D01*
X74062611Y-113122637D01*
X74062390Y-113376250D01*
X71137520Y-113376250D01*
X71137610Y-113273750D01*
X71040761Y-113039357D01*
X70861586Y-112859869D01*
X70627363Y-112762611D01*
X70437446Y-112762446D01*
X70437610Y-112573750D01*
X70340761Y-112339357D01*
X70161586Y-112159869D01*
X69927363Y-112062611D01*
X69673750Y-112062390D01*
X69439357Y-112159239D01*
X69400073Y-112198455D01*
X69459561Y-112055191D01*
X69459782Y-111801578D01*
X69362933Y-111567185D01*
X69183758Y-111387697D01*
X68949535Y-111290439D01*
X68695922Y-111290218D01*
X68461529Y-111387067D01*
X68282041Y-111566242D01*
X68184783Y-111800465D01*
X68184562Y-112054078D01*
X52277501Y-112054078D01*
X52277501Y-111937501D01*
X52247814Y-111788254D01*
X52163273Y-111661729D01*
X51627794Y-111126250D01*
X61262390Y-111126250D01*
X61359239Y-111360643D01*
X61538414Y-111540131D01*
X61772637Y-111637389D01*
X62026250Y-111637610D01*
X62260643Y-111540761D01*
X62440131Y-111361586D01*
X62537389Y-111127363D01*
X62537610Y-110873750D01*
X62440761Y-110639357D01*
X62261586Y-110459869D01*
X62027363Y-110362611D01*
X61773750Y-110362390D01*
X61539357Y-110459239D01*
X61359869Y-110638414D01*
X61262611Y-110872637D01*
X61262390Y-111126250D01*
X51627794Y-111126250D01*
X50340000Y-109838456D01*
X50340000Y-108983212D01*
X53669361Y-108983212D01*
X53766210Y-109217605D01*
X53945385Y-109397093D01*
X54179608Y-109494351D01*
X54433221Y-109494572D01*
X54667614Y-109397723D01*
X54847102Y-109218548D01*
X54944360Y-108984325D01*
X54944581Y-108730712D01*
X54920401Y-108672191D01*
X64576603Y-108672191D01*
X64673452Y-108906584D01*
X64852627Y-109086072D01*
X65086850Y-109183330D01*
X65340463Y-109183551D01*
X65366041Y-109172983D01*
X65389192Y-109229013D01*
X65568367Y-109408501D01*
X65802590Y-109505759D01*
X66056203Y-109505980D01*
X66075689Y-109497929D01*
X66064602Y-109524628D01*
X66064381Y-109778241D01*
X66161230Y-110012634D01*
X66340405Y-110192122D01*
X66574628Y-110289380D01*
X66828241Y-110289601D01*
X66860538Y-110276256D01*
X69562390Y-110276256D01*
X69659239Y-110510649D01*
X69838414Y-110690137D01*
X70072637Y-110787395D01*
X70161075Y-110787472D01*
X70009869Y-110938414D01*
X69912611Y-111172637D01*
X69912390Y-111426250D01*
X70009239Y-111660643D01*
X70188414Y-111840131D01*
X70422637Y-111937389D01*
X70676250Y-111937610D01*
X70910643Y-111840761D01*
X70949955Y-111801518D01*
X71038414Y-111890131D01*
X71272637Y-111987389D01*
X71410862Y-111987509D01*
X71359869Y-112038414D01*
X71262611Y-112272637D01*
X71262390Y-112526250D01*
X71359239Y-112760643D01*
X71538414Y-112940131D01*
X71772637Y-113037389D01*
X72026250Y-113037610D01*
X72260643Y-112940761D01*
X72440131Y-112761586D01*
X72537389Y-112527363D01*
X72537610Y-112273750D01*
X72440761Y-112039357D01*
X72261586Y-111859869D01*
X72027363Y-111762611D01*
X71889138Y-111762491D01*
X71940131Y-111711586D01*
X72037389Y-111477363D01*
X72037610Y-111223750D01*
X71940761Y-110989357D01*
X71761586Y-110809869D01*
X71527363Y-110712611D01*
X71273750Y-110712390D01*
X71039357Y-110809239D01*
X71000045Y-110848482D01*
X70911586Y-110759869D01*
X70677363Y-110662611D01*
X70588925Y-110662534D01*
X70740131Y-110511592D01*
X70837389Y-110277369D01*
X70837433Y-110226250D01*
X77062390Y-110226250D01*
X77159239Y-110460643D01*
X77338414Y-110640131D01*
X77572637Y-110737389D01*
X77826250Y-110737610D01*
X78060643Y-110640761D01*
X78240131Y-110461586D01*
X78337389Y-110227363D01*
X78337610Y-109973750D01*
X78240761Y-109739357D01*
X78061586Y-109559869D01*
X77827363Y-109462611D01*
X77573750Y-109462390D01*
X77339357Y-109559239D01*
X77159869Y-109738414D01*
X77062611Y-109972637D01*
X77062390Y-110226250D01*
X70837433Y-110226250D01*
X70837610Y-110023756D01*
X70740761Y-109789363D01*
X70561586Y-109609875D01*
X70327363Y-109512617D01*
X70073750Y-109512396D01*
X69839357Y-109609245D01*
X69659869Y-109788420D01*
X69562611Y-110022643D01*
X69562390Y-110276256D01*
X66860538Y-110276256D01*
X67062634Y-110192752D01*
X67242122Y-110013577D01*
X67339380Y-109779354D01*
X67339601Y-109525741D01*
X67329482Y-109501250D01*
X74987390Y-109501250D01*
X75084239Y-109735643D01*
X75263414Y-109915131D01*
X75497637Y-110012389D01*
X75751250Y-110012610D01*
X75985643Y-109915761D01*
X76165131Y-109736586D01*
X76262389Y-109502363D01*
X76262610Y-109248750D01*
X76165761Y-109014357D01*
X75986586Y-108834869D01*
X75752363Y-108737611D01*
X75498750Y-108737390D01*
X75264357Y-108834239D01*
X75084869Y-109013414D01*
X74987611Y-109247637D01*
X74987390Y-109501250D01*
X67329482Y-109501250D01*
X67242752Y-109291348D01*
X67063577Y-109111860D01*
X66829354Y-109014602D01*
X66575741Y-109014381D01*
X66556255Y-109022432D01*
X66567342Y-108995733D01*
X66567421Y-108905202D01*
X66685093Y-108954064D01*
X66938706Y-108954285D01*
X67173099Y-108857436D01*
X67204339Y-108826250D01*
X68212390Y-108826250D01*
X68309239Y-109060643D01*
X68488414Y-109240131D01*
X68722637Y-109337389D01*
X68976250Y-109337610D01*
X69210643Y-109240761D01*
X69390131Y-109061586D01*
X69425565Y-108976250D01*
X71462390Y-108976250D01*
X71559239Y-109210643D01*
X71738414Y-109390131D01*
X71972637Y-109487389D01*
X72226250Y-109487610D01*
X72460643Y-109390761D01*
X72640131Y-109211586D01*
X72737389Y-108977363D01*
X72737610Y-108723750D01*
X72640761Y-108489357D01*
X72461586Y-108309869D01*
X72227363Y-108212611D01*
X71973750Y-108212390D01*
X71739357Y-108309239D01*
X71559869Y-108488414D01*
X71462611Y-108722637D01*
X71462390Y-108976250D01*
X69425565Y-108976250D01*
X69487389Y-108827363D01*
X69487610Y-108573750D01*
X69390761Y-108339357D01*
X69211586Y-108159869D01*
X68977363Y-108062611D01*
X68723750Y-108062390D01*
X68489357Y-108159239D01*
X68309869Y-108338414D01*
X68212611Y-108572637D01*
X68212390Y-108826250D01*
X67204339Y-108826250D01*
X67352587Y-108678261D01*
X67449845Y-108444038D01*
X67450066Y-108190425D01*
X67353217Y-107956032D01*
X67174042Y-107776544D01*
X66939819Y-107679286D01*
X66686206Y-107679065D01*
X66451813Y-107775914D01*
X66272325Y-107955089D01*
X66175067Y-108189312D01*
X66174988Y-108279843D01*
X66057316Y-108230981D01*
X65803703Y-108230760D01*
X65778125Y-108241328D01*
X65754974Y-108185298D01*
X65575799Y-108005810D01*
X65341576Y-107908552D01*
X65087963Y-107908331D01*
X64853570Y-108005180D01*
X64674082Y-108184355D01*
X64576824Y-108418578D01*
X64576603Y-108672191D01*
X54920401Y-108672191D01*
X54847732Y-108496319D01*
X54810983Y-108459505D01*
X55052593Y-108459716D01*
X55286986Y-108362867D01*
X55358234Y-108291744D01*
X55583169Y-108385145D01*
X55836782Y-108385366D01*
X56071175Y-108288517D01*
X56250663Y-108109342D01*
X56291957Y-108009895D01*
X58412390Y-108009895D01*
X58509239Y-108244288D01*
X58688414Y-108423776D01*
X58922637Y-108521034D01*
X59176250Y-108521255D01*
X59410643Y-108424406D01*
X59590131Y-108245231D01*
X59687389Y-108011008D01*
X59687610Y-107757395D01*
X59590761Y-107523002D01*
X59411586Y-107343514D01*
X59177363Y-107246256D01*
X58923750Y-107246035D01*
X58689357Y-107342884D01*
X58509869Y-107522059D01*
X58412611Y-107756282D01*
X58412390Y-108009895D01*
X56291957Y-108009895D01*
X56347921Y-107875119D01*
X56348142Y-107621506D01*
X56251293Y-107387113D01*
X56072118Y-107207625D01*
X55837895Y-107110367D01*
X55584282Y-107110146D01*
X55349889Y-107206995D01*
X55278641Y-107278118D01*
X55085056Y-107197735D01*
X55085164Y-107073759D01*
X54988315Y-106839366D01*
X54861330Y-106712159D01*
X55094604Y-106615772D01*
X55212940Y-106497642D01*
X55338414Y-106623335D01*
X55572637Y-106720593D01*
X55826250Y-106720814D01*
X56060643Y-106623965D01*
X56240131Y-106444790D01*
X56270054Y-106372726D01*
X58525957Y-106372726D01*
X58622806Y-106607119D01*
X58801981Y-106786607D01*
X59036204Y-106883865D01*
X59289817Y-106884086D01*
X59524210Y-106787237D01*
X59703698Y-106608062D01*
X59796457Y-106384672D01*
X62298222Y-106384672D01*
X62395071Y-106619065D01*
X62574246Y-106798553D01*
X62808469Y-106895811D01*
X63062082Y-106896032D01*
X63296475Y-106799183D01*
X63433528Y-106662369D01*
X63573665Y-106720559D01*
X63827278Y-106720780D01*
X64061671Y-106623931D01*
X64241159Y-106444756D01*
X64338417Y-106210533D01*
X64338638Y-105956920D01*
X64241789Y-105722527D01*
X64062614Y-105543039D01*
X63828391Y-105445781D01*
X63574778Y-105445560D01*
X63340385Y-105542409D01*
X63203332Y-105679223D01*
X63063195Y-105621033D01*
X62809582Y-105620812D01*
X62575189Y-105717661D01*
X62395701Y-105896836D01*
X62298443Y-106131059D01*
X62298222Y-106384672D01*
X59796457Y-106384672D01*
X59800956Y-106373839D01*
X59801177Y-106120226D01*
X59704328Y-105885833D01*
X59525153Y-105706345D01*
X59290930Y-105609087D01*
X59037317Y-105608866D01*
X58802924Y-105705715D01*
X58623436Y-105884890D01*
X58526178Y-106119113D01*
X58525957Y-106372726D01*
X56270054Y-106372726D01*
X56337389Y-106210567D01*
X56337610Y-105956954D01*
X56240761Y-105722561D01*
X56061586Y-105543073D01*
X55827363Y-105445815D01*
X55573750Y-105445594D01*
X55339357Y-105542443D01*
X55221021Y-105660573D01*
X55098179Y-105537517D01*
X55205028Y-105537610D01*
X55439421Y-105440761D01*
X55618909Y-105261586D01*
X55716167Y-105027363D01*
X55716388Y-104773750D01*
X55619539Y-104539357D01*
X55456717Y-104376250D01*
X64062362Y-104376250D01*
X64159211Y-104610643D01*
X64338386Y-104790131D01*
X64572609Y-104887389D01*
X64826222Y-104887610D01*
X65030700Y-104803122D01*
X65171560Y-104944228D01*
X65321276Y-105006396D01*
X65317931Y-105014452D01*
X65317772Y-105196879D01*
X65166850Y-105259239D01*
X64987362Y-105438414D01*
X64890104Y-105672637D01*
X64889883Y-105926250D01*
X64986732Y-106160643D01*
X65165907Y-106340131D01*
X65400130Y-106437389D01*
X65653743Y-106437610D01*
X65708691Y-106414906D01*
X65534880Y-106588414D01*
X65437622Y-106822637D01*
X65437401Y-107076250D01*
X65534250Y-107310643D01*
X65713425Y-107490131D01*
X65947648Y-107587389D01*
X66201261Y-107587610D01*
X66435654Y-107490761D01*
X66615142Y-107311586D01*
X66712400Y-107077363D01*
X66712621Y-106823750D01*
X66639923Y-106647807D01*
X69122448Y-106647807D01*
X69219297Y-106882200D01*
X69398472Y-107061688D01*
X69632695Y-107158946D01*
X69886308Y-107159167D01*
X70120701Y-107062318D01*
X70300189Y-106883143D01*
X70397447Y-106648920D01*
X70397668Y-106395307D01*
X70348475Y-106276250D01*
X71262390Y-106276250D01*
X71359239Y-106510643D01*
X71538414Y-106690131D01*
X71772637Y-106787389D01*
X72026250Y-106787610D01*
X72260643Y-106690761D01*
X72266129Y-106685285D01*
X72359245Y-106910643D01*
X72538420Y-107090131D01*
X72563335Y-107100476D01*
X72512609Y-107222637D01*
X72512388Y-107476250D01*
X72609237Y-107710643D01*
X72788412Y-107890131D01*
X73022635Y-107987389D01*
X73276248Y-107987610D01*
X73510641Y-107890761D01*
X73524954Y-107876473D01*
X73638414Y-107990131D01*
X73872637Y-108087389D01*
X74126250Y-108087610D01*
X74360643Y-107990761D01*
X74400223Y-107951250D01*
X77037390Y-107951250D01*
X77134239Y-108185643D01*
X77313414Y-108365131D01*
X77547637Y-108462389D01*
X77801250Y-108462610D01*
X78001056Y-108380052D01*
X77962611Y-108472637D01*
X77962390Y-108726250D01*
X78059239Y-108960643D01*
X78238414Y-109140131D01*
X78472637Y-109237389D01*
X78726250Y-109237610D01*
X78960643Y-109140761D01*
X79140131Y-108961586D01*
X79237389Y-108727363D01*
X79237610Y-108473750D01*
X79140761Y-108239357D01*
X78961586Y-108059869D01*
X78727363Y-107962611D01*
X78473750Y-107962390D01*
X78273944Y-108044948D01*
X78312389Y-107952363D01*
X78312610Y-107698750D01*
X78215761Y-107464357D01*
X78036586Y-107284869D01*
X77824062Y-107196621D01*
X79499890Y-107196621D01*
X79596739Y-107431014D01*
X79775914Y-107610502D01*
X80010137Y-107707760D01*
X80263750Y-107707981D01*
X80498143Y-107611132D01*
X80677631Y-107431957D01*
X80774889Y-107197734D01*
X80775110Y-106944121D01*
X80678261Y-106709728D01*
X80499086Y-106530240D01*
X80264863Y-106432982D01*
X80011250Y-106432761D01*
X79776857Y-106529610D01*
X79597369Y-106708785D01*
X79500111Y-106943008D01*
X79499890Y-107196621D01*
X77824062Y-107196621D01*
X77802363Y-107187611D01*
X77548750Y-107187390D01*
X77314357Y-107284239D01*
X77134869Y-107463414D01*
X77037611Y-107697637D01*
X77037390Y-107951250D01*
X74400223Y-107951250D01*
X74540131Y-107811586D01*
X74637389Y-107577363D01*
X74637610Y-107323750D01*
X74540761Y-107089357D01*
X74361586Y-106909869D01*
X74127363Y-106812611D01*
X73873750Y-106812390D01*
X73639357Y-106909239D01*
X73625044Y-106923527D01*
X73511584Y-106809869D01*
X73486669Y-106799524D01*
X73537395Y-106677363D01*
X73537616Y-106423750D01*
X73440767Y-106189357D01*
X73261592Y-106009869D01*
X73060216Y-105926250D01*
X77562390Y-105926250D01*
X77659239Y-106160643D01*
X77838414Y-106340131D01*
X78072637Y-106437389D01*
X78326250Y-106437610D01*
X78560643Y-106340761D01*
X78647951Y-106253605D01*
X80712390Y-106253605D01*
X80809239Y-106487998D01*
X80988414Y-106667486D01*
X81053392Y-106694467D01*
X80906822Y-106840781D01*
X80809564Y-107075004D01*
X80809343Y-107328617D01*
X80906192Y-107563010D01*
X81085367Y-107742498D01*
X81319590Y-107839756D01*
X81573203Y-107839977D01*
X81807596Y-107743128D01*
X81824503Y-107726250D01*
X83812390Y-107726250D01*
X83909239Y-107960643D01*
X84088414Y-108140131D01*
X84322637Y-108237389D01*
X84576250Y-108237610D01*
X84810643Y-108140761D01*
X84990131Y-107961586D01*
X85087389Y-107727363D01*
X85087610Y-107473750D01*
X84990761Y-107239357D01*
X84811586Y-107059869D01*
X84577363Y-106962611D01*
X84323750Y-106962390D01*
X84089357Y-107059239D01*
X83909869Y-107238414D01*
X83812611Y-107472637D01*
X83812390Y-107726250D01*
X81824503Y-107726250D01*
X81987084Y-107563953D01*
X81989361Y-107558469D01*
X82072635Y-107593047D01*
X82326248Y-107593268D01*
X82560641Y-107496419D01*
X82740129Y-107317244D01*
X82837387Y-107083021D01*
X82837608Y-106829408D01*
X82740759Y-106595015D01*
X82561584Y-106415527D01*
X82327361Y-106318269D01*
X82073748Y-106318048D01*
X81937760Y-106374237D01*
X81980556Y-106271173D01*
X86157313Y-106271173D01*
X86254162Y-106505566D01*
X86433337Y-106685054D01*
X86667560Y-106782312D01*
X86921173Y-106782533D01*
X87155566Y-106685684D01*
X87335054Y-106506509D01*
X87432312Y-106272286D01*
X87432533Y-106018673D01*
X87335684Y-105784280D01*
X87156509Y-105604792D01*
X86922286Y-105507534D01*
X86668673Y-105507313D01*
X86434280Y-105604162D01*
X86254792Y-105783337D01*
X86157534Y-106017560D01*
X86157313Y-106271173D01*
X81980556Y-106271173D01*
X81987389Y-106254718D01*
X81987610Y-106001105D01*
X81890761Y-105766712D01*
X81711586Y-105587224D01*
X81477363Y-105489966D01*
X81223750Y-105489745D01*
X80989357Y-105586594D01*
X80809869Y-105765769D01*
X80712611Y-105999992D01*
X80712390Y-106253605D01*
X78647951Y-106253605D01*
X78740131Y-106161586D01*
X78837389Y-105927363D01*
X78837610Y-105673750D01*
X78740761Y-105439357D01*
X78591607Y-105289942D01*
X78710635Y-105240761D01*
X78825346Y-105126250D01*
X79662390Y-105126250D01*
X79759239Y-105360643D01*
X79938414Y-105540131D01*
X80172637Y-105637389D01*
X80426250Y-105637610D01*
X80660643Y-105540761D01*
X80840131Y-105361586D01*
X80937389Y-105127363D01*
X80937610Y-104873750D01*
X80840761Y-104639357D01*
X80661586Y-104459869D01*
X80427363Y-104362611D01*
X80173750Y-104362390D01*
X79939357Y-104459239D01*
X79759869Y-104638414D01*
X79662611Y-104872637D01*
X79662390Y-105126250D01*
X78825346Y-105126250D01*
X78890123Y-105061586D01*
X78987381Y-104827363D01*
X78987602Y-104573750D01*
X78890753Y-104339357D01*
X78711578Y-104159869D01*
X78477355Y-104062611D01*
X78223742Y-104062390D01*
X77989349Y-104159239D01*
X77809861Y-104338414D01*
X77712603Y-104572637D01*
X77712382Y-104826250D01*
X77809231Y-105060643D01*
X77958385Y-105210058D01*
X77839357Y-105259239D01*
X77659869Y-105438414D01*
X77562611Y-105672637D01*
X77562390Y-105926250D01*
X73060216Y-105926250D01*
X73027369Y-105912611D01*
X72773756Y-105912390D01*
X72539363Y-106009239D01*
X72533877Y-106014715D01*
X72504388Y-105943346D01*
X72510643Y-105940761D01*
X72690131Y-105761586D01*
X72787389Y-105527363D01*
X72787610Y-105273750D01*
X72690761Y-105039357D01*
X72511586Y-104859869D01*
X72277363Y-104762611D01*
X72023750Y-104762390D01*
X71789357Y-104859239D01*
X71609869Y-105038414D01*
X71512611Y-105272637D01*
X71512390Y-105526250D01*
X71545612Y-105606654D01*
X71539357Y-105609239D01*
X71359869Y-105788414D01*
X71262611Y-106022637D01*
X71262390Y-106276250D01*
X70348475Y-106276250D01*
X70300819Y-106160914D01*
X70121644Y-105981426D01*
X69887421Y-105884168D01*
X69633808Y-105883947D01*
X69399415Y-105980796D01*
X69219927Y-106159971D01*
X69122669Y-106394194D01*
X69122448Y-106647807D01*
X66639923Y-106647807D01*
X66615772Y-106589357D01*
X66550267Y-106523738D01*
X66683448Y-106523854D01*
X66917841Y-106427005D01*
X67097329Y-106247830D01*
X67194587Y-106013607D01*
X67194808Y-105759994D01*
X67123508Y-105587433D01*
X67326241Y-105587610D01*
X67560634Y-105490761D01*
X67740122Y-105311586D01*
X67837380Y-105077363D01*
X67837601Y-104823750D01*
X67740752Y-104589357D01*
X67577930Y-104426250D01*
X68710833Y-104426250D01*
X68807682Y-104660643D01*
X68986857Y-104840131D01*
X69221080Y-104937389D01*
X69474693Y-104937610D01*
X69709086Y-104840761D01*
X69740848Y-104809055D01*
X69771870Y-104840131D01*
X70006093Y-104937389D01*
X70259706Y-104937610D01*
X70336595Y-104905840D01*
X70359239Y-104960643D01*
X70538414Y-105140131D01*
X70772637Y-105237389D01*
X71026250Y-105237610D01*
X71260643Y-105140761D01*
X71440131Y-104961586D01*
X71537389Y-104727363D01*
X71537610Y-104473750D01*
X71440761Y-104239357D01*
X71261586Y-104059869D01*
X71027363Y-103962611D01*
X70773750Y-103962390D01*
X70696861Y-103994160D01*
X70674217Y-103939357D01*
X70495042Y-103759869D01*
X70260819Y-103662611D01*
X70007206Y-103662390D01*
X69772813Y-103759239D01*
X69741051Y-103790945D01*
X69710029Y-103759869D01*
X69475806Y-103662611D01*
X69222193Y-103662390D01*
X68987800Y-103759239D01*
X68808312Y-103938414D01*
X68711054Y-104172637D01*
X68710833Y-104426250D01*
X67577930Y-104426250D01*
X67561577Y-104409869D01*
X67327354Y-104312611D01*
X67073741Y-104312390D01*
X66839348Y-104409239D01*
X66659860Y-104588414D01*
X66562602Y-104822637D01*
X66562498Y-104941914D01*
X66496081Y-104781172D01*
X66316906Y-104601684D01*
X66167190Y-104539516D01*
X66170535Y-104531460D01*
X66170756Y-104277847D01*
X66073907Y-104043454D01*
X65894732Y-103863966D01*
X65660509Y-103766708D01*
X65406896Y-103766487D01*
X65202418Y-103850975D01*
X65061558Y-103709869D01*
X64980595Y-103676250D01*
X66562390Y-103676250D01*
X66659239Y-103910643D01*
X66838414Y-104090131D01*
X67072637Y-104187389D01*
X67326250Y-104187610D01*
X67560643Y-104090761D01*
X67740131Y-103911586D01*
X67837389Y-103677363D01*
X67837610Y-103423750D01*
X67740761Y-103189357D01*
X67627852Y-103076250D01*
X67712390Y-103076250D01*
X67809239Y-103310643D01*
X67988414Y-103490131D01*
X68222637Y-103587389D01*
X68476250Y-103587610D01*
X68710643Y-103490761D01*
X68890131Y-103311586D01*
X68967089Y-103126250D01*
X71562390Y-103126250D01*
X71659239Y-103360643D01*
X71698439Y-103399911D01*
X71659869Y-103438414D01*
X71562611Y-103672637D01*
X71562390Y-103926250D01*
X71659239Y-104160643D01*
X71838414Y-104340131D01*
X72072637Y-104437389D01*
X72326250Y-104437610D01*
X72560643Y-104340761D01*
X72740131Y-104161586D01*
X72837389Y-103927363D01*
X72837610Y-103673750D01*
X72740761Y-103439357D01*
X72727677Y-103426250D01*
X76162390Y-103426250D01*
X76259239Y-103660643D01*
X76438414Y-103840131D01*
X76672637Y-103937389D01*
X76926250Y-103937610D01*
X77160643Y-103840761D01*
X77340131Y-103661586D01*
X77437389Y-103427363D01*
X77437610Y-103173750D01*
X77340761Y-102939357D01*
X77161586Y-102759869D01*
X76927363Y-102662611D01*
X76673750Y-102662390D01*
X76439357Y-102759239D01*
X76259869Y-102938414D01*
X76162611Y-103172637D01*
X76162390Y-103426250D01*
X72727677Y-103426250D01*
X72701561Y-103400089D01*
X72740131Y-103361586D01*
X72837389Y-103127363D01*
X72837610Y-102873750D01*
X72740761Y-102639357D01*
X72561586Y-102459869D01*
X72327363Y-102362611D01*
X72073750Y-102362390D01*
X71839357Y-102459239D01*
X71659869Y-102638414D01*
X71562611Y-102872637D01*
X71562390Y-103126250D01*
X68967089Y-103126250D01*
X68987389Y-103077363D01*
X68987610Y-102823750D01*
X68890761Y-102589357D01*
X68711586Y-102409869D01*
X68477363Y-102312611D01*
X68223750Y-102312390D01*
X67989357Y-102409239D01*
X67809869Y-102588414D01*
X67712611Y-102822637D01*
X67712390Y-103076250D01*
X67627852Y-103076250D01*
X67561586Y-103009869D01*
X67327363Y-102912611D01*
X67073750Y-102912390D01*
X66839357Y-103009239D01*
X66659869Y-103188414D01*
X66562611Y-103422637D01*
X66562390Y-103676250D01*
X64980595Y-103676250D01*
X64827335Y-103612611D01*
X64573722Y-103612390D01*
X64339329Y-103709239D01*
X64159841Y-103888414D01*
X64062583Y-104122637D01*
X64062362Y-104376250D01*
X55456717Y-104376250D01*
X55440364Y-104359869D01*
X55280666Y-104293556D01*
X55287389Y-104277365D01*
X55287610Y-104023752D01*
X55190761Y-103789359D01*
X55011586Y-103609871D01*
X54859360Y-103546661D01*
X54981034Y-103546767D01*
X55215427Y-103449918D01*
X55394915Y-103270743D01*
X55492173Y-103036520D01*
X55492394Y-102782907D01*
X55406998Y-102576232D01*
X65212390Y-102576232D01*
X65309239Y-102810625D01*
X65488414Y-102990113D01*
X65722637Y-103087371D01*
X65976250Y-103087592D01*
X66210643Y-102990743D01*
X66390131Y-102811568D01*
X66487389Y-102577345D01*
X66487610Y-102323732D01*
X66467991Y-102276250D01*
X79162390Y-102276250D01*
X79259239Y-102510643D01*
X79438414Y-102690131D01*
X79672637Y-102787389D01*
X79926250Y-102787610D01*
X80074752Y-102726250D01*
X80462390Y-102726250D01*
X80559239Y-102960643D01*
X80590940Y-102992400D01*
X80559869Y-103023417D01*
X80462611Y-103257640D01*
X80462390Y-103511253D01*
X80559239Y-103745646D01*
X80738414Y-103925134D01*
X80972637Y-104022392D01*
X81226250Y-104022613D01*
X81460643Y-103925764D01*
X81484475Y-103901974D01*
X81523260Y-103940827D01*
X81757483Y-104038085D01*
X82011096Y-104038306D01*
X82245489Y-103941457D01*
X82424977Y-103762282D01*
X82451569Y-103698241D01*
X82530246Y-103888653D01*
X82709421Y-104068141D01*
X82943644Y-104165399D01*
X83197257Y-104165620D01*
X83431650Y-104068771D01*
X83611138Y-103889596D01*
X83708396Y-103655373D01*
X83708617Y-103401760D01*
X83611768Y-103167367D01*
X83432593Y-102987879D01*
X83237450Y-102906849D01*
X83237607Y-102726250D01*
X83712390Y-102726250D01*
X83809239Y-102960643D01*
X83849542Y-103001017D01*
X83827288Y-103023232D01*
X83730030Y-103257455D01*
X83729809Y-103511068D01*
X83826658Y-103745461D01*
X84005833Y-103924949D01*
X84240056Y-104022207D01*
X84493669Y-104022428D01*
X84728062Y-103925579D01*
X84777477Y-103876250D01*
X86635327Y-103876250D01*
X86732176Y-104110643D01*
X86911351Y-104290131D01*
X87145574Y-104387389D01*
X87399187Y-104387610D01*
X87633580Y-104290761D01*
X87813068Y-104111586D01*
X87910326Y-103877363D01*
X87910547Y-103623750D01*
X87901390Y-103601586D01*
X93624129Y-103601586D01*
X93720978Y-103835979D01*
X93900153Y-104015467D01*
X94042962Y-104074767D01*
X94042795Y-104266440D01*
X94139644Y-104500833D01*
X94318819Y-104680321D01*
X94346220Y-104691699D01*
X94312611Y-104772637D01*
X94312390Y-105026250D01*
X94409239Y-105260643D01*
X94470590Y-105322102D01*
X94456807Y-105335861D01*
X94415558Y-105435199D01*
X94173750Y-105434988D01*
X93939357Y-105531837D01*
X93759869Y-105711012D01*
X93662611Y-105945235D01*
X93662390Y-106198848D01*
X93759239Y-106433241D01*
X93938414Y-106612729D01*
X94172637Y-106709987D01*
X94426250Y-106710208D01*
X94660643Y-106613359D01*
X94840131Y-106434184D01*
X94881380Y-106334846D01*
X94962426Y-106334917D01*
X94962390Y-106376250D01*
X94973738Y-106403714D01*
X94839357Y-106459239D01*
X94659869Y-106638414D01*
X94562611Y-106872637D01*
X94562390Y-107126250D01*
X94659239Y-107360643D01*
X94745035Y-107446588D01*
X94687622Y-107503901D01*
X94590364Y-107738124D01*
X94590143Y-107991737D01*
X94686992Y-108226130D01*
X94704596Y-108243765D01*
X94659871Y-108288412D01*
X94562613Y-108522635D01*
X94562392Y-108776248D01*
X94659241Y-109010641D01*
X94837605Y-109189316D01*
X94799358Y-109281425D01*
X94799137Y-109535038D01*
X94895986Y-109769431D01*
X95075161Y-109948919D01*
X95309384Y-110046177D01*
X95562997Y-110046398D01*
X95797390Y-109949549D01*
X95976878Y-109770374D01*
X96074136Y-109536151D01*
X96074357Y-109282538D01*
X95977508Y-109048145D01*
X95799144Y-108869470D01*
X95837391Y-108777361D01*
X95837612Y-108523748D01*
X95740763Y-108289355D01*
X95723159Y-108271720D01*
X95767884Y-108227073D01*
X95865142Y-107992850D01*
X95865363Y-107739237D01*
X95768514Y-107504844D01*
X95682718Y-107418899D01*
X95740131Y-107361586D01*
X95837389Y-107127363D01*
X95837610Y-106873750D01*
X95826262Y-106846286D01*
X95960643Y-106790761D01*
X96140131Y-106611586D01*
X96237389Y-106377363D01*
X96237610Y-106123750D01*
X96140761Y-105889357D01*
X95961586Y-105709869D01*
X95727363Y-105612611D01*
X95634512Y-105612530D01*
X95634548Y-105571197D01*
X95537699Y-105336804D01*
X95476348Y-105275345D01*
X95490131Y-105261586D01*
X95493125Y-105254375D01*
X95572633Y-105287389D01*
X95826246Y-105287610D01*
X96060639Y-105190761D01*
X96240127Y-105011586D01*
X96337385Y-104777363D01*
X96337606Y-104523750D01*
X96240757Y-104289357D01*
X96061582Y-104109869D01*
X95827359Y-104012611D01*
X95696220Y-104012497D01*
X95774680Y-103934174D01*
X95871938Y-103699951D01*
X95872159Y-103446338D01*
X95775310Y-103211945D01*
X95596135Y-103032457D01*
X95361912Y-102935199D01*
X95108299Y-102934978D01*
X94873906Y-103031827D01*
X94796708Y-103108891D01*
X94623325Y-102935205D01*
X94389102Y-102837947D01*
X94135489Y-102837726D01*
X93901096Y-102934575D01*
X93721608Y-103113750D01*
X93624350Y-103347973D01*
X93624129Y-103601586D01*
X87901390Y-103601586D01*
X87813698Y-103389357D01*
X87634523Y-103209869D01*
X87400300Y-103112611D01*
X87146687Y-103112390D01*
X86912294Y-103209239D01*
X86732806Y-103388414D01*
X86635548Y-103622637D01*
X86635327Y-103876250D01*
X84777477Y-103876250D01*
X84907550Y-103746404D01*
X85004808Y-103512181D01*
X85005029Y-103258568D01*
X84908180Y-103024175D01*
X84867877Y-102983801D01*
X84890131Y-102961586D01*
X84987389Y-102727363D01*
X84987610Y-102473750D01*
X84890761Y-102239357D01*
X84711586Y-102059869D01*
X84477363Y-101962611D01*
X84223750Y-101962390D01*
X83989357Y-102059239D01*
X83809869Y-102238414D01*
X83712611Y-102472637D01*
X83712390Y-102726250D01*
X83237607Y-102726250D01*
X83237610Y-102723750D01*
X83140761Y-102489357D01*
X82961586Y-102309869D01*
X82727363Y-102212611D01*
X82473750Y-102212390D01*
X82239357Y-102309239D01*
X82059869Y-102488414D01*
X81962611Y-102722637D01*
X81962576Y-102763264D01*
X81758596Y-102763086D01*
X81715091Y-102781062D01*
X81737389Y-102727363D01*
X81737610Y-102473750D01*
X81640761Y-102239357D01*
X81461586Y-102059869D01*
X81227363Y-101962611D01*
X80973750Y-101962390D01*
X80739357Y-102059239D01*
X80559869Y-102238414D01*
X80462611Y-102472637D01*
X80462390Y-102726250D01*
X80074752Y-102726250D01*
X80160643Y-102690761D01*
X80340131Y-102511586D01*
X80437389Y-102277363D01*
X80437610Y-102023750D01*
X80340761Y-101789357D01*
X80161586Y-101609869D01*
X79927363Y-101512611D01*
X79673750Y-101512390D01*
X79439357Y-101609239D01*
X79259869Y-101788414D01*
X79162611Y-102022637D01*
X79162390Y-102276250D01*
X66467991Y-102276250D01*
X66390761Y-102089339D01*
X66211586Y-101909851D01*
X65977363Y-101812593D01*
X65723750Y-101812372D01*
X65489357Y-101909221D01*
X65309869Y-102088396D01*
X65212611Y-102322619D01*
X65212390Y-102576232D01*
X55406998Y-102576232D01*
X55395545Y-102548514D01*
X55216370Y-102369026D01*
X54982147Y-102271768D01*
X54728534Y-102271547D01*
X54494141Y-102368396D01*
X54314653Y-102547571D01*
X54217395Y-102781794D01*
X54217174Y-103035407D01*
X54314023Y-103269800D01*
X54493198Y-103449288D01*
X54645424Y-103512498D01*
X54523750Y-103512392D01*
X54289357Y-103609241D01*
X54109869Y-103788416D01*
X54012611Y-104022639D01*
X54012390Y-104276252D01*
X54109239Y-104510645D01*
X54288414Y-104690133D01*
X54448112Y-104756446D01*
X54441389Y-104772637D01*
X54441168Y-105026250D01*
X54538017Y-105260643D01*
X54714560Y-105437494D01*
X54607711Y-105437401D01*
X54373318Y-105534250D01*
X54193830Y-105713425D01*
X54096572Y-105947648D01*
X54096351Y-106201261D01*
X54193200Y-106435654D01*
X54320185Y-106562861D01*
X54086911Y-106659248D01*
X53907423Y-106838423D01*
X53810165Y-107072646D01*
X53809944Y-107326259D01*
X53906793Y-107560652D01*
X54085968Y-107740140D01*
X54288841Y-107824380D01*
X54288733Y-107948356D01*
X54385582Y-108182749D01*
X54422331Y-108219563D01*
X54180721Y-108219352D01*
X53946328Y-108316201D01*
X53766840Y-108495376D01*
X53669582Y-108729599D01*
X53669361Y-108983212D01*
X50340000Y-108983212D01*
X50340000Y-108789007D01*
X50420411Y-108822397D01*
X50674024Y-108822618D01*
X50908417Y-108725769D01*
X50918359Y-108715844D01*
X50970049Y-108767624D01*
X51204272Y-108864882D01*
X51457885Y-108865103D01*
X51692278Y-108768254D01*
X51871766Y-108589079D01*
X51969024Y-108354856D01*
X51969245Y-108101243D01*
X51872396Y-107866850D01*
X51693221Y-107687362D01*
X51458998Y-107590104D01*
X51205385Y-107589883D01*
X51152325Y-107611807D01*
X51187389Y-107527363D01*
X51187610Y-107273750D01*
X51090761Y-107039357D01*
X50911586Y-106859869D01*
X50788349Y-106808697D01*
X50975772Y-106621274D01*
X50997728Y-106588414D01*
X51060313Y-106494749D01*
X51090000Y-106345502D01*
X51090000Y-105770702D01*
X51126622Y-105715893D01*
X51156309Y-105566646D01*
X51156309Y-102016309D01*
X51126622Y-101867062D01*
X51125616Y-101865556D01*
X51125616Y-101722078D01*
X51560748Y-101286945D01*
X51560751Y-101286943D01*
X51601304Y-101226250D01*
X53662390Y-101226250D01*
X53759239Y-101460643D01*
X53938414Y-101640131D01*
X54172637Y-101737389D01*
X54426250Y-101737610D01*
X54660643Y-101640761D01*
X54840131Y-101461586D01*
X54937389Y-101227363D01*
X54937593Y-100992173D01*
X65204812Y-100992173D01*
X65301661Y-101226566D01*
X65480836Y-101406054D01*
X65715059Y-101503312D01*
X65968672Y-101503533D01*
X66203065Y-101406684D01*
X66378500Y-101231554D01*
X94058666Y-101231554D01*
X94155515Y-101465947D01*
X94334690Y-101645435D01*
X94568913Y-101742693D01*
X94822526Y-101742914D01*
X95056919Y-101646065D01*
X95236407Y-101466890D01*
X95333665Y-101232667D01*
X95333886Y-100979054D01*
X95237037Y-100744661D01*
X95057862Y-100565173D01*
X94823639Y-100467915D01*
X94570026Y-100467694D01*
X94335633Y-100564543D01*
X94156145Y-100743718D01*
X94058887Y-100977941D01*
X94058666Y-101231554D01*
X66378500Y-101231554D01*
X66382553Y-101227509D01*
X66479811Y-100993286D01*
X66479858Y-100939043D01*
X66523619Y-100939081D01*
X66758012Y-100842232D01*
X66937500Y-100663057D01*
X66982084Y-100555686D01*
X67208738Y-100555884D01*
X67443131Y-100459035D01*
X67622619Y-100279860D01*
X67719877Y-100045637D01*
X67720098Y-99792024D01*
X67623249Y-99557631D01*
X67444074Y-99378143D01*
X67209851Y-99280885D01*
X66956238Y-99280664D01*
X66721845Y-99377513D01*
X66542357Y-99556688D01*
X66497773Y-99664059D01*
X66271119Y-99663861D01*
X66036726Y-99760710D01*
X65857238Y-99939885D01*
X65759980Y-100174108D01*
X65759933Y-100228351D01*
X65716172Y-100228313D01*
X65481779Y-100325162D01*
X65302291Y-100504337D01*
X65205033Y-100738560D01*
X65204812Y-100992173D01*
X54937593Y-100992173D01*
X54937610Y-100973750D01*
X54840761Y-100739357D01*
X54661586Y-100559869D01*
X54427363Y-100462611D01*
X54173750Y-100462390D01*
X53939357Y-100559239D01*
X53759869Y-100738414D01*
X53662611Y-100972637D01*
X53662390Y-101226250D01*
X51601304Y-101226250D01*
X51645292Y-101160418D01*
X51645293Y-101160417D01*
X51674980Y-101011171D01*
X51674979Y-101011166D01*
X51674979Y-100495174D01*
X51674980Y-100495169D01*
X51645293Y-100345923D01*
X51566708Y-100228313D01*
X51560751Y-100219397D01*
X51560748Y-100219395D01*
X51065582Y-99724228D01*
X50939057Y-99639687D01*
X50914295Y-99634761D01*
X50789810Y-99609999D01*
X50789805Y-99610000D01*
X50740263Y-99610000D01*
X50590394Y-99459869D01*
X50356171Y-99362611D01*
X50102558Y-99362390D01*
X50025000Y-99394436D01*
X50025000Y-98676250D01*
X71112390Y-98676250D01*
X71209239Y-98910643D01*
X71388414Y-99090131D01*
X71566214Y-99163960D01*
X71562611Y-99172637D01*
X71562390Y-99426250D01*
X71659239Y-99660643D01*
X71838414Y-99840131D01*
X72072637Y-99937389D01*
X72326250Y-99937610D01*
X72560643Y-99840761D01*
X72740131Y-99661586D01*
X72766217Y-99598764D01*
X74362390Y-99598764D01*
X74459239Y-99833157D01*
X74638414Y-100012645D01*
X74872637Y-100109903D01*
X75001322Y-100110015D01*
X75083558Y-100309043D01*
X75262733Y-100488531D01*
X75496956Y-100585789D01*
X75750569Y-100586010D01*
X75984962Y-100489161D01*
X76164450Y-100309986D01*
X76247505Y-100109968D01*
X76414539Y-100110114D01*
X76623929Y-100023596D01*
X79964756Y-100023596D01*
X80061605Y-100257989D01*
X80240780Y-100437477D01*
X80475003Y-100534735D01*
X80728616Y-100534956D01*
X80963009Y-100438107D01*
X81142497Y-100258932D01*
X81239755Y-100024709D01*
X81239976Y-99771096D01*
X81143127Y-99536703D01*
X80963952Y-99357215D01*
X80729729Y-99259957D01*
X80476116Y-99259736D01*
X80241723Y-99356585D01*
X80062235Y-99535760D01*
X79964977Y-99769983D01*
X79964756Y-100023596D01*
X76623929Y-100023596D01*
X76648932Y-100013265D01*
X76828420Y-99834090D01*
X76925678Y-99599867D01*
X76925899Y-99346254D01*
X76829050Y-99111861D01*
X76649875Y-98932373D01*
X76415652Y-98835115D01*
X76162039Y-98834894D01*
X75927646Y-98931743D01*
X75748158Y-99110918D01*
X75665103Y-99310936D01*
X75622997Y-99310899D01*
X75540761Y-99111871D01*
X75361586Y-98932383D01*
X75127363Y-98835125D01*
X74873750Y-98834904D01*
X74639357Y-98931753D01*
X74459869Y-99110928D01*
X74362611Y-99345151D01*
X74362390Y-99598764D01*
X72766217Y-99598764D01*
X72837389Y-99427363D01*
X72837576Y-99212270D01*
X73010643Y-99140761D01*
X73190131Y-98961586D01*
X73287389Y-98727363D01*
X73287610Y-98473750D01*
X73190761Y-98239357D01*
X73011586Y-98059869D01*
X72777363Y-97962611D01*
X72523750Y-97962390D01*
X72289357Y-98059239D01*
X72225001Y-98123482D01*
X72111586Y-98009869D01*
X71877363Y-97912611D01*
X71623750Y-97912390D01*
X71389357Y-98009239D01*
X71209869Y-98188414D01*
X71112611Y-98422637D01*
X71112390Y-98676250D01*
X50025000Y-98676250D01*
X50025000Y-97226250D01*
X69612390Y-97226250D01*
X69709239Y-97460643D01*
X69888414Y-97640131D01*
X70122637Y-97737389D01*
X70376250Y-97737610D01*
X70610643Y-97640761D01*
X70790131Y-97461586D01*
X70887389Y-97227363D01*
X70887472Y-97131206D01*
X78862390Y-97131206D01*
X78959239Y-97365599D01*
X79138414Y-97545087D01*
X79372637Y-97642345D01*
X79626250Y-97642566D01*
X79860643Y-97545717D01*
X80040131Y-97366542D01*
X80137389Y-97132319D01*
X80137610Y-96878706D01*
X80040761Y-96644313D01*
X79861586Y-96464825D01*
X79627363Y-96367567D01*
X79373750Y-96367346D01*
X79139357Y-96464195D01*
X78959869Y-96643370D01*
X78862611Y-96877593D01*
X78862390Y-97131206D01*
X70887472Y-97131206D01*
X70887610Y-96973750D01*
X70790761Y-96739357D01*
X70611586Y-96559869D01*
X70377363Y-96462611D01*
X70123750Y-96462390D01*
X69889357Y-96559239D01*
X69709869Y-96738414D01*
X69612611Y-96972637D01*
X69612390Y-97226250D01*
X50025000Y-97226250D01*
X50025000Y-96371447D01*
X62154035Y-96371447D01*
X62250884Y-96605840D01*
X62430059Y-96785328D01*
X62664282Y-96882586D01*
X62917895Y-96882807D01*
X63152288Y-96785958D01*
X63331776Y-96606783D01*
X63429034Y-96372560D01*
X63429255Y-96118947D01*
X63332406Y-95884554D01*
X63153231Y-95705066D01*
X62919008Y-95607808D01*
X62665395Y-95607587D01*
X62431002Y-95704436D01*
X62251514Y-95883611D01*
X62154256Y-96117834D01*
X62154035Y-96371447D01*
X50025000Y-96371447D01*
X50025000Y-94723750D01*
X73362390Y-94723750D01*
X73459239Y-94958143D01*
X73500939Y-94999916D01*
X73459869Y-95040914D01*
X73362611Y-95275137D01*
X73362390Y-95528750D01*
X73459239Y-95763143D01*
X73638414Y-95942631D01*
X73872637Y-96039889D01*
X74126250Y-96040110D01*
X74360643Y-95943261D01*
X74540131Y-95764086D01*
X74637389Y-95529863D01*
X74637610Y-95276250D01*
X74540761Y-95041857D01*
X74499061Y-95000084D01*
X74540131Y-94959086D01*
X74637389Y-94724863D01*
X74637474Y-94626250D01*
X76712390Y-94626250D01*
X76809239Y-94860643D01*
X76988414Y-95040131D01*
X77222637Y-95137389D01*
X77476250Y-95137610D01*
X77710643Y-95040761D01*
X77890131Y-94861586D01*
X77987389Y-94627363D01*
X77987610Y-94373750D01*
X77890761Y-94139357D01*
X77827765Y-94076250D01*
X84062390Y-94076250D01*
X84159239Y-94310643D01*
X84338414Y-94490131D01*
X84572637Y-94587389D01*
X84826250Y-94587610D01*
X85060643Y-94490761D01*
X85240131Y-94311586D01*
X85337389Y-94077363D01*
X85337610Y-93823750D01*
X85240761Y-93589357D01*
X85061586Y-93409869D01*
X84827363Y-93312611D01*
X84573750Y-93312390D01*
X84339357Y-93409239D01*
X84159869Y-93588414D01*
X84062611Y-93822637D01*
X84062390Y-94076250D01*
X77827765Y-94076250D01*
X77711586Y-93959869D01*
X77477363Y-93862611D01*
X77223750Y-93862390D01*
X76989357Y-93959239D01*
X76809869Y-94138414D01*
X76712611Y-94372637D01*
X76712390Y-94626250D01*
X74637474Y-94626250D01*
X74637610Y-94471250D01*
X74540761Y-94236857D01*
X74361586Y-94057369D01*
X74127363Y-93960111D01*
X73873750Y-93959890D01*
X73639357Y-94056739D01*
X73459869Y-94235914D01*
X73362611Y-94470137D01*
X73362390Y-94723750D01*
X50025000Y-94723750D01*
X50025000Y-94026250D01*
X67312390Y-94026250D01*
X67409239Y-94260643D01*
X67588414Y-94440131D01*
X67822637Y-94537389D01*
X68076250Y-94537610D01*
X68310643Y-94440761D01*
X68490131Y-94261586D01*
X68510607Y-94212275D01*
X68538414Y-94240131D01*
X68772637Y-94337389D01*
X69026250Y-94337610D01*
X69260643Y-94240761D01*
X69440131Y-94061586D01*
X69537389Y-93827363D01*
X69537610Y-93573750D01*
X69440761Y-93339357D01*
X69261586Y-93159869D01*
X69027363Y-93062611D01*
X68773750Y-93062390D01*
X68539357Y-93159239D01*
X68359869Y-93338414D01*
X68339393Y-93387725D01*
X68311586Y-93359869D01*
X68077363Y-93262611D01*
X67823750Y-93262390D01*
X67589357Y-93359239D01*
X67409869Y-93538414D01*
X67312611Y-93772637D01*
X67312390Y-94026250D01*
X50025000Y-94026250D01*
X50025000Y-93076252D01*
X56162390Y-93076252D01*
X56259239Y-93310645D01*
X56438414Y-93490133D01*
X56672637Y-93587391D01*
X56926250Y-93587612D01*
X57125202Y-93505407D01*
X57322637Y-93587389D01*
X57576250Y-93587610D01*
X57810643Y-93490761D01*
X57990131Y-93311586D01*
X58087389Y-93077363D01*
X58087610Y-92823750D01*
X57990761Y-92589357D01*
X57811586Y-92409869D01*
X57577363Y-92312611D01*
X57323750Y-92312390D01*
X57124798Y-92394595D01*
X56927363Y-92312613D01*
X56673750Y-92312392D01*
X56439357Y-92409241D01*
X56259869Y-92588416D01*
X56162611Y-92822639D01*
X56162390Y-93076252D01*
X50025000Y-93076252D01*
X50025000Y-91926250D01*
X78016960Y-91926250D01*
X78113809Y-92160643D01*
X78292984Y-92340131D01*
X78527207Y-92437389D01*
X78780820Y-92437610D01*
X79015213Y-92340761D01*
X79194701Y-92161586D01*
X79291959Y-91927363D01*
X79292180Y-91673750D01*
X79195331Y-91439357D01*
X79016156Y-91259869D01*
X78781933Y-91162611D01*
X78528320Y-91162390D01*
X78293927Y-91259239D01*
X78114439Y-91438414D01*
X78017181Y-91672637D01*
X78016960Y-91926250D01*
X50025000Y-91926250D01*
X50025000Y-90326250D01*
X50162390Y-90326250D01*
X50259239Y-90560643D01*
X50438414Y-90740131D01*
X50672637Y-90837389D01*
X50926250Y-90837610D01*
X51160643Y-90740761D01*
X51335943Y-90565766D01*
X61488120Y-90565766D01*
X61584969Y-90800159D01*
X61764144Y-90979647D01*
X61998367Y-91076905D01*
X62251980Y-91077126D01*
X62486373Y-90980277D01*
X62665861Y-90801102D01*
X62676180Y-90776250D01*
X63662390Y-90776250D01*
X63759239Y-91010643D01*
X63938414Y-91190131D01*
X64172637Y-91287389D01*
X64426250Y-91287610D01*
X64453743Y-91276250D01*
X70134892Y-91276250D01*
X70231741Y-91510643D01*
X70410916Y-91690131D01*
X70645139Y-91787389D01*
X70898752Y-91787610D01*
X71133145Y-91690761D01*
X71312633Y-91511586D01*
X71409891Y-91277363D01*
X71410112Y-91023750D01*
X71349167Y-90876250D01*
X73612390Y-90876250D01*
X73709239Y-91110643D01*
X73888414Y-91290131D01*
X74122637Y-91387389D01*
X74376250Y-91387610D01*
X74610643Y-91290761D01*
X74790131Y-91111586D01*
X74887389Y-90877363D01*
X74887389Y-90876250D01*
X77012390Y-90876250D01*
X77109239Y-91110643D01*
X77288414Y-91290131D01*
X77522637Y-91387389D01*
X77776250Y-91387610D01*
X78010643Y-91290761D01*
X78190131Y-91111586D01*
X78287389Y-90877363D01*
X78287610Y-90623750D01*
X78190761Y-90389357D01*
X78011586Y-90209869D01*
X77777363Y-90112611D01*
X77523750Y-90112390D01*
X77289357Y-90209239D01*
X77109869Y-90388414D01*
X77012611Y-90622637D01*
X77012390Y-90876250D01*
X74887389Y-90876250D01*
X74887610Y-90623750D01*
X74790761Y-90389357D01*
X74611586Y-90209869D01*
X74377363Y-90112611D01*
X74123750Y-90112390D01*
X73889357Y-90209239D01*
X73709869Y-90388414D01*
X73612611Y-90622637D01*
X73612390Y-90876250D01*
X71349167Y-90876250D01*
X71313263Y-90789357D01*
X71134088Y-90609869D01*
X70899865Y-90512611D01*
X70646252Y-90512390D01*
X70411859Y-90609239D01*
X70232371Y-90788414D01*
X70135113Y-91022637D01*
X70134892Y-91276250D01*
X64453743Y-91276250D01*
X64660643Y-91190761D01*
X64840131Y-91011586D01*
X64937389Y-90777363D01*
X64937610Y-90523750D01*
X64840761Y-90289357D01*
X64661586Y-90109869D01*
X64427363Y-90012611D01*
X64173750Y-90012390D01*
X63939357Y-90109239D01*
X63759869Y-90288414D01*
X63662611Y-90522637D01*
X63662390Y-90776250D01*
X62676180Y-90776250D01*
X62763119Y-90566879D01*
X62763340Y-90313266D01*
X62666491Y-90078873D01*
X62487316Y-89899385D01*
X62253093Y-89802127D01*
X61999480Y-89801906D01*
X61765087Y-89898755D01*
X61585599Y-90077930D01*
X61488341Y-90312153D01*
X61488120Y-90565766D01*
X51335943Y-90565766D01*
X51340131Y-90561586D01*
X51437389Y-90327363D01*
X51437610Y-90073750D01*
X51340761Y-89839357D01*
X51161586Y-89659869D01*
X50927363Y-89562611D01*
X50673750Y-89562390D01*
X50439357Y-89659239D01*
X50259869Y-89838414D01*
X50162611Y-90072637D01*
X50162390Y-90326250D01*
X50025000Y-90326250D01*
X50025000Y-87811912D01*
X50524727Y-87811912D01*
X50764001Y-88391000D01*
X51206669Y-88834441D01*
X51785339Y-89074726D01*
X52411912Y-89075273D01*
X52530600Y-89026232D01*
X59812408Y-89026232D01*
X59909257Y-89260625D01*
X60088432Y-89440113D01*
X60322655Y-89537371D01*
X60576268Y-89537592D01*
X60810661Y-89440743D01*
X60990149Y-89261568D01*
X61087407Y-89027345D01*
X61087407Y-89026262D01*
X84562390Y-89026262D01*
X84654947Y-89250268D01*
X84562611Y-89472637D01*
X84562390Y-89726250D01*
X84659239Y-89960643D01*
X84838414Y-90140131D01*
X85072637Y-90237389D01*
X85326250Y-90237610D01*
X85560643Y-90140761D01*
X85740131Y-89961586D01*
X85837389Y-89727363D01*
X85837610Y-89473750D01*
X85745053Y-89249744D01*
X85837389Y-89027375D01*
X85837610Y-88773762D01*
X85740761Y-88539369D01*
X85561586Y-88359881D01*
X85327363Y-88262623D01*
X85073750Y-88262402D01*
X84839357Y-88359251D01*
X84659869Y-88538426D01*
X84562611Y-88772649D01*
X84562390Y-89026262D01*
X61087407Y-89026262D01*
X61087628Y-88773732D01*
X60990779Y-88539339D01*
X60811604Y-88359851D01*
X60577381Y-88262593D01*
X60323768Y-88262372D01*
X60089375Y-88359221D01*
X59909887Y-88538396D01*
X59812629Y-88772619D01*
X59812408Y-89026232D01*
X52530600Y-89026232D01*
X52991000Y-88835999D01*
X53434441Y-88393331D01*
X53674726Y-87814661D01*
X53674759Y-87776250D01*
X62412390Y-87776250D01*
X62509239Y-88010643D01*
X62688414Y-88190131D01*
X62922637Y-88287389D01*
X63176250Y-88287610D01*
X63410643Y-88190761D01*
X63475266Y-88126250D01*
X73862390Y-88126250D01*
X73959239Y-88360643D01*
X74138414Y-88540131D01*
X74372637Y-88637389D01*
X74626250Y-88637610D01*
X74860643Y-88540761D01*
X75040131Y-88361586D01*
X75137389Y-88127363D01*
X75137610Y-87873750D01*
X75112060Y-87811912D01*
X96324727Y-87811912D01*
X96564001Y-88391000D01*
X97006669Y-88834441D01*
X97585339Y-89074726D01*
X98211912Y-89075273D01*
X98791000Y-88835999D01*
X99234441Y-88393331D01*
X99474726Y-87814661D01*
X99475273Y-87188088D01*
X99235999Y-86609000D01*
X98793331Y-86165559D01*
X98214661Y-85925274D01*
X97588088Y-85924727D01*
X97009000Y-86164001D01*
X96565559Y-86606669D01*
X96325274Y-87185339D01*
X96324727Y-87811912D01*
X75112060Y-87811912D01*
X75040761Y-87639357D01*
X74861586Y-87459869D01*
X74627363Y-87362611D01*
X74373750Y-87362390D01*
X74139357Y-87459239D01*
X73959869Y-87638414D01*
X73862611Y-87872637D01*
X73862390Y-88126250D01*
X63475266Y-88126250D01*
X63590131Y-88011586D01*
X63687389Y-87777363D01*
X63687610Y-87523750D01*
X63631324Y-87387527D01*
X63726250Y-87387610D01*
X63960643Y-87290761D01*
X64140131Y-87111586D01*
X64237389Y-86877363D01*
X64237607Y-86626250D01*
X68512390Y-86626250D01*
X68609239Y-86860643D01*
X68788414Y-87040131D01*
X69022637Y-87137389D01*
X69276250Y-87137610D01*
X69510643Y-87040761D01*
X69639283Y-86912345D01*
X69659239Y-86960643D01*
X69838414Y-87140131D01*
X70072637Y-87237389D01*
X70326250Y-87237610D01*
X70560643Y-87140761D01*
X70740131Y-86961586D01*
X70775565Y-86876250D01*
X87412390Y-86876250D01*
X87509239Y-87110643D01*
X87688414Y-87290131D01*
X87922637Y-87387389D01*
X88176250Y-87387610D01*
X88410643Y-87290761D01*
X88590131Y-87111586D01*
X88687389Y-86877363D01*
X88687610Y-86623750D01*
X88590761Y-86389357D01*
X88411586Y-86209869D01*
X88177363Y-86112611D01*
X87923750Y-86112390D01*
X87689357Y-86209239D01*
X87509869Y-86388414D01*
X87412611Y-86622637D01*
X87412390Y-86876250D01*
X70775565Y-86876250D01*
X70837389Y-86727363D01*
X70837610Y-86473750D01*
X70740761Y-86239357D01*
X70561586Y-86059869D01*
X70327363Y-85962611D01*
X70073750Y-85962390D01*
X69839357Y-86059239D01*
X69710717Y-86187655D01*
X69690761Y-86139357D01*
X69511586Y-85959869D01*
X69277363Y-85862611D01*
X69023750Y-85862390D01*
X68789357Y-85959239D01*
X68609869Y-86138414D01*
X68512611Y-86372637D01*
X68512390Y-86626250D01*
X64237607Y-86626250D01*
X64237610Y-86623750D01*
X64140761Y-86389357D01*
X63961586Y-86209869D01*
X63727363Y-86112611D01*
X63473750Y-86112390D01*
X63239357Y-86209239D01*
X63059869Y-86388414D01*
X62962611Y-86622637D01*
X62962390Y-86876250D01*
X63018676Y-87012473D01*
X62923750Y-87012390D01*
X62689357Y-87109239D01*
X62509869Y-87288414D01*
X62412611Y-87522637D01*
X62412390Y-87776250D01*
X53674759Y-87776250D01*
X53675273Y-87188088D01*
X53435999Y-86609000D01*
X52993331Y-86165559D01*
X52414661Y-85925274D01*
X51788088Y-85924727D01*
X51209000Y-86164001D01*
X50765559Y-86606669D01*
X50525274Y-87185339D01*
X50524727Y-87811912D01*
X50025000Y-87811912D01*
X50025000Y-85425000D01*
X86122222Y-85425000D01*
X86039357Y-85459239D01*
M02*
