G04 #@! TF.GenerationSoftware,KiCad,Pcbnew,(2017-02-19 revision a416f3a4e)-master*
G04 #@! TF.CreationDate,2017-04-30T11:52:52-07:00*
G04 #@! TF.ProjectId,Navi,4E6176692E6B696361645F7063620000,rev?*
G04 #@! TF.FileFunction,Soldermask,Top*
G04 #@! TF.FilePolarity,Negative*
%FSLAX46Y46*%
G04 Gerber Fmt 4.6, Leading zero omitted, Abs format (unit mm)*
G04 Created by KiCad (PCBNEW (2017-02-19 revision a416f3a4e)-master) date 04/30/17 11:52:52*
%MOMM*%
%LPD*%
G01*
G04 APERTURE LIST*
%ADD10C,0.150000*%
%ADD11R,0.600000X0.700000*%
%ADD12R,0.600000X0.750000*%
%ADD13R,0.750000X0.600000*%
%ADD14R,0.300000X0.450000*%
%ADD15R,0.210000X0.230000*%
%ADD16R,0.230000X0.440000*%
%ADD17R,1.220000X0.650000*%
%ADD18R,0.300000X0.325000*%
%ADD19R,0.325000X0.300000*%
%ADD20R,0.300000X0.400000*%
%ADD21R,0.400000X0.300000*%
%ADD22R,0.600000X0.500000*%
%ADD23R,0.500000X0.600000*%
%ADD24R,0.750000X0.800000*%
%ADD25R,0.400000X0.600000*%
%ADD26R,0.600000X0.400000*%
%ADD27R,1.000000X1.600000*%
%ADD28R,1.300000X1.300000*%
%ADD29R,0.300000X0.850000*%
%ADD30R,0.850000X0.300000*%
%ADD31R,0.900000X0.500000*%
%ADD32C,0.800000*%
%ADD33R,0.900000X0.800000*%
%ADD34R,1.000000X2.130000*%
%ADD35R,1.000000X3.800000*%
%ADD36R,1.650000X1.000000*%
%ADD37R,3.800000X1.000000*%
%ADD38R,1.000000X1.000000*%
%ADD39R,1.600000X1.000000*%
%ADD40R,4.500000X1.600000*%
%ADD41R,1.100000X1.100000*%
%ADD42R,1.550000X0.600000*%
%ADD43C,2.500000*%
%ADD44R,1.800000X0.800000*%
%ADD45R,1.800000X0.700000*%
%ADD46R,0.700000X1.500000*%
%ADD47R,0.800000X0.800000*%
%ADD48R,0.800000X0.900000*%
%ADD49C,0.500000*%
%ADD50R,1.000000X1.250000*%
%ADD51R,0.800000X0.750000*%
%ADD52R,1.250000X1.000000*%
%ADD53R,1.475000X2.100000*%
%ADD54R,0.450000X1.380000*%
%ADD55R,1.175000X1.900000*%
%ADD56R,2.375000X1.900000*%
%ADD57R,2.500000X0.900000*%
%ADD58R,0.800000X0.600000*%
%ADD59R,2.200000X1.050000*%
%ADD60R,0.800000X0.875000*%
%ADD61R,0.550000X0.200000*%
%ADD62R,0.200000X0.550000*%
%ADD63C,1.000000*%
%ADD64C,1.050000*%
%ADD65R,1.287500X1.287500*%
%ADD66R,0.700000X0.250000*%
%ADD67R,0.250000X0.700000*%
%ADD68R,1.250000X1.250000*%
%ADD69R,0.800000X0.350000*%
%ADD70R,0.350000X0.800000*%
%ADD71R,0.500000X0.900000*%
G04 APERTURE END LIST*
D10*
D11*
X75020120Y-110514520D03*
D12*
X75620120Y-110489520D03*
D11*
X75020120Y-108624520D03*
D12*
X75620120Y-108649520D03*
D13*
X76540120Y-109269520D03*
X76540120Y-109869520D03*
D11*
X76220120Y-108624520D03*
D13*
X74700120Y-109269520D03*
X74700120Y-109869520D03*
D11*
X76220120Y-110514520D03*
D14*
X76000000Y-90825000D03*
X75000000Y-90825000D03*
X76000000Y-92175000D03*
X75500000Y-90825000D03*
X75000000Y-92175000D03*
X75500000Y-92175000D03*
D15*
X67230000Y-88550000D03*
X68070000Y-88550000D03*
X68070000Y-88950000D03*
X67230000Y-88950000D03*
D16*
X67850000Y-88445000D03*
X67450000Y-88445000D03*
X67850000Y-89055000D03*
X67450000Y-89055000D03*
D17*
X67960000Y-91100000D03*
X67960000Y-92050000D03*
X67960000Y-93000000D03*
X65340000Y-93000000D03*
X65340000Y-92050000D03*
X65340000Y-91100000D03*
D18*
X71127542Y-108387028D03*
X70627542Y-108387028D03*
X70627542Y-106862028D03*
X71127542Y-106862028D03*
D19*
X70115042Y-108374528D03*
X71640042Y-108374528D03*
X70115042Y-106874528D03*
X71640042Y-106874528D03*
X70115042Y-107374528D03*
X70115042Y-107874528D03*
X71640042Y-107374528D03*
X71640042Y-107874528D03*
D20*
X81450000Y-105424999D03*
X81950000Y-105424999D03*
X82450000Y-105424999D03*
D21*
X83175000Y-105649999D03*
X83175000Y-106149999D03*
X83175000Y-106649999D03*
X83175000Y-107149999D03*
X83175000Y-107649999D03*
D20*
X82450000Y-107874999D03*
X81950000Y-107874999D03*
X81450000Y-107874999D03*
D21*
X80725000Y-107649999D03*
X80725000Y-107149999D03*
X80725000Y-106649999D03*
X80725000Y-106149999D03*
X80725000Y-105649999D03*
D22*
X70005083Y-105799055D03*
X71105083Y-105799055D03*
D23*
X69000000Y-106950000D03*
X69000000Y-108050000D03*
D22*
X71305082Y-109449055D03*
X70205082Y-109449055D03*
X82350000Y-104149999D03*
X81250000Y-104149999D03*
D23*
X79499999Y-106499999D03*
X79499999Y-105399999D03*
D24*
X68850000Y-110950000D03*
X68850000Y-109450000D03*
D25*
X80299999Y-104149999D03*
X79399999Y-104149999D03*
D26*
X79500000Y-107650000D03*
X79500000Y-108550000D03*
D27*
X72800000Y-91550000D03*
X69800000Y-91550000D03*
D28*
X69600000Y-100400000D03*
X69600000Y-101700000D03*
X70900000Y-100400000D03*
X70900000Y-101700000D03*
D29*
X69000000Y-99100000D03*
X69500000Y-99100000D03*
X70000000Y-99100000D03*
X70500000Y-99100000D03*
X71000000Y-99100000D03*
X71500000Y-99100000D03*
D30*
X72200000Y-99800000D03*
X72200000Y-100300000D03*
X72200000Y-100800000D03*
X72200000Y-101300000D03*
X72200000Y-101800000D03*
X72200000Y-102300000D03*
D29*
X71500000Y-103000000D03*
X71000000Y-103000000D03*
X70500000Y-103000000D03*
X70000000Y-103000000D03*
X69500000Y-103000000D03*
X69000000Y-103000000D03*
D30*
X68300000Y-102300000D03*
X68300000Y-101800000D03*
X68300000Y-101300000D03*
X68300000Y-100800000D03*
X68300000Y-100300000D03*
X68300000Y-99800000D03*
D22*
X68700000Y-85850000D03*
X69800000Y-85850000D03*
X68700000Y-87350000D03*
X69800000Y-87350000D03*
D31*
X67450000Y-87340561D03*
X67450000Y-85840561D03*
D26*
X62800000Y-88540001D03*
X62800000Y-89440001D03*
D32*
X65392893Y-94792893D03*
D10*
G36*
X65993934Y-94828248D02*
X65428248Y-95393934D01*
X64791852Y-94757538D01*
X65357538Y-94191852D01*
X65993934Y-94828248D01*
X65993934Y-94828248D01*
G37*
D32*
X67478858Y-95535355D03*
D10*
G36*
X68079899Y-95570710D02*
X67514213Y-96136396D01*
X66877817Y-95500000D01*
X67443503Y-94934314D01*
X68079899Y-95570710D01*
X68079899Y-95570710D01*
G37*
D32*
X66135355Y-96878858D03*
D10*
G36*
X66736396Y-96914213D02*
X66170710Y-97479899D01*
X65534314Y-96843503D01*
X66100000Y-96277817D01*
X66736396Y-96914213D01*
X66736396Y-96914213D01*
G37*
D33*
X66150000Y-88600000D03*
X64150000Y-89550000D03*
X64150000Y-87650000D03*
D34*
X86300435Y-93205076D03*
X98800435Y-93205076D03*
D35*
X86300435Y-98370076D03*
X98800435Y-98370076D03*
D34*
X86300435Y-103535076D03*
X98800435Y-103535076D03*
D36*
X87625435Y-91640076D03*
X87625435Y-105100076D03*
D37*
X92550435Y-91640076D03*
X92550435Y-105100076D03*
D36*
X97475435Y-91640076D03*
X97475435Y-105100076D03*
D38*
X98800435Y-91640076D03*
X86300435Y-91640076D03*
X86300435Y-105100076D03*
X98800435Y-105100076D03*
D34*
X51201310Y-93215658D03*
X63701310Y-93215658D03*
D35*
X51201310Y-98380658D03*
X63701310Y-98380658D03*
D34*
X51201310Y-103545658D03*
X63701310Y-103545658D03*
D36*
X52526310Y-91650658D03*
X52526310Y-105110658D03*
D37*
X57451310Y-91650658D03*
X57451310Y-105110658D03*
D36*
X62376310Y-91650658D03*
X62376310Y-105110658D03*
D38*
X63701310Y-91650658D03*
X51201310Y-91650658D03*
X51201310Y-105110658D03*
X63701310Y-105110658D03*
D39*
X73900000Y-93500000D03*
X73900000Y-96500000D03*
D40*
X82600000Y-87250000D03*
X82600000Y-91150000D03*
D22*
X81237868Y-100539340D03*
X82337868Y-100539340D03*
D23*
X78700000Y-100550000D03*
X78700000Y-101650000D03*
D41*
X79800000Y-93300000D03*
X82600000Y-93300000D03*
D42*
X83600000Y-95295000D03*
X83600000Y-96565000D03*
X83600000Y-97835000D03*
X83600000Y-99105000D03*
X78200000Y-99105000D03*
X78200000Y-97835000D03*
X78200000Y-96565000D03*
X78200000Y-95295000D03*
D43*
X52100000Y-122500000D03*
X97900000Y-122500000D03*
D44*
X68900435Y-116000076D03*
X78400435Y-116000076D03*
X68900435Y-117100076D03*
X78400435Y-117100076D03*
X68900435Y-118200076D03*
X78400435Y-118200076D03*
X68900435Y-119300076D03*
X78400435Y-119300076D03*
X68900435Y-120400076D03*
X78400435Y-120400076D03*
X68900435Y-121500076D03*
X78400435Y-121500076D03*
X68900435Y-122600076D03*
X78400435Y-122600076D03*
D45*
X68900435Y-114900076D03*
X78400435Y-114900076D03*
X68900435Y-123700076D03*
X78400435Y-123700076D03*
D31*
X92050000Y-120450000D03*
X92050000Y-118950000D03*
D25*
X72500000Y-104600000D03*
X71600000Y-104600000D03*
D46*
X76000000Y-101750000D03*
X75000000Y-101750000D03*
X74000000Y-101750000D03*
X74000000Y-98250000D03*
X75000000Y-98250000D03*
X76000000Y-98250000D03*
D22*
X71950000Y-97800000D03*
X70850000Y-97800000D03*
D23*
X67350000Y-97900000D03*
X67350000Y-99000000D03*
X67100000Y-101950000D03*
X67100000Y-100850000D03*
D22*
X95000435Y-97000076D03*
X93900435Y-97000076D03*
D23*
X84800000Y-117250000D03*
X84800000Y-116150000D03*
D22*
X69650000Y-97800000D03*
X68550000Y-97800000D03*
X55701219Y-100681010D03*
X56801219Y-100681010D03*
X53150000Y-116600000D03*
X52050000Y-116600000D03*
D47*
X61200000Y-86000000D03*
X62800000Y-86000000D03*
D25*
X64050000Y-86000000D03*
X64950000Y-86000000D03*
D47*
X57500000Y-119200000D03*
X57500000Y-120800000D03*
X88800000Y-86000000D03*
X87200000Y-86000000D03*
X90450000Y-119200000D03*
X90450000Y-120800000D03*
D26*
X66450000Y-103050000D03*
X66450000Y-103950000D03*
X90450000Y-121950000D03*
X90450000Y-122850000D03*
X57500000Y-121950000D03*
X57500000Y-122850000D03*
D25*
X66803554Y-117843754D03*
X65903554Y-117843754D03*
D48*
X64000783Y-108280936D03*
X64000783Y-109680936D03*
X62900783Y-109680936D03*
X62900783Y-108280936D03*
D33*
X97250000Y-107700000D03*
X98650000Y-107700000D03*
X98650000Y-108800000D03*
X97250000Y-108800000D03*
D49*
X69800000Y-112700000D03*
X70500000Y-113400000D03*
D26*
X61500000Y-89550000D03*
X61500000Y-90450000D03*
D22*
X61900000Y-116750000D03*
X60800000Y-116750000D03*
D23*
X94550000Y-120100000D03*
X94550000Y-119000000D03*
D43*
X97900000Y-87500000D03*
D25*
X66800000Y-119000000D03*
X65900000Y-119000000D03*
D26*
X84850000Y-110649723D03*
X84850000Y-109749723D03*
X83550000Y-110649723D03*
X83550000Y-109749723D03*
D25*
X66803832Y-116694279D03*
X65903832Y-116694279D03*
D43*
X52100000Y-87500000D03*
D50*
X88250000Y-89849999D03*
X86250000Y-89849999D03*
D22*
X62800784Y-106980934D03*
X63900784Y-106980934D03*
X98250000Y-106400000D03*
X97150000Y-106400000D03*
D23*
X95950000Y-108650000D03*
X95950000Y-107550000D03*
X64950000Y-111000000D03*
X64950000Y-112100000D03*
X86100000Y-109650000D03*
X86100000Y-110750000D03*
X88900000Y-95850076D03*
X88900000Y-96950076D03*
X96000000Y-114650000D03*
X96000000Y-113550000D03*
D22*
X63450000Y-110950000D03*
X62350000Y-110950000D03*
D23*
X53150784Y-115430934D03*
X53150784Y-114330934D03*
X96000000Y-111350000D03*
X96000000Y-112450000D03*
D51*
X98650000Y-113500000D03*
X97150000Y-113500000D03*
D24*
X61900000Y-119450000D03*
X61900000Y-117950000D03*
D51*
X55501219Y-102131010D03*
X57001219Y-102131010D03*
D52*
X51750000Y-107200000D03*
X51750000Y-109200000D03*
D50*
X61400435Y-120900076D03*
X59400435Y-120900076D03*
D52*
X92050000Y-123800000D03*
X92050000Y-121800000D03*
D50*
X88250000Y-87900000D03*
X86250000Y-87900000D03*
X97300435Y-99000076D03*
X95300435Y-99000076D03*
D25*
X93850435Y-99350076D03*
X92950435Y-99350076D03*
D53*
X72537500Y-88840000D03*
D54*
X73700000Y-89200000D03*
X74350000Y-89200000D03*
X75000000Y-89200000D03*
X75650000Y-89200000D03*
D55*
X74162500Y-86540000D03*
X75837500Y-86540000D03*
D56*
X72087500Y-86540000D03*
X77912500Y-86540000D03*
D53*
X77462500Y-88840000D03*
D54*
X76300000Y-89200000D03*
D23*
X66000870Y-120300152D03*
X66000870Y-121400152D03*
X66000870Y-123650152D03*
X66000870Y-122550152D03*
D22*
X75320120Y-111569520D03*
X76420120Y-111569520D03*
D23*
X77570120Y-103619520D03*
X77570120Y-104719520D03*
D22*
X84675000Y-119450000D03*
X83575000Y-119450000D03*
D23*
X77550526Y-106899723D03*
X77550526Y-105799723D03*
X77600000Y-101300000D03*
X77600000Y-102400000D03*
D25*
X75620120Y-107469520D03*
X74720120Y-107469520D03*
D26*
X77670120Y-108619520D03*
X77670120Y-109519520D03*
X77670120Y-111619520D03*
X77670120Y-110719520D03*
D25*
X78900000Y-103050000D03*
X79800000Y-103050000D03*
D26*
X73570120Y-109219520D03*
X73570120Y-108319520D03*
D57*
X81350000Y-116400000D03*
X81350000Y-119300000D03*
D58*
X91850000Y-106450000D03*
X91850000Y-107650000D03*
X93250000Y-107650000D03*
X93250000Y-106450000D03*
D38*
X81500526Y-122499723D03*
X84500526Y-122499723D03*
D59*
X83000526Y-123974723D03*
X83000526Y-121024723D03*
D60*
X74600120Y-105409520D03*
X75400120Y-105409520D03*
X74600120Y-104539520D03*
X75400120Y-104539520D03*
D61*
X73500120Y-105974520D03*
X73500120Y-105574520D03*
X73500120Y-105174520D03*
X73500120Y-104774520D03*
X73500120Y-104374520D03*
X73500120Y-103974520D03*
D62*
X74000120Y-103474520D03*
X74400120Y-103474520D03*
X74800120Y-103474520D03*
X75200120Y-103474520D03*
X75600120Y-103474520D03*
X76000120Y-103474520D03*
D61*
X76500120Y-103974520D03*
X76500120Y-104374520D03*
X76500120Y-104774520D03*
X76500120Y-105174520D03*
X76500120Y-105574520D03*
X76500120Y-105974520D03*
D62*
X76000120Y-106474520D03*
X75600120Y-106474520D03*
X75200120Y-106474520D03*
X74800120Y-106474520D03*
X74400120Y-106474520D03*
X74000120Y-106474520D03*
D63*
X93060660Y-88860660D03*
D10*
G36*
X93060660Y-89567767D02*
X92353553Y-88860660D01*
X93060660Y-88153553D01*
X93767767Y-88860660D01*
X93060660Y-89567767D01*
X93060660Y-89567767D01*
G37*
D63*
X90939340Y-86739340D03*
D10*
G36*
X90939340Y-87446447D02*
X90232233Y-86739340D01*
X90939340Y-86032233D01*
X91646447Y-86739340D01*
X90939340Y-87446447D01*
X90939340Y-87446447D01*
G37*
D64*
X93042983Y-86757017D03*
D10*
G36*
X93449569Y-87906066D02*
X91893934Y-86350431D01*
X92636397Y-85607968D01*
X94192032Y-87163603D01*
X93449569Y-87906066D01*
X93449569Y-87906066D01*
G37*
D64*
X90957017Y-88842983D03*
D10*
G36*
X91363603Y-89992032D02*
X89807968Y-88436397D01*
X90550431Y-87693934D01*
X92106066Y-89249569D01*
X91363603Y-89992032D01*
X91363603Y-89992032D01*
G37*
D63*
X56939340Y-88860660D03*
D10*
G36*
X56232233Y-88860660D02*
X56939340Y-88153553D01*
X57646447Y-88860660D01*
X56939340Y-89567767D01*
X56232233Y-88860660D01*
X56232233Y-88860660D01*
G37*
D63*
X59060660Y-86739340D03*
D10*
G36*
X58353553Y-86739340D02*
X59060660Y-86032233D01*
X59767767Y-86739340D01*
X59060660Y-87446447D01*
X58353553Y-86739340D01*
X58353553Y-86739340D01*
G37*
D64*
X59042983Y-88842983D03*
D10*
G36*
X57893934Y-89249569D02*
X59449569Y-87693934D01*
X60192032Y-88436397D01*
X58636397Y-89992032D01*
X57893934Y-89249569D01*
X57893934Y-89249569D01*
G37*
D64*
X56957017Y-86757017D03*
D10*
G36*
X55807968Y-87163603D02*
X57363603Y-85607968D01*
X58106066Y-86350431D01*
X56550431Y-87906066D01*
X55807968Y-87163603D01*
X55807968Y-87163603D01*
G37*
D22*
X82337868Y-101739340D03*
X81237868Y-101739340D03*
D23*
X84000000Y-93950000D03*
X84000000Y-92850000D03*
D52*
X76200000Y-94600000D03*
X76200000Y-96600000D03*
D39*
X71800000Y-93500000D03*
X71800000Y-96500000D03*
D26*
X85000000Y-101200000D03*
X85000000Y-100300000D03*
X83600000Y-100400000D03*
X83600000Y-101300000D03*
X79987868Y-101350000D03*
X79987868Y-100450000D03*
D22*
X96400000Y-110150000D03*
X95300000Y-110150000D03*
D23*
X91450435Y-95850076D03*
X91450435Y-94750076D03*
X94350435Y-95850076D03*
X94350435Y-94750076D03*
D22*
X96700000Y-92850000D03*
X95600000Y-92850000D03*
X59551218Y-98081011D03*
X60651218Y-98081011D03*
X94400000Y-109050000D03*
X93300000Y-109050000D03*
D23*
X58751219Y-96131011D03*
X58751219Y-95031011D03*
X55700000Y-96130657D03*
X55700000Y-95030657D03*
X54400000Y-95030659D03*
X54400000Y-93930659D03*
D25*
X90300435Y-94750076D03*
X89400435Y-94750076D03*
X93350435Y-94750076D03*
X92450435Y-94750076D03*
D26*
X95600000Y-93850076D03*
X95600000Y-94750076D03*
D25*
X60651220Y-96681010D03*
X59751220Y-96681010D03*
X59751220Y-95031011D03*
X60651220Y-95031011D03*
X56850000Y-95031011D03*
X57750000Y-95031011D03*
D65*
X92631326Y-111768315D03*
X91343826Y-111768315D03*
X90056326Y-111768315D03*
X88768826Y-111768315D03*
X92631326Y-113055815D03*
X91343826Y-113055815D03*
X90056326Y-113055815D03*
X88768826Y-113055815D03*
X92631326Y-114343315D03*
X91343826Y-114343315D03*
X90056326Y-114343315D03*
X88768826Y-114343315D03*
X92631326Y-115630815D03*
X91343826Y-115630815D03*
X90056326Y-115630815D03*
X88768826Y-115630815D03*
D66*
X94100076Y-110949565D03*
X94100076Y-111449565D03*
X94100076Y-111949565D03*
X94100076Y-112449565D03*
X94100076Y-112949565D03*
X94100076Y-113449565D03*
X94100076Y-113949565D03*
X94100076Y-114449565D03*
X94100076Y-114949565D03*
X94100076Y-115449565D03*
X94100076Y-115949565D03*
X94100076Y-116449565D03*
D67*
X93450076Y-117099565D03*
X92950076Y-117099565D03*
X92450076Y-117099565D03*
X91950076Y-117099565D03*
X91450076Y-117099565D03*
X90950076Y-117099565D03*
X90450076Y-117099565D03*
X89950076Y-117099565D03*
X89450076Y-117099565D03*
X88950076Y-117099565D03*
X88450076Y-117099565D03*
X87950076Y-117099565D03*
D66*
X87300076Y-116449565D03*
X87300076Y-115949565D03*
X87300076Y-115449565D03*
X87300076Y-114949565D03*
X87300076Y-114449565D03*
X87300076Y-113949565D03*
X87300076Y-113449565D03*
X87300076Y-112949565D03*
X87300076Y-112449565D03*
X87300076Y-111949565D03*
X87300076Y-111449565D03*
X87300076Y-110949565D03*
D67*
X87950076Y-110299565D03*
X88450076Y-110299565D03*
X88950076Y-110299565D03*
X89450076Y-110299565D03*
X89950076Y-110299565D03*
X90450076Y-110299565D03*
X90950076Y-110299565D03*
X91450076Y-110299565D03*
X91950076Y-110299565D03*
X92450076Y-110299565D03*
X92950076Y-110299565D03*
X93450076Y-110299565D03*
D68*
X90500435Y-100950076D03*
X89250435Y-100950076D03*
X90500435Y-102200076D03*
X89250435Y-102200076D03*
D69*
X91875435Y-100600076D03*
X91875435Y-101250076D03*
X91875435Y-101900076D03*
X91875435Y-102550076D03*
D70*
X90850435Y-103575076D03*
X90200435Y-103575076D03*
X89550435Y-103575076D03*
X88900435Y-103575076D03*
D69*
X87875435Y-102550076D03*
X87875435Y-101900076D03*
X87875435Y-101250076D03*
X87875435Y-100600076D03*
D70*
X88900435Y-99575076D03*
X89550435Y-99575076D03*
X90200435Y-99575076D03*
X90850435Y-99575076D03*
D65*
X59682469Y-110349761D03*
X58394969Y-110349761D03*
X57107469Y-110349761D03*
X55819969Y-110349761D03*
X59682469Y-111637261D03*
X58394969Y-111637261D03*
X57107469Y-111637261D03*
X55819969Y-111637261D03*
X59682469Y-112924761D03*
X58394969Y-112924761D03*
X57107469Y-112924761D03*
X55819969Y-112924761D03*
X59682469Y-114212261D03*
X58394969Y-114212261D03*
X57107469Y-114212261D03*
X55819969Y-114212261D03*
D66*
X61151219Y-109531011D03*
X61151219Y-110031011D03*
X61151219Y-110531011D03*
X61151219Y-111031011D03*
X61151219Y-111531011D03*
X61151219Y-112031011D03*
X61151219Y-112531011D03*
X61151219Y-113031011D03*
X61151219Y-113531011D03*
X61151219Y-114031011D03*
X61151219Y-114531011D03*
X61151219Y-115031011D03*
D67*
X60501219Y-115681011D03*
X60001219Y-115681011D03*
X59501219Y-115681011D03*
X59001219Y-115681011D03*
X58501219Y-115681011D03*
X58001219Y-115681011D03*
X57501219Y-115681011D03*
X57001219Y-115681011D03*
X56501219Y-115681011D03*
X56001219Y-115681011D03*
X55501219Y-115681011D03*
X55001219Y-115681011D03*
D66*
X54351219Y-115031011D03*
X54351219Y-114531011D03*
X54351219Y-114031011D03*
X54351219Y-113531011D03*
X54351219Y-113031011D03*
X54351219Y-112531011D03*
X54351219Y-112031011D03*
X54351219Y-111531011D03*
X54351219Y-111031011D03*
X54351219Y-110531011D03*
X54351219Y-110031011D03*
X54351219Y-109531011D03*
D67*
X55001219Y-108881011D03*
X55501219Y-108881011D03*
X56001219Y-108881011D03*
X56501219Y-108881011D03*
X57001219Y-108881011D03*
X57501219Y-108881011D03*
X58001219Y-108881011D03*
X58501219Y-108881011D03*
X59001219Y-108881011D03*
X59501219Y-108881011D03*
X60001219Y-108881011D03*
X60501219Y-108881011D03*
D68*
X59701220Y-101981013D03*
X60951220Y-101981013D03*
X59701220Y-100731013D03*
X60951220Y-100731013D03*
D69*
X58326220Y-102331013D03*
X58326220Y-101681013D03*
X58326220Y-101031013D03*
X58326220Y-100381013D03*
D70*
X59351220Y-99356013D03*
X60001220Y-99356013D03*
X60651220Y-99356013D03*
X61301220Y-99356013D03*
D69*
X62326220Y-100381013D03*
X62326220Y-101031013D03*
X62326220Y-101681013D03*
X62326220Y-102331013D03*
D70*
X61301220Y-103356013D03*
X60651220Y-103356013D03*
X60001220Y-103356013D03*
X59351220Y-103356013D03*
D23*
X92500435Y-95900076D03*
X92500435Y-97000076D03*
X90550000Y-107650000D03*
X90550000Y-106550000D03*
X93050435Y-102750076D03*
X93050435Y-103850076D03*
X95350435Y-100550076D03*
X95350435Y-101650076D03*
D22*
X87800435Y-98400076D03*
X88900435Y-98400076D03*
D23*
X90250435Y-95850076D03*
X90250435Y-96950076D03*
X86100000Y-116550000D03*
X86100000Y-115450000D03*
D22*
X93950435Y-98050076D03*
X92850435Y-98050076D03*
D23*
X93500000Y-120100000D03*
X93500000Y-119000000D03*
X61500000Y-106531010D03*
X61500000Y-107631010D03*
D31*
X59300435Y-118050076D03*
X59300435Y-119550076D03*
D71*
X55450784Y-103680935D03*
X56950784Y-103680935D03*
D31*
X51550000Y-111900000D03*
X51550000Y-110400000D03*
D26*
X65100000Y-99600000D03*
X65100000Y-100500000D03*
D25*
X65850000Y-101650000D03*
X64950000Y-101650000D03*
D26*
X65100000Y-103700000D03*
X65100000Y-102800000D03*
D25*
X62601219Y-98081011D03*
X61701219Y-98081011D03*
D26*
X85811000Y-108406060D03*
X85811000Y-107506060D03*
X86911001Y-108406060D03*
X86911001Y-107506060D03*
X88011000Y-108406060D03*
X88011000Y-107506060D03*
D25*
X95150435Y-102800076D03*
X96050435Y-102800076D03*
D22*
X56001220Y-99381011D03*
X57101220Y-99381011D03*
X58201219Y-98081010D03*
X57101219Y-98081010D03*
D23*
X53350000Y-108430934D03*
X53350000Y-109530934D03*
D71*
X91700435Y-98250076D03*
X90200435Y-98250076D03*
D22*
X63750000Y-112050000D03*
X62650000Y-112050000D03*
D23*
X60700435Y-119250076D03*
X60700435Y-118150076D03*
D26*
X89500000Y-106750000D03*
X89500000Y-107650000D03*
X94150435Y-101900076D03*
X94150435Y-102800076D03*
D31*
X97300435Y-100550076D03*
X97300435Y-102050076D03*
D25*
X93850435Y-100650076D03*
X92950435Y-100650076D03*
D71*
X97150000Y-111950000D03*
X98650000Y-111950000D03*
M02*
